<?xml version="1.0" encoding="utf-8"?>
<!-- Generator: Adobe Illustrator 22.0.1, SVG Export Plug-In . SVG Version: 6.00 Build 0)  -->
<svg version="1.1" id="レイヤー_1" xmlns="http://www.w3.org/2000/svg" xmlns:xlink="http://www.w3.org/1999/xlink" x="0px"
	 y="0px" viewBox="0 0 150 20" style="enable-background:new 0 0 150 20;" xml:space="preserve">
<style type="text/css">
	.st0{fill:#49B1FD;}
</style>
<g>
	<path class="st0" d="M139.5,12.5l0.5-2.2l-1.9-0.6l0-0.1l0.5-4.6l-2.3-0.4l-0.4,4.5l-2.6-0.3l0.2-3.1c0-0.9-0.2-1.5-0.8-1.9
		c-0.6-0.4-1.3-0.6-2.2-0.5l-4.3,0.5l0.2,2.8l4.6-1l-0.1,3.1h-0.1c-0.9,0-1.6,0.1-2.2,0.4c-0.7,0.3-1.4,0.9-1.9,1.7
		c-0.5,0.8-0.7,1.8-0.7,2.8c0,1.1,0.4,1.9,1,2.5c0.8,0.8,1.8,1,2.9,0.7c1.1-0.3,1.9-1.1,2.5-2.4c0.3-0.7,0.7-1.9,1-3.4l0-0.1
		l2.4,0.4l0,0.1l-1.3,5.4l2.5,0.5l1-5.4L139.5,12.5z M130.5,11c-0.1,0.9-0.3,1.5-0.4,1.9c-0.2,0.8-0.6,1.3-1,1.5
		c-0.2,0.1-0.3,0.1-0.4,0.1c-0.1,0-0.2,0-0.3-0.1c-0.2-0.1-0.4-0.4-0.4-0.7c-0.1-0.7,0-1.3,0.5-2c0.4-0.5,1.1-0.8,2-0.8h0.1
		L130.5,11z"/>
	<path class="st0" d="M56.8,15.6c0.1,0.1,0.2,0.2,0.4,0.2c0.1,0,0.3,0,0.4-0.1l1.1-1c0.2-0.2,0.2-0.5,0-0.7L50.4,5c0,0,0,0,0,0
		c0,0,0,0,0,0l0,0c-0.1-0.2-0.4-0.2-0.6-0.1L43,10.3c-0.2,0.1-0.2,0.4-0.1,0.6l1.1,1.3c0.1,0.1,0.2,0.1,0.3,0.2c0.1,0,0.2,0,0.3-0.1
		l5.2-4.2L56.8,15.6z"/>
	<path class="st0" d="M104.4,5.9l-8.7,0.4c-0.1,0-0.2,0-0.2,0.1c-0.1,0.1-0.1,0.2-0.1,0.2l0.1,1.1c0,0.1,0,0.2,0.1,0.2
		c0.1,0.1,0.2,0.1,0.2,0.1l8.7-0.4c0.1,0,0.2,0,0.2-0.1s0.1-0.2,0.1-0.2l-0.1-1.1C104.8,6,104.6,5.9,104.4,5.9z"/>
	<path class="st0" d="M109.2,3.8c0,0,0,0.1,0,0.1c0,0,0,0.1,0.1,0.1l2.6,1.7c0.1,0.1,0.2,0,0.2,0l0.8-1.2c0.1-0.1,0-0.2,0-0.2
		l-2.6-1.7c-0.1-0.1-0.2,0-0.2,0L109.2,3.8z"/>
	<path class="st0" d="M114.7,13.8c0.1,0.1,0.2,0,0.3-0.1l3.6-5.9l3.7,6.3c0.1,0.1,0.2,0.2,0.4,0.1l1.1-0.6c0.1-0.1,0.2-0.2,0.1-0.4
		l-6.2-10.7c-0.1-0.1-0.2-0.2-0.4-0.1L116.1,3C116,3,116,3.1,116,3.2c0,0.1,0,0.1,0,0.2l1.5,2.6l-0.1,0.1l-4,6.7
		c-0.1,0.1,0,0.2,0.1,0.3L114.7,13.8z"/>
	<path class="st0" d="M102.5,10.6l0.7,7.3c0,0.2,0.2,0.3,0.4,0.3l1.2-0.1c0.1,0,0.1,0,0.2-0.1c0,0,0.1,0,0.1,0l2.6-3.6
		c0,0,0.1-0.1,0-0.2s0-0.1-0.1-0.2l-1.1-0.8c-0.1,0-0.1,0-0.2,0s-0.1,0-0.2,0.1l-1.3,1.8l-0.6-5.8c0-0.1-0.1-0.2-0.1-0.2l0,0l0,0
		c0-0.2-0.2-0.3-0.4-0.3c0,0,0,0,0,0L93.1,9.2c-0.1,0-0.2,0-0.3,0.1s-0.1,0.2-0.1,0.3l0.1,1.1c0,0.1,0,0.2,0.1,0.3
		C93,11,93.1,11,93.2,11l1.1-0.1l-0.7,1.1c-0.1,0.1-0.1,0.2-0.1,0.3c0,0.1,0.1,0.2,0.1,0.2l1.7,1.2l-2.2,2.2c-0.1,0.1-0.1,0.4,0,0.5
		l0.8,0.8c0.1,0.1,0.4,0.1,0.5,0l2.4-2.4l3,2c0.1,0.1,0.2,0.1,0.3,0.1c0.1,0,0.2-0.1,0.2-0.1l0.6-0.9c0.1-0.1,0.1-0.2,0.1-0.3
		c0-0.1-0.1-0.2-0.1-0.2l-2.7-1.8l1.5-1.5c0.1-0.1,0.1-0.2,0.1-0.3c0-0.1,0-0.2-0.1-0.3l-0.7-0.7L102.5,10.6z M96.7,12.4l-2.2-1.5
		l3.8-0.2L96.7,12.4z"/>
	<path class="st0" d="M106.9,5.1c0.2,0,0.4-0.2,0.4-0.4l0-1c0-0.1-0.1-0.2-0.1-0.3c-0.1-0.1-0.2-0.1-0.3-0.1L96.6,3.8l0.2-0.3
		c0.1-0.1,0.1-0.3-0.1-0.4l-1-0.7c-0.1,0-0.1-0.1-0.2-0.1c-0.1,0-0.2,0-0.2,0.1l-2.8,3.9c-0.1,0.1-0.1,0.3,0.1,0.4l1,0.7
		c0.1,0,0.1,0.1,0.2,0.1c0.1,0,0.1-0.1,0.2-0.1l1.2-1.7L106.9,5.1z"/>
	<path class="st0" d="M76.1,7.2l0,0.9c0,0.2,0.2,0.4,0.5,0.4c0,0,0,0,0,0l14.1-0.7c0.1,0,0.2-0.1,0.3-0.2s0.1-0.2,0.1-0.3l0-0.9
		c0-0.2-0.2-0.4-0.5-0.4c0,0,0,0,0,0L87,6.2l0.1-0.8h2.4C89.8,5.4,90,5.2,90,5V4c0-0.2-0.2-0.4-0.4-0.4h-5l0.1-0.8
		c0-0.1,0-0.1-0.1-0.2L83,2.5c0,0-0.1,0-0.1,0c0,0,0,0.1-0.1,0.1l-0.1,1h-5.2c-0.2,0-0.4,0.2-0.4,0.4v1c0,0.2,0.2,0.4,0.4,0.4h2.7
		L80,6.6l-3.4,0.2c-0.1,0-0.2,0.1-0.3,0.2S76.1,7.1,76.1,7.2z M82,5.4h3.3l-0.2,0.9l-3.4,0.2L82,5.4z"/>
	<path class="st0" d="M89.1,13.4c0-0.1,0-0.1,0-0.2l-0.1-0.5c0,0,0,0,0-0.1l0,0l-0.4-3l0-0.1l0-0.6c0-0.2-0.1-0.3-0.3-0.3L78,9.2
		c-0.1,0-0.1,0-0.2,0.1c-0.1,0.1-0.1,0.1-0.1,0.2l0,0.2v4.2c0,0.2,0.1,0.3,0.3,0.3h1.5c0.1,0,0.1,0,0.2-0.1l0,0l0.4,0v3.3
		c0,0.1,0.1,0.2,0.2,0.2h1.5c0,0,0,0,0.1,0l4.2,0l0,0h1.5c0.1,0,0.1-0.1,0.1-0.1v-2.5c0-0.1-0.1-0.1-0.1-0.1H86
		c-0.1,0-0.1,0.1-0.1,0.1v0.8H82v-1.5c0,0,0,0,0,0l0-0.2l0.9,0l-0.2,0.3c0,0,0,0.1,0,0.1l1.9,1.1c0,0,0.1,0,0.1,0l0.6-1.1
		c0,0,0-0.1,0-0.1l-0.6-0.3l2.5-0.1l0,0c0.1,0,0.1,0,0.2,0l0.7-0.1l0.7,0C89,13.6,89.1,13.5,89.1,13.4z M79.8,10.3l6.8-0.3l0.1,0.6
		l-6.9,0.3V10.3z M79.8,12.9V12l7.1-0.3l0.1,0.8L79.8,12.9z"/>
	<path class="st0" d="M76,16.3C76,16.3,76,16.4,76,16.3l1,1.3c0,0,0.1,0,0.1,0c0,0,0.1,0,0.1,0l1.9-1.5c0.1,0,0.1-0.1,0-0.2l-1-1.2
		c0,0-0.1,0-0.1,0c0,0,0,0,0,0c0,0-0.1,0-0.1,0L76,16.3C76,16.2,76,16.3,76,16.3z"/>
	<path class="st0" d="M88.4,16.2c0,0,0,0.1,0,0.1l1.9,1.1c0,0,0.1,0,0.1,0l0.6-1.1c0,0,0-0.1,0-0.1c0,0,0,0,0-0.1l-1.9-1.1
		c0,0,0,0,0,0c0,0,0,0,0,0c0,0,0,0-0.1,0L88.4,16.2z"/>
	<path class="st0" d="M41.9,12.4l0-0.7c0-0.2-0.2-0.4-0.4-0.4c0,0,0,0,0,0l-0.6,0V9.5c0-0.2-0.1-0.3-0.3-0.3H39c0,0-0.1,0-0.1,0l0,0
		l-3.5,0.1v-1l4.6-0.2c0.2,0,0.3-0.1,0.3-0.3l0-0.2l0,0V5.7c0-0.2-0.1-0.3-0.3-0.3h-4.5v-1h6c0.3,0,0.5-0.2,0.5-0.5V3
		c0-0.3-0.2-0.5-0.5-0.5h-6V2.4c0-0.3-0.2-0.5-0.5-0.5h-1.2c-0.3,0-0.5,0.2-0.5,0.5v0.1l-0.1,0h-6.2c-0.3,0-0.5,0.2-0.5,0.5v0.9
		c0,0.3,0.2,0.5,0.5,0.5h6.3v1h-4.5c-0.2,0-0.3,0.1-0.3,0.3l0,2.2c0,0,0,0,0,0.1l0,0.4c0,0.1,0.1,0.3,0.3,0.3c0,0,0,0,0,0l4.5-0.2v1
		l-5.2,0.1c-0.2,0-0.4,0.2-0.4,0.4l0,0.8c0,0.1,0,0.2,0.1,0.3c0.1,0.1,0.2,0.1,0.3,0.1l5.1-0.1v0.6l-0.1,0l-6.4,0.2
		c-0.2,0-0.4,0.2-0.4,0.4l0,0.7c0,0.2,0.2,0.4,0.4,0.4l6.5-0.2v0.9l-5.3,0.3c-0.1,0-0.2,0-0.3,0.1c-0.1,0.1-0.1,0.2-0.1,0.3l0,0.8
		c0,0.2,0.2,0.4,0.4,0.4c0,0,0,0,0,0l5.3-0.3v0.8h-1.5c-0.1,0-0.2,0.1-0.2,0.2v1.5c0,0.1,0.1,0.2,0.2,0.2h3.6c0.1,0,0.2-0.1,0.2-0.2
		v-2.6l4.5-0.2h0.8c0.2,0,0.3-0.1,0.3-0.3v-2l0.6,0C41.7,12.8,41.9,12.6,41.9,12.4z M35.3,6.6h3v0.6l-3,0.1V6.6z M33.1,7.4l-3,0.1
		v-1h3V7.4z M38.7,13.7l-3.4,0.2V13l3.4-0.1V13.7z M38.7,11.4l-3.4,0.1v-0.6l3.4-0.1V11.4z"/>
	<path class="st0" d="M12,17.8l1.7,0.1c0,0,0,0,0,0c0.3,0,0.5-0.2,0.5-0.5l0.5-10.4l1.6-2.8c0.1-0.2,0-0.5-0.2-0.6l-1.6-0.9
		c-0.1,0-0.1-0.1-0.2-0.1c0,0-0.1,0-0.1,0c-0.1,0-0.2,0.1-0.3,0.2L12.2,6c0,0.1-0.1,0.1-0.1,0.1L10,9.8c-0.1,0.1-0.1,0.2,0,0.3
		c0,0.1,0.1,0.2,0.2,0.3l1.7,1l-0.3,5.9C11.6,17.5,11.8,17.8,12,17.8z"/>
	<path class="st0" d="M15.4,17.2c0,0.2,0.2,0.4,0.5,0.4l9.1-0.4c0.2,0,0.4-0.2,0.4-0.5l-0.1-1.8c0-0.1-0.1-0.2-0.1-0.3
		c-0.1-0.1-0.2-0.1-0.3-0.1l-3.3,0.2v-4.5H25c0.2,0,0.4-0.2,0.4-0.4V7.9c0-0.2-0.2-0.4-0.4-0.4h-3.3V3.1c0-0.3-0.2-0.5-0.5-0.5h-1.6
		c-0.3,0-0.5,0.2-0.5,0.5v4.4H16c-0.2,0-0.4,0.2-0.4,0.4v1.8c0,0.2,0.2,0.4,0.4,0.4H19v4.6l-3.2,0.2c-0.1,0-0.2,0.1-0.3,0.1
		c-0.1,0.1-0.1,0.2-0.1,0.3L15.4,17.2z"/>
	<path class="st0" d="M73.1,14.5c0.4-0.8,0.7-1.6,0.8-2.4c0.2-1.1,0.2-2.2-0.1-3.4c-0.3-1.2-0.7-2.2-1.4-3l0,0
		c-1.3-1.4-2.9-2.1-4.9-2.1c-1.6,0-3.1,0.5-4.4,1.5c-1.2,0.9-2,2.1-2.5,3.6c-0.3,0.9-0.4,1.9-0.4,3c0,1.3,0.3,2.2,0.8,3
		c0.4,0.6,0.9,1,1.6,1.1c0.6,0.1,1.3,0,1.9-0.3c1.1-0.5,2.2-1.4,3.2-2.4c0.7-0.7,1.6-1.7,2.6-3l-1.7-1.5c-0.9,1.1-1.7,2-2.4,2.7
		c-0.2,0.2-0.5,0.5-1,0.8c-0.6,0.5-1,0.8-1.3,0.9c-0.3,0.1-0.7,0.1-1-0.5c-0.2-0.3-0.3-0.7-0.3-1.1c-0.1-1,0.2-2,0.7-3
		c0.7-1.2,1.7-2,3.1-2.4c0.9-0.2,1.7-0.2,2.6,0.1c0.8,0.3,1.5,0.8,2,1.5c0.5,0.7,0.8,1.7,0.8,2.9c0,1.2-0.2,2.2-0.7,3
		c-0.3,0.6-1,1.3-2,2l2.2,1.8C72.1,16.1,72.8,15.2,73.1,14.5z"/>
	<path class="st0" d="M109.2,16.6c0,0.2,0.1,0.3,0.2,0.4l1.2,0.3c0.2,0,0.3-0.1,0.4-0.2l0.5-1.8l0.1,0.1c1.3,0.8,2.2,1.3,2.8,1.5
		c1.1,0.4,2.2,0.6,3.4,0.6l5.5,0.1l0.3-1.9l-5.8-0.1c-1.3,0-2.5-0.4-3.7-1l0,0c-0.6-0.4-1.3-0.8-2-1.4l-0.1,0l0.8-3.3c0,0,0,0,0,0
		l0,0c0,0,0-0.1,0-0.1l-0.1-1.4c0-0.1-0.1-0.2-0.2-0.2c0,0,0,0,0,0l-4,0.2c-0.1,0-0.1,0-0.1,0.1c0,0-0.1,0.1-0.1,0.1l0.1,1.4
		c0,0.1,0,0.1,0.1,0.1c0,0,0.1,0.1,0.1,0.1l2.3-0.1L109.2,16.6z"/>
</g>
<path class="st0" d="M130.8-19.2l-4.6,1l-0.2-3.1l4.4-0.5c0.9-0.1,1.7,0.1,2.3,0.5c0.6,0.5,0.9,1.2,0.9,2.1l-0.2,3l2.3,0.3l0.4-4.5
	l2.6,0.4l-0.5,4.7l1.9,0.6l-0.6,2.5l-1.7-0.7l-1,5.3l-2.8-0.5l1.3-5.5l-2.2-0.3c-0.3,1.5-0.6,2.7-1,3.4c-0.6,1.3-1.5,2.2-2.6,2.5
	c-1.2,0.3-2.2,0.1-3-0.7c-0.6-0.6-1-1.5-1-2.6c0-1.1,0.3-2,0.8-2.9c0.6-0.8,1.2-1.4,2-1.7c0.6-0.3,1.3-0.4,2.2-0.4L130.8-19.2z
	 M130.4-14c-0.9,0-1.5,0.3-1.9,0.8c-0.5,0.6-0.6,1.2-0.5,1.9c0.1,0.6,0.5,0.9,1,0.6c0.4-0.2,0.7-0.6,1-1.4
	C130.1-12.5,130.3-13.1,130.4-14z"/>
<path class="st0" d="M21.1-8.9h-1.6c-0.4,0-0.7-0.3-0.7-0.7v-12.3c0-0.4,0.3-0.7,0.7-0.7h1.6c0.4,0,0.7,0.3,0.7,0.7v12.3
	C21.7-9.2,21.4-8.9,21.1-8.9z"/>
<path class="st0" d="M13.7-7L12-7.1c-0.3,0-0.6-0.3-0.6-0.6l0.5-11c0-0.3,0.3-0.6,0.6-0.6l1.7,0.1c0.3,0,0.6,0.3,0.6,0.6l-0.5,11
	C14.3-7.2,14.1-7,13.7-7z"/>
<path class="st0" d="M25.5-17v1.8c0,0.3-0.3,0.6-0.6,0.6h-9c-0.3,0-0.6-0.3-0.6-0.6V-17c0-0.3,0.3-0.6,0.6-0.6h9
	C25.3-17.6,25.5-17.4,25.5-17z"/>
<path class="st0" d="M50.4-20.1l1.1,1.3c0.2,0.2,0.1,0.6-0.1,0.8l-6.7,5.4c-0.2,0.2-0.6,0.1-0.8-0.1L42.8-14
	c-0.2-0.2-0.1-0.6,0.1-0.8l6.7-5.4C49.9-20.4,50.2-20.3,50.4-20.1z"/>
<path class="st0" d="M48.5-19l1.1-1c0.3-0.2,0.7-0.2,0.9,0l8.2,8.8c0.2,0.3,0.2,0.7,0,0.9l-1.1,1c-0.3,0.2-0.7,0.2-0.9,0l-8.2-8.8
	C48.2-18.4,48.2-18.8,48.5-19z"/>
<path class="st0" d="M41.9-21.9v0.9c0,0.3-0.3,0.6-0.6,0.6H26.7c-0.3,0-0.6-0.3-0.6-0.6v-0.9c0-0.3,0.3-0.6,0.6-0.6h14.5
	C41.6-22.5,41.9-22.3,41.9-21.9z"/>
<path class="st0" d="M90.1-20.9v1c0,0.3-0.2,0.5-0.5,0.5H77.5c-0.3,0-0.5-0.2-0.5-0.5v-1c0-0.3,0.2-0.5,0.5-0.5h12.1
	C89.9-21.5,90.1-21.2,90.1-20.9z"/>
<path class="st0" d="M107.4-21.3l0,1c0,0.3-0.2,0.6-0.5,0.6l-12.1,0.6c-0.3,0-0.6-0.2-0.6-0.5l0-1c0-0.3,0.2-0.6,0.5-0.6l12.1-0.6
	C107.1-21.8,107.4-21.6,107.4-21.3z"/>
<path class="st0" d="M104.9-18.8l0.1,1.1c0,0.3-0.2,0.5-0.4,0.5l-8.7,0.4c-0.3,0-0.5-0.2-0.5-0.4l-0.1-1.1c0-0.3,0.2-0.5,0.4-0.5
	l8.7-0.4C104.7-19.2,104.9-19,104.9-18.8z"/>
<path class="st0" d="M112.9-16.9l0.1,1.4c0,0.2-0.1,0.3-0.3,0.3l-4,0.2c-0.2,0-0.3-0.1-0.3-0.3l-0.1-1.4c0-0.2,0.1-0.3,0.3-0.3
	l4-0.2C112.8-17.2,112.9-17.1,112.9-16.9z"/>
<path class="st0" d="M113-20.4l-0.8,1.2c-0.1,0.1-0.3,0.2-0.4,0.1l-2.6-1.7c-0.1-0.1-0.2-0.3-0.1-0.4l0.8-1.2
	c0.1-0.1,0.3-0.2,0.4-0.1l2.6,1.7C113-20.7,113.1-20.5,113-20.4z"/>
<path class="st0" d="M123.7-11.3l-1.1,0.6c-0.2,0.1-0.4,0-0.5-0.1l-6.2-10.7c-0.1-0.2,0-0.4,0.1-0.5l1.1-0.6c0.2-0.1,0.4,0,0.5,0.1
	l6.2,10.7C124-11.6,123.9-11.4,123.7-11.3z"/>
<path class="st0" d="M114.6-11.1l-1.2-0.7c-0.2-0.1-0.2-0.3-0.1-0.5l4-6.7c0.1-0.2,0.3-0.2,0.5-0.1l1.2,0.7c0.2,0.1,0.2,0.3,0.1,0.5
	l-4,6.7C115-11,114.8-11,114.6-11.1z"/>
<path class="st0" d="M111.5-16.1l1.2,0.3c0.2,0.1,0.4,0.3,0.3,0.5l-1.8,7.4c-0.1,0.2-0.3,0.4-0.5,0.3l-1.2-0.3
	c-0.2-0.1-0.4-0.3-0.3-0.5l1.8-7.4C111-16,111.2-16.1,111.5-16.1z"/>
<path class="st0" d="M104.2-15.9l0.1,1.1c0,0.3-0.2,0.5-0.5,0.5l-10.6,0.5c-0.3,0-0.5-0.2-0.5-0.5l-0.1-1.1c0-0.3,0.2-0.5,0.5-0.5
	l10.6-0.5C104-16.4,104.2-16.2,104.2-15.9z"/>
<path class="st0" d="M102.7-16l1.2-0.1c0.3,0,0.5,0.2,0.5,0.4l0.8,8.4c0,0.3-0.2,0.5-0.4,0.5l-1.2,0.1c-0.3,0-0.5-0.2-0.5-0.4
	l-0.8-8.4C102.3-15.8,102.5-16,102.7-16z"/>
<path class="st0" d="M106.6-11.9l1.1,0.8c0.2,0.1,0.2,0.3,0.1,0.5L105.1-7c-0.1,0.2-0.3,0.2-0.5,0.1l-1.1-0.8
	c-0.2-0.1-0.2-0.3-0.1-0.5l2.6-3.6C106.2-12,106.4-12,106.6-11.9z"/>
<path class="st0" d="M99.1-14.4l0.8,0.8c0.2,0.2,0.2,0.5,0,0.7l-5.3,5.3c-0.2,0.2-0.5,0.2-0.7,0l-0.8-0.8C93-8.7,93-9,93.2-9.2
	l5.3-5.3C98.6-14.6,98.9-14.6,99.1-14.4z"/>
<path class="st0" d="M101.1-9.2l-0.6,0.9c-0.1,0.2-0.4,0.3-0.7,0.1l-6.2-4.2c-0.2-0.1-0.3-0.4-0.1-0.7l0.6-0.9
	c0.1-0.2,0.4-0.3,0.7-0.1l6.2,4.2C101.2-9.7,101.3-9.4,101.1-9.2z"/>
<path class="st0" d="M95.8-22.7l1,0.7c0.2,0.1,0.2,0.4,0.1,0.6l-2.8,3.9c-0.1,0.2-0.4,0.2-0.6,0.1l-1-0.7c-0.2-0.1-0.2-0.4-0.1-0.6
	l2.8-3.9C95.3-22.8,95.6-22.8,95.8-22.7z"/>
<path class="st0" d="M80.6-21l1.5,0.3c0.2,0,0.3,0.2,0.2,0.3L81.9-18c0,0.2-0.2,0.3-0.3,0.2l-1.5-0.3c-0.2,0-0.3-0.2-0.2-0.3
	l0.4-2.3C80.3-20.9,80.4-21,80.6-21z"/>
<path class="st0" d="M78-15.8h1.5c0.2,0,0.4,0.2,0.4,0.4v4.3c0,0.2-0.2,0.4-0.4,0.4H78c-0.2,0-0.4-0.2-0.4-0.4v-4.3
	C77.6-15.6,77.8-15.8,78-15.8z"/>
<path class="st0" d="M86.7-16.1l1.5-0.2c0.2,0,0.4,0.1,0.5,0.3l0.6,4.2c0,0.2-0.1,0.4-0.3,0.5l-1.5,0.2c-0.2,0-0.4-0.1-0.5-0.3
	l-0.6-4.2C86.4-15.9,86.5-16.1,86.7-16.1z"/>
<path class="st0" d="M83-22.6l1.5,0.2c0.1,0,0.2,0.1,0.2,0.3l-0.2,1.9c0,0.1-0.1,0.2-0.3,0.2l-1.5-0.2c-0.1,0-0.2-0.1-0.2-0.3
	l0.2-1.9C82.7-22.5,82.8-22.6,83-22.6z"/>
<path class="st0" d="M85.8-21l1.5,0.3c0.2,0,0.3,0.2,0.2,0.3L87-18c0,0.2-0.2,0.3-0.3,0.2l-1.5-0.3c-0.2,0-0.3-0.2-0.2-0.3l0.4-2.3
	C85.5-20.9,85.6-21,85.8-21z"/>
<path class="st0" d="M91.3-18.5l0,0.9c0,0.3-0.2,0.6-0.6,0.6l-14.1,0.7c-0.3,0-0.6-0.2-0.6-0.6l0-0.9c0-0.3,0.2-0.6,0.6-0.6L90.7-19
	C91-19.1,91.3-18.8,91.3-18.5z"/>
<path class="st0" d="M87.5-9v1.3c0,0.2-0.2,0.4-0.4,0.4h-6.6c-0.2,0-0.4-0.2-0.4-0.4V-9c0-0.2,0.2-0.4,0.4-0.4h6.6
	C87.4-9.4,87.5-9.2,87.5-9z"/>
<path class="st0" d="M86-10.3h1.6c0.1,0,0.3,0.1,0.3,0.3v2.5c0,0.1-0.1,0.3-0.3,0.3H86c-0.1,0-0.3-0.1-0.3-0.3V-10
	C85.8-10.2,85.9-10.3,86-10.3z"/>
<path class="st0" d="M78.3-10.4l1,1.2c0.1,0.1,0.1,0.3,0,0.4l-1.9,1.5c-0.1,0.1-0.3,0.1-0.4,0l-1-1.2c-0.1-0.1-0.1-0.3,0-0.4
	l1.9-1.5C78-10.5,78.2-10.5,78.3-10.4z"/>
<path class="st0" d="M80.3-11.1h1.5c0.2,0,0.3,0.1,0.3,0.3v3.2c0,0.2-0.1,0.3-0.3,0.3h-1.5c-0.2,0-0.3-0.1-0.3-0.3v-3.2
	C80-11,80.1-11.1,80.3-11.1z"/>
<path class="st0" d="M88.7-16l0,0.6c0,0.2-0.2,0.4-0.4,0.4l-10.3,0.5c-0.2,0-0.4-0.2-0.4-0.4l0-0.6c0-0.2,0.2-0.4,0.4-0.4l10.3-0.5
	C88.5-16.4,88.7-16.2,88.7-16z"/>
<path class="st0" d="M89.2-12.2l0,0.6c0,0.2-0.2,0.4-0.4,0.4l-10.8,0.5c-0.2,0-0.4-0.2-0.4-0.4l0-0.6c0-0.2,0.2-0.4,0.4-0.4
	l10.8-0.5C89-12.6,89.2-12.5,89.2-12.2z"/>
<path class="st0" d="M87.6-14.2l0,0.6c0,0.2-0.2,0.4-0.4,0.4l-8.9,0.4c-0.2,0-0.4-0.2-0.4-0.4l0-0.6c0-0.2,0.2-0.4,0.4-0.4l8.9-0.4
	C87.4-14.6,87.6-14.4,87.6-14.2z"/>
<path class="st0" d="M85.5-10.6l-0.6,1.1c-0.1,0.1-0.2,0.1-0.3,0.1l-1.9-1.1c-0.1-0.1-0.1-0.2-0.1-0.3l0.6-1.1
	c0.1-0.1,0.2-0.1,0.3-0.1l1.9,1.1C85.5-10.9,85.6-10.7,85.5-10.6z"/>
<path class="st0" d="M91.3-8.5l-0.6,1.1c-0.1,0.1-0.2,0.1-0.3,0.1l-1.9-1.1c-0.1-0.1-0.1-0.2-0.1-0.3L89-9.9C89-10,89.2-10,89.3-10
	l1.9,1.1C91.3-8.8,91.3-8.7,91.3-8.5z"/>
<path class="st0" d="M40.9-15.4l0,0.8c0,0.3-0.2,0.5-0.5,0.5L28-13.8c-0.3,0-0.5-0.2-0.5-0.5l0-0.8c0-0.3,0.2-0.5,0.5-0.5l12.5-0.3
	C40.6-15.9,40.9-15.7,40.9-15.4z"/>
<path class="st0" d="M42-13.3l0,0.7c0,0.3-0.2,0.6-0.5,0.6l-14.9,0.4c-0.3,0-0.6-0.2-0.6-0.5l0-0.7c0-0.3,0.2-0.6,0.5-0.6l14.9-0.4
	C41.8-13.8,42-13.6,42-13.3z"/>
<path class="st0" d="M40.7-11l0,0.8c0,0.3-0.2,0.5-0.5,0.5L27.8-9.1c-0.3,0-0.5-0.2-0.5-0.5l0-0.8c0-0.3,0.2-0.5,0.5-0.5l12.4-0.6
	C40.5-11.5,40.7-11.3,40.7-11z"/>
<path class="st0" d="M35.4-8.5v1.5c0,0.2-0.1,0.3-0.3,0.3h-3.6c-0.2,0-0.3-0.1-0.3-0.3v-1.5c0-0.2,0.1-0.3,0.3-0.3h3.6
	C35.3-8.8,35.4-8.7,35.4-8.5z"/>
<path class="st0" d="M33.6-23.2h1.2c0.4,0,0.6,0.3,0.6,0.6v14.4c0,0.4-0.3,0.6-0.6,0.6h-1.2c-0.4,0-0.6-0.3-0.6-0.6v-14.4
	C32.9-22.9,33.2-23.2,33.6-23.2z"/>
<path class="st0" d="M39-15.9h1.7c0.2,0,0.4,0.2,0.4,0.4v5.3c0,0.2-0.2,0.4-0.4,0.4H39c-0.2,0-0.4-0.2-0.4-0.4v-5.3
	C38.6-15.7,38.7-15.9,39-15.9z"/>
<path class="st0" d="M28.3-19.1H30c0.1,0,0.2,0.1,0.2,0.2v1.8c0,0.1-0.1,0.2-0.2,0.2h-1.6c-0.1,0-0.2-0.1-0.2-0.2v-1.8
	C28.1-19,28.2-19.1,28.3-19.1z"/>
<path class="st0" d="M38.4-19.3H40c0.1,0,0.2,0.1,0.2,0.2v1.8c0,0.1-0.1,0.2-0.2,0.2h-1.6c-0.1,0-0.2-0.1-0.2-0.2v-1.8
	C38.2-19.2,38.3-19.3,38.4-19.3z"/>
<path class="st0" d="M40.3-19.2v0.6c0,0.2-0.2,0.4-0.4,0.4H28.6c-0.2,0-0.4-0.2-0.4-0.4v-0.6c0-0.2,0.2-0.4,0.4-0.4h11.2
	C40.1-19.7,40.3-19.5,40.3-19.2z"/>
<path class="st0" d="M40.2-17.6l0,0.4c0,0.2-0.2,0.4-0.4,0.4l-11.3,0.6c-0.2,0-0.4-0.2-0.4-0.4l0-0.4c0-0.2,0.2-0.4,0.4-0.4L39.8-18
	C40-18,40.2-17.8,40.2-17.6z"/>
<path class="st0" d="M14.6-22.4l1.6,0.9c0.3,0.1,0.3,0.5,0.2,0.7l-4,7c-0.1,0.3-0.5,0.3-0.7,0.2l-1.6-0.9c-0.3-0.1-0.3-0.5-0.2-0.7
	l4-7C14.1-22.5,14.4-22.6,14.6-22.4z"/>
<path class="st0" d="M25.5-10l0.1,1.8c0,0.3-0.2,0.6-0.5,0.6l-9.1,0.4c-0.3,0-0.6-0.2-0.6-0.5l-0.1-1.8c0-0.3,0.2-0.6,0.5-0.6
	l9.1-0.4C25.2-10.6,25.5-10.4,25.5-10z"/>
<path class="st0" d="M68.8-9.7c1.1-0.7,1.8-1.4,2.1-2.1c0.5-0.8,0.7-1.7,0.7-2.9c0-1.2-0.3-2.1-0.8-2.8c-0.5-0.7-1.2-1.2-1.9-1.4
	c-0.8-0.3-1.6-0.3-2.5-0.1c-1.3,0.4-2.3,1.2-3,2.3c-0.6,0.9-0.8,1.9-0.7,2.9c0,0.4,0.1,0.8,0.3,1.1c0.3,0.4,0.6,0.6,0.9,0.4
	c0.3-0.1,0.7-0.4,1.3-0.8c0.4-0.3,0.7-0.6,1-0.8c0.8-0.7,1.6-1.6,2.5-2.8l1.9,1.7c-1,1.4-1.9,2.4-2.6,3.1c-1.1,1.1-2.2,1.9-3.3,2.4
	c-0.7,0.3-1.3,0.4-2,0.3c-0.7-0.1-1.3-0.5-1.7-1.2c-0.5-0.7-0.7-1.7-0.8-3c0-1.1,0.1-2.1,0.4-3.1c0.5-1.5,1.3-2.8,2.5-3.7
	c1.4-1,2.9-1.5,4.5-1.5c2.1,0,3.7,0.7,5,2.2c0.7,0.8,1.2,1.8,1.5,3c0.3,1.2,0.3,2.4,0.1,3.5c-0.2,0.9-0.4,1.7-0.8,2.4
	c-0.4,0.8-1.1,1.6-2.1,2.6L68.8-9.7z"/>
<path class="st0" d="M117.8-9.6c-1.2,0-2.5-0.4-3.7-1c-0.7-0.4-1.4-0.9-2.1-1.5l-0.6,2.5c1.4,0.8,2.3,1.3,2.9,1.5
	c1.1,0.4,2.2,0.6,3.4,0.6l5.6,0.1l0.3-2.2L117.8-9.6z"/>
</svg>
