<?xml version="1.0" encoding="utf-8"?>
<!-- Generator: Adobe Illustrator 22.1.0, SVG Export Plug-In . SVG Version: 6.00 Build 0)  -->
<svg version="1.1" xmlns="http://www.w3.org/2000/svg" xmlns:xlink="http://www.w3.org/1999/xlink" x="0px" y="0px"
	 viewBox="0 0 900 750" style="enable-background:new 0 0 900 750;" xml:space="preserve">
<style type="text/css">
	.st0{fill:#FCFCFC;}
	.st1{display:none;fill:#F29288;}
	.st2{fill:#F29288;}
	.st3{fill:#3CD3C7;}
	.st4{fill:#F2D766;}
	.st5{fill:#F46C83;}
	.st6{fill:#F99830;}
	.st7{opacity:0.38;}
	.st8{fill:#636363;}
	.st9{fill:#FCFCFC;stroke:#FEFEFF;stroke-miterlimit:10;}
	.st10{fill:#B7B7B7;}
	.st11{fill:#4C4C4C;}
</style>
<g id="レイヤー_3">
	<g>
		<rect x="1" class="st0" width="900" height="750"/>
	</g>
</g>
<g id="グラフ">
	<g id="装飾">
	</g>
	<path class="st1" d="M1632.8,287.8c-0.3-0.2-0.5-0.3-0.8-0.5L1632.8,287.8z"/>
	<path class="st2" d="M2074.9,522l-19.9-11.5l0,0C2061.5,514.3,2068.1,518.1,2074.9,522z"/>
	<path class="st2" d="M2055,510.5L2055,510.5l-0.8-0.5C2054.5,510.2,2054.8,510.4,2055,510.5z"/>
	<path class="st1" d="M1385.2,326.2c1.7-3,3.6-6.2,5.6-9.6L1385.2,326.2z"/>
</g>
<g id="レイヤー_5">
	<path class="st3" d="M537.9,125c-95.9-24.5-201.9,0.8-277,75.9L466,406L537.9,125z"/>
	<path class="st3" d="M466,406c0,0,73.8-128.1-2.1-290.1L425.8,277L466,406z"/>
	<path class="st4" d="M756,406c0-74.2-28.3-148.4-84.9-205.1l0,0c-52.5-52.5-125-85-205-85v290l147.8,249.5
		C698.9,605,756,512.2,756,406L756,406z"/>
	<path class="st2" d="M185,334.1c-24.5,95.9,0.8,201.9,75.9,277l0,0c52.5,52.5,125,85,205,85V406L185,334.1z"/>
	<path class="st5" d="M394.1,687c95.9,24.5,201.9-0.8,277-75.9L466,406L394.1,687z"/>
	<path class="st6" d="M318.2,156.5C233.1,207,176,299.8,176,406h290L318.2,156.5z"/>
	<path class="st5" d="M466,406c0,0-104,105-72,281l78-146L466,406z"/>
	<path class="st4" d="M466,406c0,0,37.5,142.1,205,205l-86.1-140.8L466,406z"/>
	<path class="st2" d="M466,406c0,0-127.5-74.8-290.1-0.2l160.8,39.4L466,406z"/>
	<path class="st6" d="M466,406c0,0-1.1-147.8-148.5-249.2L366,315.1L466,406z"/>
	<g>
		<g class="st7">
			<g>
				<circle class="st0" cx="466.2" cy="406.3" r="124.3"/>
			</g>
		</g>
		<g>
			<circle class="st0" cx="466.2" cy="406.3" r="111.3"/>
		</g>
		<g>
			<path class="st8" d="M445.8,390.2c0-0.8,0.3-1.2,1-1.2s1,0.4,1,1.2v3h5.8c0.8,0,1.2,0.3,1.2,1c0,0.7-0.4,1-1.2,1h-1l-1.6,6.3h5.2
				v-10.8c0-0.9,0.4-1.4,1.2-1.4c0.8,0,1.2,0.5,1.2,1.4v10.8h4.7c0.8,0,1.2,0.3,1.2,1c0,0.7-0.4,1-1.2,1h-4.7
				c0,3.8,0.2,7.3,0.5,10.3c0.9-2.2,1.7-4.4,2.3-6.5c0.2-0.8,0.8-1.2,1.6-1c0.9,0.2,1.2,0.9,0.9,2.1c-1,3.1-2.4,6.3-4.2,9.4
				c0.3,2.3,0.8,4.4,1.4,6.3c0.3,0.9,0.6,0.9,0.9-0.2c0.2-1.6,0.4-3.9,0.5-6.8c0-0.8,0.3-1.2,1-1.2c0.7,0,1,0.4,1,1.2
				c0,2.6-0.3,5.7-0.9,9.4c-0.3,1.7-1,2.6-1.9,2.6c-0.8,0-1.5-0.6-2.1-1.9c-0.9-2.2-1.6-4.4-1.9-6.5c-2.4,3.1-5.1,5.8-8,7.9
				c-1,0.7-1.8,0.7-2.3,0c-0.2-0.7-0.1-1.3,0.5-1.7l3.5-2.6l-0.7,0.3l-0.9,0.2h-6.8c-0.7,0-1.3-0.3-1.9-0.9
				c-0.6-0.6-0.9-1.2-0.9-1.9v-11.9c0-0.7,0.3-1.3,0.9-1.9c0.6-0.6,1.2-0.9,1.9-0.9h7.2c0.7,0,1.3,0.3,1.9,0.9
				c0.6,0.6,0.9,1.2,0.9,1.9v11.4l-0.2,0.9l-0.3,0.9c1.7-1.7,3.3-3.7,4.7-5.8c-0.7-4.1-1-8.7-1-14h-20.1v24.3c0,0.9-0.4,1.4-1.2,1.4
				c-0.8,0-1.2-0.5-1.2-1.4v-4.7c-2,0.7-3.6,1.3-4.7,1.7c-1.4,0.5-2.4,0.8-3.1,0.9c-1,0.2-1.7-0.1-1.9-0.9c-0.1-0.8,0.2-1.3,1-1.6
				l1.4-0.3v-30h-1c-0.8,0-1.2-0.3-1.2-1c0-0.7,0.4-1,1.2-1h11.5c0.8,0,1.2,0.3,1.2,1c0,0.7-0.4,1-1.2,1h-0.7v8.6h6.1
				c-0.3-2.4-0.8-4.5-1.2-6.3h-0.9c-0.8,0-1.2-0.3-1.2-1c0-0.7,0.4-1,1.2-1h5.6V390.2z M428.9,401.2h4.9V393h-4.9V401.2z
				 M428.9,410.6h4.9v-7.3h-4.9V410.6z M428.9,422.7l4.9-1.4v-8.6h-4.9V422.7z M442.9,410.4v4.7h7.9v-4.7c0-0.6-0.3-0.9-0.9-0.9
				h-6.1C443.2,409.6,442.9,409.9,442.9,410.4z M442.9,422c0,0.6,0.3,0.9,0.9,0.9h5.8c0.8,0,1.2-0.4,1.2-1.2v-4.4h-7.9V422z
				 M445.1,401.5h3.5l1.4-6.3h-6.5C444.3,397.3,444.8,399.4,445.1,401.5z M461.4,391.2c0.6-0.2,1,0.1,1.4,0.9c0.6,2,1,3.9,1.4,5.8
				c0.1,1-0.2,1.6-1,1.7c-0.8,0.1-1.3-0.3-1.4-1.4c-0.2-1.9-0.5-3.8-0.9-5.8C460.7,391.7,460.9,391.3,461.4,391.2z"/>
			<path class="st8" d="M483.4,390.4c0-0.9,0.4-1.4,1.2-1.4c0.8,0,1.2,0.5,1.2,1.4v6.1h6.6v-6.1c0-0.9,0.4-1.4,1.2-1.4
				c0.8,0,1.2,0.5,1.2,1.4v6.1h3.7c0.6-0.7,1.2-1.6,1.9-2.6c0.7-1,1.2-1.9,1.6-2.6c0.2-0.5,0.5-0.8,0.9-1c0.6-0.3,1.1-0.3,1.6,0
				c0.6,0.5,0.7,1.1,0.3,1.9c-0.5,0.9-1.6,2.4-3.3,4.4h6.3c0.9,0,1.4,0.4,1.4,1.2c0,0.8-0.5,1.2-1.4,1.2h-6.1
				c-1.2,2.1-2.5,3.8-4,5.1h8.7c0.9,0,1.4,0.4,1.4,1.2c0,0.8-0.5,1.2-1.4,1.2h-16.1v3.1h13.8c0.9,0,1.4,0.4,1.4,1.2
				c0,0.8-0.5,1.2-1.4,1.2h-13.8v3.1H508c0.9,0,1.4,0.4,1.4,1.2c0,0.8-0.5,1.2-1.4,1.2h-17.1c1,0.8,2.2,1.6,3.5,2.3
				c1.2,0.7,2.4,1.3,3.8,1.9c1.7,0.7,3.3,1.3,4.5,1.7c1.7,0.6,3.5,1.1,5.2,1.6c0.8,0.2,1.2,0.8,1.2,1.6c0,0.8-0.5,1.2-1.6,1.2
				c-0.8,0-2.3-0.3-4.4-1c-1.4-0.5-2.9-1-4.4-1.7c-1.5-0.7-3-1.5-4.4-2.3c-1.5-1-2.9-2-4.2-2.8v7.9c0,0.9-0.4,1.4-1.2,1.4
				c-0.8,0-1.2-0.5-1.2-1.4v-7.3c-1,0.8-2.4,1.6-4,2.4c-1.5,0.8-2.9,1.5-4.2,1.9c-0.9,0.5-2.4,1-4.5,1.6c-2.7,0.7-4.2,1-4.5,1
				c-0.9,0-1.4-0.4-1.4-1.2c0-0.6,0.4-1,1.2-1.2c1-0.2,2.6-0.6,4.5-1.2c1.5-0.5,3-1,4.4-1.6c1.5-0.7,3-1.4,4.4-2.1
				c2-1.2,3.3-2,4-2.6h-17.3c-0.9,0-1.4-0.4-1.4-1.2c0-0.8,0.5-1.2,1.4-1.2h17.5V412h-14c-0.9,0-1.4-0.4-1.4-1.2
				c0-0.8,0.5-1.2,1.4-1.2h14v-3.1h-15.7c-0.9,0-1.4-0.4-1.4-1.2c0-0.8,0.5-1.2,1.4-1.2h8c-0.6-1.6-1.5-3.3-2.6-5.1h-7.3
				c-0.9,0-1.4-0.4-1.4-1.2c0-0.8,0.5-1.2,1.4-1.2h6.6c-0.6-1.2-1.6-2.6-3-4.2c-0.7-0.7-0.8-1.3-0.3-1.9c0.6-0.6,1.3-0.5,2.3,0.2
				c1.4,1.2,2.6,2.6,3.5,4.2c0.3,0.9,0.2,1.5-0.5,1.7h4.5V390.4z M483.4,404h11.5c1.6-1.9,2.8-3.6,3.5-5.1h-18
				C481.9,400.8,482.9,402.5,483.4,404z"/>
		</g>
	</g>
	<g>
		<g>
			<path class="st9" d="M624.6,356c0.1-1.7,0.6-3.2,1.4-4.4c2-3.1,5.2-3.5,7-3.5c5.7,0,8.5,4,8.5,8.2c0,2.2-0.8,5.2-3.9,6.7
				c1,0.4,4.4,2.1,4.4,7.3c0,5.7-4.1,9.1-9.3,9.1c-3.1,0-6.8-1.3-8.4-5.2c-0.5-1.1-0.6-2.1-0.7-3.2h3.4c0.1,1.1,0.5,2.2,1.1,3
				c1,1.5,2.8,2.3,4.7,2.3c3.4,0,5.9-2.8,5.9-6.1c0-1.7-0.7-4-3-5.1c-1-0.5-2.3-0.7-3.4-0.6v-3c1.2,0.1,2.5-0.1,3.4-0.6
				s2.5-1.8,2.5-4.5c0-2.7-1.5-5.2-5.2-5.2c-1.2,0-2.7,0.2-3.9,1.7c-0.6,0.8-1.1,1.9-1.2,3.2H624.6z"/>
			<path class="st9" d="M651.6,374.8c-2-2.9-3-6.8-3-11.1s1-8.2,3-11.1c2.3-3.4,5.4-4.5,7.8-4.5s5.4,1.2,7.8,4.5c2,2.9,3,6.8,3,11.1
				s-1,8.2-3,11.1c-2.3,3.4-5.4,4.5-7.8,4.5S654,378.2,651.6,374.8z M654.2,354.5c-1.6,2.6-2.2,6-2.2,9.2c0,3.2,0.6,6.6,2.2,9.2
				c1.6,2.5,3.7,3.4,5.2,3.4s3.6-0.8,5.2-3.4c1.6-2.6,2.2-6,2.2-9.2c0-3.2-0.6-6.6-2.2-9.2c-1.6-2.5-3.7-3.4-5.2-3.4
				S655.8,352,654.2,354.5z"/>
			<path class="st0" d="M676.3,363.2c-1.2-1.2-1.8-3.1-1.8-5.7c0-2.6,0.5-4.4,1.5-5.4c1.2-1.2,2.6-1.8,4-1.8c1.6,0,3,0.5,4,1.6
				c1.1,1.1,1.7,3,1.7,5.6c0,2.7-0.6,4.6-1.7,5.7c-1.1,1.1-2.4,1.6-4,1.6C678.6,364.8,677.4,364.3,676.3,363.2z M678.4,360.5
				c0.4,0.7,1,1,1.7,1c0.8,0,1.4-0.3,1.8-1c0.4-0.7,0.6-1.7,0.6-3.1c0-1.4-0.2-2.4-0.6-3.1c-0.4-0.7-1-1-1.8-1c-0.9,0-1.5,0.4-2,1.2
				c-0.3,0.7-0.5,1.6-0.5,2.8C677.7,358.8,677.9,359.8,678.4,360.5z M678.9,375.8l16.1-26l2.1,1.5l-16.1,26L678.9,375.8z
				 M701.4,369.4c0,2.7-0.6,4.6-1.7,5.7c-1.1,1.1-2.4,1.6-4,1.6c-1.4,0-2.6-0.5-3.7-1.6c-1.2-1.2-1.8-3.1-1.8-5.7
				c0-2.6,0.5-4.4,1.5-5.4c1.2-1.2,2.6-1.8,4-1.8c1.6,0,3,0.5,4,1.6C700.8,365,701.4,366.8,701.4,369.4z M695.8,365.4
				c-0.9,0-1.5,0.4-2,1.2c-0.3,0.7-0.5,1.6-0.5,2.8c0,1.3,0.2,2.3,0.7,3.1c0.4,0.7,1,1,1.7,1c0.8,0,1.4-0.3,1.8-1
				c0.4-0.7,0.6-1.7,0.6-3.1c0-1.4-0.2-2.4-0.6-3.1C697.2,365.7,696.6,365.4,695.8,365.4z"/>
		</g>
		<g>
			<path class="st10" d="M841.6,216.3l-212.3,0.1c-1.3,0-2.4,0.8-2.4,1.8l0,62.6c0,1,1.1,1.8,2.4,1.8l22.2,0l-8,17.9l41.5-17.9
				l156.6,0c1.3,0,2.4-0.8,2.4-1.8l0-62.6C844,217.1,842.9,216.3,841.6,216.3z"/>
		</g>
		<g>
			<path class="st0" d="M835.3,211.3H629c-1.3,0-2.3,0.8-2.3,1.8v62.6c0,1,1,1.8,2.3,1.8h21.6l-7.8,17.9l40.4-17.9h152.2
				c1.3,0,2.3-0.8,2.3-1.8v-62.6C837.6,212.1,836.6,211.3,835.3,211.3z"/>
			<path class="st10" d="M639.8,298.3l8.5-19.3H629c-2.1,0-3.8-1.5-3.8-3.3v-62.6c0-1.8,1.7-3.3,3.8-3.3h206.3
				c2.1,0,3.8,1.5,3.8,3.3v62.6c0,1.8-1.7,3.3-3.8,3.3H683.4L639.8,298.3z M629,212.8c-0.5,0-0.8,0.2-0.8,0.3l0,62.6
				c0,0.1,0.3,0.3,0.8,0.3h23.9l-7.2,16.5l37.1-16.5h152.5c0.5,0,0.8-0.2,0.8-0.3l0-62.6c0-0.1-0.3-0.3-0.8-0.3H629z"/>
		</g>
		<g>
			<path class="st11" d="M682.6,232.7c0.8,0,1.2,0.4,1.2,1.1s-0.4,1.1-1.2,1.1h-9.3v16.4h10.9c0.8,0,1.2,0.4,1.2,1.1
				s-0.4,1.1-1.2,1.1h-23.9c-0.8,0-1.2-0.4-1.2-1.1s0.4-1.1,1.2-1.1h10.9v-16.4H662c-0.8,0-1.2-0.4-1.2-1.1s0.4-1.1,1.2-1.1H682.6z"
				/>
			<path class="st11" d="M691.3,232c0.4-0.6,0.9-0.8,1.5-0.6c3.5,1.4,6.4,3,8.7,4.9c0.7,0.6,0.8,1.3,0.4,2c-0.6,0.7-1.3,0.7-2.1,0.1
				c-2.7-2.1-5.3-3.8-8-5C691.3,233.1,691.1,232.7,691.3,232z M714.1,234c0.7,0.2,1,0.6,0.8,1.3c-1.3,5.5-3.5,9.8-6.8,13.1
				c-3.4,3.4-8.4,5.5-15,6.3c-0.9,0-1.3-0.4-1.4-1.2c0-0.8,0.4-1.2,1.2-1.3c5.9-0.5,10.6-2.5,13.9-5.9c2.7-2.7,4.8-6.6,6.1-11.6
				C713.1,234.2,713.5,233.9,714.1,234z"/>
			<path class="st11" d="M721,238.4c0.2-0.5,0.6-0.7,1.2-0.6c3,0.9,5.6,2.2,7.9,3.8c0.6,0.5,0.7,1.2,0.4,1.9
				c-0.5,0.5-1.1,0.6-1.8,0.2c-2.5-1.8-4.9-3.1-7.1-4C721,239.3,720.9,238.9,721,238.4z M744.2,234.3c0.7,0.2,1,0.7,0.8,1.3
				c-1.3,5.9-3.7,10.4-7.1,13.7c-3.9,3.4-8.8,5.2-14.6,5.6c-0.8-0.1-1.2-0.4-1.2-1.1c0-0.7,0.4-1.1,1.2-1.2c5.5-0.5,9.8-2.1,13-4.8
				c3.2-2.9,5.4-7.1,6.7-12.8C743.1,234.5,743.5,234.2,744.2,234.3z M722.9,231.2c0.2-0.5,0.6-0.7,1.2-0.6c3.4,0.9,6.4,2.2,8.8,3.8
				c0.6,0.5,0.7,1.1,0.4,1.9c-0.5,0.5-1.1,0.6-1.8,0.2c-2.5-1.6-5.2-2.9-8-4C722.9,232.3,722.7,231.8,722.9,231.2z M736.4,229.3
				c0.3-0.2,0.7-0.2,1.1,0.1c0.9,1.1,1.6,2.2,2.1,3.4c0.2,0.5,0,0.8-0.4,1.1c-0.4,0.2-0.7,0-0.9-0.4c-0.5-1.1-1.2-2.2-2-3.4
				C736.1,229.8,736.1,229.5,736.4,229.3z M739.3,228.5c0.4-0.3,0.7-0.3,1.1,0c0.9,0.9,1.6,2.1,2.2,3.6c0.1,0.5,0,0.8-0.4,0.9
				c-0.5,0.2-0.8,0-1.1-0.5c-0.6-1.2-1.3-2.2-1.9-3.2C739.1,229.1,739.1,228.7,739.3,228.5z"/>
			<path class="st11" d="M774.2,250.8c0.8,0,1.2,0.4,1.2,1.1s-0.4,1.1-1.2,1.1h-24.1c-0.8,0-1.2-0.4-1.2-1.1s0.4-1.1,1.2-1.1H774.2z
				 M772,232.4c0.8,0,1.2,0.4,1.2,1.1s-0.4,1.1-1.2,1.1h-19.2c-0.8,0-1.2-0.4-1.2-1.1s0.4-1.1,1.2-1.1H772z"/>
			<path class="st11" d="M804.7,231.4c0.4,0.3,0.6,1,0.6,2.1c0,2.9-1.1,5.5-3.2,8c-1.7,1.8-4.1,3.2-7,4.1c-0.6,0.2-1.1,0-1.3-0.6
				c-0.1-0.5,0.1-0.8,0.6-1.1c2-0.6,3.9-1.8,5.6-3.4c2-2.2,2.9-4.3,2.9-6.3c0-0.5-0.2-0.9-0.5-1.2c-0.4-0.2-0.9-0.4-1.5-0.4h-20.4
				c-0.6,0-0.9-0.4-0.9-1.1s0.3-1.1,0.9-1.1h21C803.2,230.6,804.2,230.9,804.7,231.4z M790.7,235.5c0.7,0,1.1,0.4,1.1,1.3v3.4
				c0,4.8-1.3,8.4-3.8,10.8c-1.8,1.7-3.8,3-5.9,3.9c-0.5,0.2-0.9,0-1.2-0.5c-0.2-0.5,0-0.8,0.4-1.1c1.9-0.9,3.5-2.1,4.9-3.5
				c2.3-2.3,3.4-5.2,3.4-8.9v-4.1C789.7,236,790,235.5,790.7,235.5z"/>
		</g>
	</g>
	<g>
		<g>
			<g>
				<polygon class="st10" points="551.7,647.4 546,623.3 524.2,647.4 478.4,647.4 478.4,717.3 729,717.3 729,647.4 				"/>
			</g>
		</g>
		<g>
			<g>
				<polygon class="st0" points="550.6,641.9 545,617.9 523.5,641.9 478.4,641.9 478.4,711.8 725.2,711.8 725.2,641.9 				"/>
			</g>
			<g>
				<path class="st10" d="M726.7,713.3H476.9v-72.9h46l23-25.7l6,25.7h174.9V713.3z M479.9,710.3h243.8v-66.9H549.4l-5.2-22.4
					l-20,22.4h-44.3V710.3z"/>
			</g>
		</g>
		<g>
			<path class="st9" d="M468.8,587.7h-5.1l1.8-3.2h6.7v30.3h-3.4V587.7z"/>
			<path class="st9" d="M504.3,587.6h-9.7l-2,6.5c0.6-0.1,1.2-0.2,1.9-0.2c6.1,0,10,4.6,10,10.5c0,6.8-5.1,10.9-11,10.9
				c-2.5,0-4.7-0.7-6.8-2.4c-1-0.8-1.9-1.9-2.6-3.1l2.7-1.9c0.5,1,1.1,1.7,2,2.5c1.3,1,2.8,1.8,4.9,1.8c4.3,0,7.4-3.5,7.4-7.8
				c0-4.4-3.1-7.4-7.4-7.4c-1.1,0-3.1,0.2-5.9,2.1l4.4-14.6h12V587.6z"/>
			<path class="st0" d="M512.3,599.2c-1.2-1.2-1.8-3.1-1.8-5.7c0-2.6,0.5-4.4,1.5-5.4c1.2-1.2,2.6-1.8,4-1.8c1.6,0,3,0.5,4,1.6
				c1.1,1.1,1.7,3,1.7,5.6c0,2.7-0.6,4.6-1.7,5.7c-1.1,1.1-2.4,1.6-4,1.6C514.6,600.8,513.4,600.3,512.3,599.2z M514.4,596.5
				c0.4,0.7,1,1,1.7,1c0.8,0,1.4-0.3,1.8-1c0.4-0.7,0.6-1.7,0.6-3.1c0-1.4-0.2-2.4-0.6-3.1c-0.4-0.7-1-1-1.8-1c-0.9,0-1.5,0.4-2,1.2
				c-0.3,0.7-0.5,1.6-0.5,2.8C513.7,594.8,513.9,595.8,514.4,596.5z M514.9,611.8l16.1-26l2.1,1.5l-16.1,26L514.9,611.8z
				 M537.4,605.4c0,2.7-0.6,4.6-1.7,5.7c-1.1,1.1-2.4,1.6-4,1.6c-1.4,0-2.6-0.5-3.7-1.6c-1.2-1.2-1.8-3.1-1.8-5.7
				c0-2.6,0.5-4.4,1.5-5.4c1.2-1.2,2.6-1.8,4-1.8c1.6,0,3,0.5,4,1.6C536.8,601,537.4,602.8,537.4,605.4z M531.8,601.4
				c-0.9,0-1.5,0.4-2,1.2c-0.3,0.7-0.5,1.6-0.5,2.8c0,1.3,0.2,2.3,0.7,3.1c0.4,0.7,1,1,1.7,1c0.8,0,1.4-0.3,1.8-1
				c0.4-0.7,0.6-1.7,0.6-3.1c0-1.4-0.2-2.4-0.6-3.1C533.2,601.7,532.6,601.4,531.8,601.4z"/>
		</g>
		<g>
			<path class="st11" d="M559.6,675.1c0.7,0,1.1,0.4,1.1,1.1s-0.4,1.1-1.1,1.1h-10v2.6c0,3.4-1,6-2.9,8c-1.8,1.8-4.3,3.1-7.6,3.9
				c-0.6,0.1-1-0.2-1.2-0.7c-0.1-0.5,0.1-0.8,0.6-1.1c2.6-0.6,4.8-1.8,6.6-3.6c1.5-1.5,2.2-3.6,2.2-6.2v-2.8h-12.1
				c-0.6,0-0.9-0.4-0.9-1.1s0.3-1.1,0.9-1.1H559.6z M537.5,666.9h18.5l-0.4-0.6c-0.2-0.4-0.2-0.7,0.2-0.9c0.2-0.2,0.5-0.1,0.8,0.1
				c1,1.3,1.7,2.5,2.1,3.6c0.1,0.5,0,0.8-0.4,0.9c-0.4,0.2-0.7,0-0.9-0.4l-0.5-0.7h-19.6c-0.6,0-0.9-0.4-0.9-1.1
				S536.9,666.9,537.5,666.9z M558.4,665.5c-0.2-0.4-0.2-0.7,0.1-0.9c0.4-0.2,0.7-0.1,0.9,0.2c1.1,1.4,1.8,2.6,2.1,3.5
				c0.2,0.5,0,0.8-0.4,0.9c-0.4,0.2-0.7,0-0.9-0.5C559.7,667.6,559.1,666.5,558.4,665.5z"/>
			<path class="st11" d="M571.8,671.3H583v-4.8c0-0.8,0.4-1.2,1.1-1.2s1.1,0.4,1.1,1.2v4.8h4.7c0.8,0,1.2,0.4,1.2,1.1
				s-0.4,1.1-1.2,1.1h-4.7v5.5c0,3.4-1,6-2.9,8c-2.3,2.3-5.7,3.8-10,4.5c-0.7,0-1.1-0.2-1.2-0.7c0-0.5,0.2-0.9,0.7-1.1
				c3.8-0.6,6.6-2,8.7-4c1.7-1.7,2.6-4,2.6-6.8v-5.4h-11.3v7.3c0,0.7-0.4,1.1-1.1,1.1s-1.1-0.4-1.1-1.1v-7.3h-4.8
				c-0.8,0-1.2-0.4-1.2-1.1s0.4-1.1,1.2-1.1h4.8v-4.1c0-0.8,0.4-1.2,1.1-1.2s1.1,0.4,1.1,1.2V671.3z M586.3,665.3
				c0.3-0.2,0.6-0.1,0.9,0.1c0.6,0.7,1.2,1.8,1.9,3.3c0.2,0.5,0,0.9-0.4,1.1c-0.5,0.2-0.9,0-1.1-0.6c-0.5-1.2-1-2.1-1.5-2.9
				C585.9,666,586,665.6,586.3,665.3z M589,664.3c0.3-0.2,0.6-0.1,0.9,0.1c1.2,1.3,1.9,2.6,2.1,3.8c0,0.5-0.2,0.7-0.5,0.8
				c-0.3,0.1-0.6,0-0.8-0.2c-0.5-1.3-1.2-2.5-1.9-3.5C588.6,664.9,588.7,664.6,589,664.3z"/>
			<path class="st11" d="M617,666.6c0.5,0.5,0.6,1,0.2,1.6c-1.7,2.3-4.4,4.6-8,6.9v15c0,0.8-0.4,1.2-1.1,1.2s-1.1-0.4-1.1-1.2v-13.8
				c-2.7,1.5-6.3,2.8-10.9,3.9c-0.6,0-1-0.2-1.2-0.7c-0.1-0.5,0.1-0.9,0.6-1.2c4.1-0.9,7.7-2.3,10.9-4.1c3-1.7,5.9-4.2,8.7-7.5
				C615.8,666.2,616.4,666.2,617,666.6z"/>
			<path class="st11" d="M639,666.4c0-0.8,0.4-1.2,1.1-1.2s1.1,0.4,1.1,1.2v4.7h8.6c0.6,0,0.9,0.4,0.9,1.1s-0.3,1.1-0.9,1.1h-8.6
				v3.4c0,4.5-1.3,7.9-3.8,10.4c-2.1,2.1-4.9,3.6-8.3,4.5c-0.6,0.1-1.1-0.2-1.3-0.7c-0.1-0.5,0.1-0.9,0.6-1.2c3.2-1,5.7-2.4,7.4-4.1
				c2.2-2.2,3.3-5.3,3.3-9.3v-3H625c-0.6,0-0.9-0.4-0.9-1.1s0.3-1.1,0.9-1.1H639V666.4z"/>
			<path class="st11" d="M678.4,677.3c0.9,0,1.3,0.4,1.3,1.2c0,0.8-0.4,1.2-1.3,1.2h-16.8c-1.5,0-2.8-0.2-3.9-0.6l-1.6-0.6
				c-0.5-0.4-0.7-0.9-0.6-1.4c0.2-0.7,0.7-1,1.3-0.8l1.6,0.6c0.9,0.3,2,0.5,3.3,0.5H678.4z"/>
		</g>
		<g>
		</g>
	</g>
	<g>
		<g>
			<path class="st9" d="M251,522.8l11-12.8c0.8-0.9,2.8-3.3,3.5-4.4c1.4-2,1.7-3.4,1.7-4.6c0-3.4-2.5-5.9-6-5.9c-2.1,0-3.9,1-5,2.7
				c-0.6,0.9-1,2-1,3.6h-3.4c0.1-3,1.1-4.9,2.3-6.3c1.3-1.5,3.4-3.1,7.2-3.1c5.4,0,9.3,3.8,9.3,9c0,2-0.6,3.9-2.4,6.5
				c-1.3,1.8-2.9,3.6-4.1,5l-6.3,7.1h12.8v3.1H251z"/>
			<path class="st9" d="M296.3,495.6h-9.7l-2,6.5c0.6-0.1,1.2-0.2,1.9-0.2c6.1,0,10,4.6,10,10.5c0,6.8-5.1,10.9-11,10.9
				c-2.5,0-4.7-0.7-6.8-2.4c-1-0.8-1.9-1.9-2.6-3.1l2.7-1.9c0.5,1,1.1,1.7,2,2.5c1.3,1,2.8,1.8,4.9,1.8c4.3,0,7.4-3.5,7.4-7.8
				c0-4.4-3.1-7.4-7.4-7.4c-1.1,0-3.1,0.2-5.9,2.1l4.4-14.6h12V495.6z"/>
			<path class="st0" d="M304.3,507.2c-1.2-1.2-1.8-3.1-1.8-5.7c0-2.6,0.5-4.4,1.5-5.4c1.2-1.2,2.6-1.8,4-1.8c1.6,0,3,0.5,4,1.6
				c1.1,1.1,1.7,3,1.7,5.6c0,2.7-0.6,4.6-1.7,5.7c-1.1,1.1-2.4,1.6-4,1.6C306.6,508.8,305.4,508.3,304.3,507.2z M306.4,504.5
				c0.4,0.7,1,1,1.7,1c0.8,0,1.4-0.3,1.8-1c0.4-0.7,0.6-1.7,0.6-3.1c0-1.4-0.2-2.4-0.6-3.1c-0.4-0.7-1-1-1.8-1c-0.9,0-1.5,0.4-2,1.2
				c-0.3,0.7-0.5,1.6-0.5,2.8C305.7,502.8,305.9,503.8,306.4,504.5z M306.9,519.8l16.1-26l2.1,1.5l-16.1,26L306.9,519.8z
				 M329.4,513.4c0,2.7-0.6,4.6-1.7,5.7c-1.1,1.1-2.4,1.6-4,1.6c-1.4,0-2.6-0.5-3.7-1.6c-1.2-1.2-1.8-3.1-1.8-5.7
				c0-2.6,0.5-4.4,1.5-5.4c1.2-1.2,2.6-1.8,4-1.8c1.6,0,3,0.5,4,1.6C328.8,509,329.4,510.8,329.4,513.4z M323.8,509.4
				c-0.9,0-1.5,0.4-2,1.2c-0.3,0.7-0.5,1.6-0.5,2.8c0,1.3,0.2,2.3,0.7,3.1c0.4,0.7,1,1,1.7,1c0.8,0,1.4-0.3,1.8-1
				c0.4-0.7,0.6-1.7,0.6-3.1c0-1.4-0.2-2.4-0.6-3.1C325.2,509.7,324.6,509.4,323.8,509.4z"/>
		</g>
		<g>
			<path class="st10" d="M223,413.5H58c-0.8,0-1.5,0.9-1.5,2v60c0,1.1,0.7,2,1.5,2h123.4L194,494l2.1-16.5H223c0.8,0,1.5-0.9,1.5-2
				v-60C224.5,414.4,223.8,413.5,223,413.5z"/>
		</g>
		<g>
			<path class="st0" d="M219.2,408.5H58.7c-0.8,0-1.5,0.9-1.5,2v60c0,1.1,0.7,2,1.5,2h120L191,489l2.1-16.5h26.1
				c0.8,0,1.5-0.9,1.5-2v-60C220.7,409.4,220,408.5,219.2,408.5z"/>
			<path class="st10" d="M192.1,492.9L177.9,474H58.7c-1.7,0-3-1.6-3-3.5v-60c0-1.9,1.3-3.5,3-3.5h160.5c1.7,0,3,1.6,3,3.5v60
				c0,1.9-1.3,3.5-3,3.5h-24.7L192.1,492.9z M58.8,471h120.6l10.6,14.1l1.8-14.1H219c0.1-0.1,0.1-0.3,0.1-0.5v-60
				c0-0.2-0.1-0.4-0.1-0.5H58.8c-0.1,0.1-0.1,0.3-0.1,0.5v60C58.7,470.7,58.7,470.9,58.8,471z"/>
		</g>
		<g>
			<path class="st11" d="M138.3,435c0.6,0.3,0.9,0.8,0.7,1.4c-0.3,0.7-0.8,0.9-1.5,0.7c-3.5-1.4-7.2-3.8-11-7.3
				c-0.6-0.5-1.2-0.5-1.8,0c-3.1,3.2-7.1,5.6-12,7.3c-0.7,0.2-1.1,0-1.3-0.6c-0.1-0.5,0.2-0.9,0.7-1.2c4.5-1.5,8.4-4,11.7-7.6
				c0.9-1,1.9-1.1,2.9-0.1C130.1,430.6,133.9,433.1,138.3,435z M124.6,434.5c0-0.8,0.4-1.2,1.1-1.2s1.1,0.4,1.1,1.2v6.1h8.7
				c0.6,0,0.9,0.3,0.9,0.8c0,0.5-0.3,0.8-0.9,0.8h-8.7v9h10.9c0.6,0,0.9,0.3,0.9,0.8s-0.3,0.8-0.9,0.8h-25.2c-0.6,0-0.9-0.3-0.9-0.8
				s0.3-0.8,0.9-0.8h3.3v-12.4c0-0.8,0.4-1.2,1.1-1.2s1.1,0.4,1.1,1.2v12.4h6.8V434.5z"/>
			<path class="st11" d="M167.8,428c0.6,0,0.9,0.3,0.9,0.8c0,0.5-0.3,0.8-0.9,0.8H156v3.9h4.9c0.5,0,0.9,0.2,1.3,0.6
				c0.4,0.4,0.6,0.8,0.6,1.3v11.5c0,0.5-0.2,0.9-0.6,1.3c-0.4,0.4-0.8,0.6-1.3,0.6h-11.5c-0.5,0-0.9-0.2-1.3-0.6
				c-0.4-0.4-0.6-0.8-0.6-1.3v-11.5c0-0.5,0.2-0.9,0.6-1.3c0.4-0.4,0.8-0.6,1.3-0.6h4.9v-3.9h-11.8c-0.6,0-0.9-0.3-0.9-0.8
				c0-0.5,0.3-0.8,0.9-0.8H167.8z M165.7,433.4c0-0.6,0.3-0.9,0.8-0.9c0.5,0,0.8,0.3,0.8,0.9v17.2c0,1.6-0.8,2.3-2.3,2.3h-19.7
				c-1.6,0-2.3-0.8-2.3-2.3v-17.1c0-0.6,0.3-0.9,0.8-0.9c0.5,0,0.8,0.3,0.8,0.9v16.3c0,1,0.5,1.5,1.5,1.5h18c1,0,1.5-0.5,1.5-1.5
				V433.4z M149.2,435.8v4.5h5.2v-5h-4.6C149.4,435.2,149.2,435.4,149.2,435.8z M149.2,446.6c0,0.4,0.2,0.6,0.6,0.6h4.6v-5.3h-5.2
				V446.6z M156,440.2h5.2v-4.5c0-0.4-0.2-0.6-0.6-0.6H156V440.2z M156,447.1h4.6c0.4,0,0.6-0.2,0.6-0.6v-4.7H156V447.1z"/>
		</g>
	</g>
	<g>
		<g>
			<path class="st9" d="M259.5,300.8v-30.4h-0.1l-5.6,3.2l-0.9-2.8l7-3.9h3.2v34H259.5z"/>
			<path class="st9" d="M278.5,282.8c1.5-2.3,4.3-4.2,7.9-4.2c5.8,0,9.6,4.3,9.6,10.8c0,6.2-3.8,11.9-10.4,11.9
				c-6.6,0-11.1-5.5-11.1-14.3c0-9.1,4.3-18.7,15.3-20.5c1.3-0.2,2.4-0.3,3.2-0.3l0,3.1c-9.4,0-13.9,6.9-14.7,13.4H278.5z
				 M292.2,289.8c0-5.2-2.8-8.3-6.9-8.3c-4,0-7,3.9-7,6.4c0,6.2,2.7,10.5,7.4,10.5C289.6,298.4,292.2,294.9,292.2,289.8z"/>
			<path class="st0" d="M301.8,283.1c-1.2-1.2-1.8-3.1-1.8-5.7c0-2.6,0.5-4.4,1.5-5.4c1.2-1.2,2.6-1.8,4-1.8c1.6,0,3,0.5,4,1.6
				c1.1,1.1,1.7,3,1.7,5.6c0,2.7-0.6,4.6-1.7,5.7c-1.1,1.1-2.4,1.6-4,1.6C304.1,284.7,302.8,284.2,301.8,283.1z M303.9,280.4
				c0.4,0.7,1,1,1.7,1c0.8,0,1.4-0.3,1.8-1c0.4-0.7,0.6-1.7,0.6-3.1c0-1.4-0.2-2.4-0.6-3.1c-0.4-0.7-1-1-1.8-1c-0.9,0-1.5,0.4-2,1.2
				c-0.3,0.7-0.5,1.6-0.5,2.8C303.1,278.7,303.4,279.7,303.9,280.4z M304.4,295.7l16.1-26l2.1,1.5l-16.1,26L304.4,295.7z
				 M326.8,289.3c0,2.7-0.6,4.6-1.7,5.7c-1.1,1.1-2.4,1.6-4,1.6c-1.4,0-2.6-0.5-3.7-1.6c-1.2-1.2-1.8-3.1-1.8-5.7
				c0-2.6,0.5-4.4,1.5-5.4c1.2-1.2,2.6-1.8,4-1.8c1.6,0,3,0.5,4,1.6C326.3,284.8,326.8,286.7,326.8,289.3z M321.2,285.3
				c-0.9,0-1.5,0.4-2,1.2c-0.3,0.7-0.5,1.6-0.5,2.8c0,1.3,0.2,2.3,0.7,3.1c0.4,0.7,1,1,1.7,1c0.8,0,1.4-0.3,1.8-1
				c0.4-0.7,0.6-1.7,0.6-3.1c0-1.4-0.2-2.4-0.6-3.1C322.6,285.6,322,285.3,321.2,285.3z"/>
		</g>
		<g>
			<path class="st10" d="M274.4,170H101.7c-0.9,0-1.6,0.9-1.6,2v60c0,1.1,0.7,2,1.6,2h129.1l13.3,16.5l2.2-16.5h28
				c0.9,0,1.6-0.9,1.6-2v-60C276,170.9,275.3,170,274.4,170z"/>
		</g>
		<g>
			<path class="st0" d="M271.6,164.5H98.8c-0.9,0-1.6,0.9-1.6,2v60c0,1.1,0.7,2,1.6,2H228l13.3,16.5l2.2-16.5h28
				c0.9,0,1.6-0.9,1.6-2v-60C273.2,165.4,272.4,164.5,271.6,164.5z"/>
			<path class="st10" d="M242.3,248.7L227.3,230H98.8c-1.7,0-3.1-1.6-3.1-3.5v-60c0-1.9,1.4-3.5,3.1-3.5h172.7
				c1.7,0,3.1,1.6,3.1,3.5v60c0,1.9-1.4,3.5-3.1,3.5h-26.7L242.3,248.7z M228,227h0.7l11.6,14.3l1.9-14.3h29.4c0,0,0.1-0.2,0.1-0.5
				v-60c0-0.3-0.1-0.4-0.2-0.5H98.8c0,0-0.1,0.2-0.1,0.5v60c0,0.3,0.1,0.5,0.2,0.5L228,227z"/>
		</g>
		<g>
			<path class="st11" d="M161.1,184.7c1.1-0.2,1.9,0,2.5,0.8c0.4,0.9,0.2,1.9-0.6,2.8c-0.6,0.7-2.3,1.9-5,3.5
				c-2.7,1.5-5.1,2.7-7.3,3.5c4.1-0.5,6.9-0.8,8.6-0.9c2.4-0.2,4.8-0.5,7.3-0.8c0.9-0.1,1.3,0.2,1.3,0.9c0,0.6-0.4,1-1.2,1.1
				c-3.6,0.2-7,1-10.1,2.5c-3.1,1.5-4.7,3.3-4.7,5.4c0,1.3,0.7,2.5,2,3.4c1.5,0.9,3.2,1.4,5.3,1.4c2.3,0,3.7,0,4.3-0.1
				c0.8,0,1.2,0.4,1.2,1.1c0,0.6-0.3,1-0.9,1.1c-0.9,0.1-2.1,0.1-3.8,0.1c-3.7,0-6.4-0.8-8.2-2.5c-1.3-1.3-2-2.8-2-4.3
				c0-1.4,0.7-2.8,2-4.1c1.5-1.3,3.5-2.5,6.1-3.4c-4.1,0.3-8.8,0.9-14.1,1.6l-1.8,0.2c-0.6,0.1-1-0.2-1.2-0.8c0-0.6,0.3-1,0.8-1.1
				c2.3-0.2,4.3-0.6,6-1.2c1.9-0.7,3.7-1.5,5.5-2.5c4.1-2.3,6.7-4.1,7.7-5.3c0.2-0.4,0.2-0.7-0.2-0.8c-4.8,0.6-9.7,1.1-14.5,1.3
				c-0.6,0-0.9-0.3-0.9-0.9c0-0.6,0.3-0.9,0.9-0.9c5.2-0.2,9.1-0.4,11.8-0.7C158.8,185,159.8,184.8,161.1,184.7z"/>
			<path class="st11" d="M194.7,190.2c2,2.2,2.9,4.9,2.9,8.2s-0.9,5.9-2.8,7.9c-2.1,2-5,3.1-8.7,3.3c-0.6,0-0.9-0.3-0.9-0.9
				s0.3-0.9,0.9-0.9c2.9,0,5.3-0.9,7.3-2.8c1.3-1.6,2-3.8,2-6.3c0-3-0.8-5.4-2.5-7.1c-2-1.9-4.4-2.8-7.4-2.7
				c-0.5,3.9-1.2,7.1-1.9,9.7c-0.9,3.4-1.9,5.9-3.2,7.6c-1,1.4-2.3,2.1-3.8,2.1c-1.3,0-2.5-0.6-3.6-1.8c-1.3-1.6-2-3.6-2-5.7
				c0-4,1.5-7.4,4.6-10.2c2.9-2.4,6.2-3.6,10-3.6S192.4,187.9,194.7,190.2z M176.3,192.4c-2.1,2.4-3.2,5.2-3.2,8.3
				c0,1.5,0.4,2.8,1.1,4c0.7,1,1.6,1.5,2.6,1.5c0.9,0,1.6-0.4,2.3-1.3c0.9-1.2,1.6-3,2.3-5.5c1-3.8,1.7-7.3,2.1-10.8
				C180.7,189.1,178.3,190.4,176.3,192.4z"/>
			<path class="st11" d="M206,183.7c0.7,0.1,1,0.5,0.9,1.3c-0.4,2.3-1,4.5-1.9,6.6V210c0,0.6-0.3,0.9-0.8,0.9
				c-0.5,0-0.8-0.3-0.8-0.9v-14.8c-0.2,0.5-0.5,1-0.9,1.5c-0.5,0.6-1,0.8-1.5,0.6c-0.4-0.3-0.4-0.8-0.1-1.4
				c2.1-3.4,3.5-7.1,4.1-11.1C205,184.1,205.3,183.7,206,183.7z M217.2,184.8c0-0.6,0.3-0.9,0.8-0.9c0.5,0,0.8,0.3,0.8,0.9v5.7
				l5.3-1.8c1.2-0.2,1.9,0.4,1.9,1.9V201c0,1.6-0.8,2.5-2.3,2.5c-1.7,0-3.3-0.4-4.8-1.1v1.2c0,0.6-0.3,0.9-0.8,0.9
				c-0.5,0-0.8-0.3-0.8-0.9V193l-5.6,2v11.4c0,1.6,0.8,2.3,2.3,2.3h8c1.5,0,2.5-0.2,3-0.7c0.5-0.5,0.9-1.8,1.2-3.9
				c0.1-0.5,0.4-0.8,0.8-0.7c0.5,0,0.8,0.3,0.8,0.8c-0.2,2.8-0.7,4.5-1.3,5.2c-0.6,0.6-1.9,0.9-3.8,0.9h-9.4c-2.3,0-3.4-1.1-3.4-3.4
				v-11.4l-2.3,0.8c-0.6,0.2-1,0-1.2-0.6c-0.2-0.7,0-1.1,0.6-1.3l2.9-0.9v-6.3c0-0.6,0.3-0.9,0.8-0.9c0.5,0,0.8,0.3,0.8,0.9v5.7
				l5.6-1.9V184.8z M218.8,192.4v8.2c1.2,0.5,2.6,0.8,4.1,0.8c0.9,0,1.4-0.5,1.4-1.5v-8.2c0-0.7-0.3-1-0.8-0.8L218.8,192.4z"/>
		</g>
	</g>
	<g>
		<g>
			<path class="st9" d="M400.3,176.8c-3.7-1.8-5.3-4.8-5.3-7.7c0-5.3,4.1-8.8,9.6-8.8c6.2,0,9.1,4.2,9.1,8.3c0,2.9-1.5,6.1-5.6,8
				v0.2c4.2,1.8,6.8,4.8,6.8,8.9c0,5.8-4.7,9.7-10.7,9.7c-6.5,0-10.5-4.1-10.5-9c0-4.4,2.6-7.6,6.6-9.3V176.8z M411,186.1
				c0-4.3-2.9-6.4-7.4-7.9c-4,1.3-6.1,4.2-6.1,7.6c0,3.9,2.6,6.8,6.7,6.8C408.6,192.6,411,189.6,411,186.1z M398.5,168.8
				c0,3.6,2.5,5.6,6.3,6.8c3-1.1,5.2-3.4,5.2-6.7c0-2.9-1.6-5.8-5.6-5.8C400.5,163.1,398.5,165.8,398.5,168.8z"/>
			<path class="st0" d="M420.8,177.1c-1.2-1.2-1.8-3.1-1.8-5.7c0-2.6,0.5-4.4,1.5-5.4c1.2-1.2,2.6-1.8,4-1.8c1.6,0,3,0.5,4,1.6
				c1.1,1.1,1.7,3,1.7,5.6c0,2.7-0.6,4.6-1.7,5.7c-1.1,1.1-2.4,1.6-4,1.6C423.1,178.7,421.8,178.2,420.8,177.1z M422.9,174.4
				c0.4,0.7,1,1,1.7,1c0.8,0,1.4-0.3,1.8-1c0.4-0.7,0.6-1.7,0.6-3.1c0-1.4-0.2-2.4-0.6-3.1c-0.4-0.7-1-1-1.8-1c-0.9,0-1.5,0.4-2,1.2
				c-0.3,0.7-0.5,1.6-0.5,2.8C422.1,172.7,422.4,173.7,422.9,174.4z M423.3,189.7l16.1-26l2.1,1.5l-16.1,26L423.3,189.7z
				 M445.8,183.3c0,2.7-0.6,4.6-1.7,5.7c-1.1,1.1-2.4,1.6-4,1.6c-1.4,0-2.6-0.5-3.7-1.6c-1.2-1.2-1.8-3.1-1.8-5.7
				c0-2.6,0.5-4.4,1.5-5.4c1.2-1.2,2.6-1.8,4-1.8c1.6,0,3,0.5,4,1.6C445.3,178.8,445.8,180.7,445.8,183.3z M440.2,179.3
				c-0.9,0-1.5,0.4-2,1.2c-0.3,0.7-0.5,1.6-0.5,2.8c0,1.3,0.2,2.3,0.7,3.1c0.4,0.7,1,1,1.7,1c0.8,0,1.4-0.3,1.8-1
				c0.4-0.7,0.6-1.7,0.6-3.1c0-1.4-0.2-2.4-0.6-3.1C441.6,179.6,441,179.3,440.2,179.3z"/>
		</g>
		<g>
			<path class="st10" d="M475,41.5H261.8c-1.1,0-2,0.9-2,2v60c0,1.1,0.9,2,2,2h159.4l16.4,16.5l2.7-16.5H475c1.1,0,2-0.9,2-2v-60
				C477,42.4,476.1,41.5,475,41.5z"/>
		</g>
		<g>
			<path class="st0" d="M470,36.5H256.8c-1.1,0-2,0.9-2,2v60c0,1.1,0.9,2,2,2h159.4l16.4,16.5l2.7-16.5H470c1.1,0,2-0.9,2-2v-60
				C472,37.4,471.1,36.5,470,36.5z"/>
			<path class="st10" d="M433.7,120.1L415.6,102H256.8c-1.9,0-3.5-1.6-3.5-3.5v-60c0-1.9,1.6-3.5,3.5-3.5H470c1.9,0,3.5,1.6,3.5,3.5
				v60c0,1.9-1.6,3.5-3.5,3.5h-33.4L433.7,120.1z M256.8,38c-0.3,0-0.5,0.2-0.5,0.5v60c0,0.3,0.2,0.5,0.5,0.5h160l14.8,14.9
				l2.5-14.9H470c0.3,0,0.5-0.2,0.5-0.5v-60c0-0.3-0.2-0.5-0.5-0.5H256.8z"/>
		</g>
		<g>
			<path class="st11" d="M301.6,66.1c0.7,0,1.1,0.4,1.1,1.1s-0.4,1.1-1.1,1.1h-10v2.6c0,3.4-1,6-2.9,8c-1.8,1.8-4.3,3.1-7.6,3.9
				c-0.6,0.1-1-0.2-1.2-0.7c-0.1-0.5,0.1-0.8,0.6-1.1c2.6-0.6,4.8-1.8,6.6-3.6c1.5-1.5,2.2-3.6,2.2-6.2v-2.8h-12.1
				c-0.6,0-0.9-0.4-0.9-1.1s0.3-1.1,0.9-1.1H301.6z M279.5,57.9h18.5l-0.4-0.6c-0.2-0.4-0.2-0.7,0.2-0.9c0.2-0.2,0.5-0.1,0.8,0.1
				c1,1.3,1.7,2.5,2.1,3.6c0.1,0.5,0,0.8-0.4,0.9c-0.4,0.2-0.7,0-0.9-0.4l-0.5-0.7h-19.6c-0.6,0-0.9-0.4-0.9-1.1
				S278.9,57.9,279.5,57.9z M300.4,56.5c-0.2-0.4-0.2-0.7,0.1-0.9c0.4-0.2,0.7-0.1,0.9,0.2c1.1,1.4,1.8,2.6,2.1,3.5
				c0.2,0.5,0,0.8-0.4,0.9c-0.4,0.2-0.7,0-0.9-0.5C301.7,58.6,301.1,57.5,300.4,56.5z"/>
			<path class="st11" d="M326.4,62.8c0.6,0.5,0.7,1.1,0.1,1.8c-1.6,1.8-3.4,3.4-5.6,4.9v11.8c0,0.7-0.4,1.1-1.1,1.1
				s-1.1-0.4-1.1-1.1V70.5c-1.3,0.7-2.8,1.4-4.6,2c-1.9,0.6-3.2,0.9-3.9,0.9c-0.4,0-0.6-0.2-0.7-0.7c-0.1-0.4,0.1-0.7,0.5-0.8
				c6.5-1.7,11.4-4.7,14.8-8.9C325.4,62.5,325.9,62.4,326.4,62.8z"/>
			<path class="st11" d="M339.2,58.4c0-0.8,0.4-1.2,1.1-1.2s1.1,0.4,1.1,1.2v18c0,1.6,0.9,2.3,2.7,2.3c3.7,0,7.4-1.9,11.3-5.7
				c1.9-1.9,3.4-4.2,4.6-6.9c0.2-0.5,0.6-0.6,1.2-0.5c0.6,0.2,0.8,0.7,0.6,1.3c-1.3,3.2-3,5.9-5.2,8c-4.1,4.1-8.4,6.1-13,6.1
				c-2.8,0-4.2-1.3-4.2-4V58.4z"/>
			<path class="st11" d="M375.4,56.6c0.7,0.1,1.1,0.5,1.1,1.2l-0.2,1.2h11.6c2.3,0,3.4,1.1,3.3,3.2c-0.2,2.3-1,5-2.5,7.9
				c-1.3,2.5-2.7,4.5-4.2,6.1c-3.5,3.5-8.2,5.6-14.2,6.3c-0.6,0-1-0.3-1.1-0.9c0-0.5,0.3-0.9,0.8-0.9c5.5-0.9,9.8-2.8,12.8-5.7
				c2.9-2.9,4.8-6.6,5.9-11.3c0.1-0.5,0.1-1,0.1-1.3c0-0.8-0.5-1.2-1.4-1.2h-11.7c-1.3,4.1-3.7,7.1-7.1,9.1
				c-0.6,0.3-1.1,0.2-1.4-0.2c-0.2-0.4-0.2-0.8,0.2-1.2c3.8-2.6,6-6.3,6.7-11.1C374.2,56.8,374.6,56.5,375.4,56.6z"/>
			<path class="st11" d="M405.6,56.7c0.6,0.2,0.9,0.5,0.8,1.2l-0.2,0.9h12.1c0.9,0,1.6,0.2,2.1,0.7c0.5,0.4,0.7,1,0.7,1.8
				c0,2-0.7,4.8-2.1,8.3c-1.2,2.7-2.7,5-4.5,6.7c-3.6,3.5-8.3,5.5-14.2,5.9c-0.7,0.1-1.1-0.2-1.2-0.8c0-0.5,0.3-0.9,0.8-0.9
				c2.9-0.2,5.5-0.9,7.7-1.9c2.5-1.1,4.5-2.6,6.1-4.5c-3.4-2.6-7-4.9-11-6.9c-1.6,1.8-3.2,3.2-5,4.3c-0.5,0.3-1,0.3-1.4-0.1
				c-0.2-0.4-0.2-0.8,0.1-1.2c2.2-1.6,3.8-3.2,4.9-4.8c1.4-2.1,2.3-4.8,2.8-8C404.5,56.8,404.9,56.5,405.6,56.7z M405.8,60.9
				c-0.5,1.7-1.1,3.2-2,4.6c4.1,2,8,4.1,11.5,6.6c0.8-1.2,1.6-2.8,2.3-4.9c0.7-1.8,1.1-3.5,1.2-5.2c-0.1-0.7-0.5-1.1-1.4-1.1H405.8z
				"/>
			<path class="st11" d="M450.4,68.3c0.9,0,1.3,0.4,1.3,1.2c0,0.8-0.4,1.2-1.3,1.2h-16.8c-1.5,0-2.8-0.2-3.9-0.6l-1.6-0.6
				c-0.5-0.4-0.7-0.9-0.6-1.4c0.2-0.7,0.7-1,1.3-0.8l1.6,0.6c0.9,0.3,2,0.5,3.3,0.5H450.4z"/>
		</g>
	</g>
</g>
<g id="ガイド">
</g>
</svg>
