<?xml version="1.0" encoding="utf-8"?>
<!-- Generator: Adobe Illustrator 22.0.1, SVG Export Plug-In . SVG Version: 6.00 Build 0)  -->
<svg version="1.1" xmlns="http://www.w3.org/2000/svg" xmlns:xlink="http://www.w3.org/1999/xlink" x="0px" y="0px"
	 viewBox="0 0 900 750" style="enable-background:new 0 0 900 750;" xml:space="preserve">
<style type="text/css">
	.st0{fill:#FCFCFC;}
	.st1{display:none;fill:none;stroke:#E8E270;stroke-width:5;stroke-miterlimit:10;}
	.st2{fill:#F77F4B;}
	.st3{fill:#F75F4B;}
	.st4{fill:#EF9D60;}
	.st5{fill:#B7B7B7;}
	.st6{fill:#4C4C4C;stroke:#4C4C4C;stroke-miterlimit:10;}
	.st7{fill:#FCFCFC;stroke:#FEFEFF;stroke-miterlimit:10;}
	.st8{opacity:0.38;}
	.st9{fill:#636363;}
	.st10{fill:#FCFCFC;stroke:#B7B7B7;stroke-width:3;stroke-miterlimit:10;}
</style>
<g id="レイヤー_3">
	<g>
		<rect y="1" class="st0" width="900" height="750"/>
	</g>
</g>
<g id="レイヤー_1">
	<line class="st1" x1="451.5" y1="375.5" x2="451.5" y2="41.5"/>
	<line class="st1" x1="192.5" y1="165.5" x2="451.5" y2="375.5"/>
</g>
<g id="装飾">
	<g id="レイヤー_5">
		<text transform="matrix(1 0 0 1 606.083 -71.8872)" style="font-family:'HGSGothicE'; font-size:31.2878px;">山路を登りながら</text>
	</g>
</g>
<g id="レイヤー_6">
	<path class="st2" d="M255.7,150.6c-16.8,14.1-31.9,30.1-45.2,47.5l0,0c-0.1,0.1-0.2,0.2-0.3,0.4c-23.8,31.4-41.4,67.8-50.9,107.3
		c-0.2,0.9-0.4,1.8-0.6,2.8c-0.2,1-0.5,2-0.7,3c-5.6,25.2-7.9,51.4-6.6,78L444,375V82C372.3,82,306.6,107.8,255.7,150.6z"/>
	<g>
		<path class="st3" d="M151,378.4c0.2,16.8,1.9,33.8,5.1,50.8c9.9,52.5,33.2,99,65.7,136.7L444,375L151,378.4z"/>
	</g>
	<g>
		<path class="st3" d="M190.2,521.5c34.2,59.1,88.5,105.2,153.5,128.9L444,375L190.2,521.5z"/>
	</g>
	<g>
		<path class="st3" d="M282.1,619.2c57,37.7,126.1,54.7,194.9,47L444,375L282.1,619.2z"/>
	</g>
	<path class="st4" d="M737,375c0-17.4-1.5-34.4-4.4-50.9C720.5,254.8,684,194,632.3,150.6C581.4,107.8,515.7,82,444,82v293l26,291.9
		c24.9-2.2,49.9-7.7,74.3-16.6l0,0.1c20.4-7.4,39.8-17.1,57.8-28.6c18.2-11.6,34.7-25,49.5-39.8l-0.1-0.1
		c17.9-18,33.5-38.3,46.3-60.4C722.7,478.4,737,428.4,737,375z"/>
	<g>
		<path class="st5" d="M294.5,595.3l-17.9,0L277,567l-20.3,28.4l-165.3,0.2c-1.1,0-2,0.9-2,2l0.1,58c0,1.1,0.9,2,2,2l203-0.3
			c1.1,0,2-0.9,2-2l-0.1-58C296.5,596.2,295.6,595.3,294.5,595.3z"/>
	</g>
	<g>
		<path class="st0" d="M288.5,589.4l-17.9,0l2.9-22l-22.7,22l-165.3,0.2c-1.1,0-2,0.9-2,2l0.1,58c0,1.1,0.9,2,2,2l203-0.3
			c1.1,0,2-0.9,2-2l-0.1-58C290.5,590.3,289.6,589.4,288.5,589.4z"/>
		<path class="st5" d="M85.6,653.2c-0.9,0-1.8-0.4-2.5-1c-0.7-0.7-1-1.5-1-2.5l-0.1-58c0-1.9,1.6-3.5,3.5-3.5l164.7-0.2l25.4-24.6
			l-3.2,24.6l16.2,0c0,0,0,0,0,0c0.9,0,1.8,0.4,2.5,1c0.7,0.7,1,1.5,1,2.5l0.1,58c0,1.9-1.6,3.5-3.5,3.5L85.6,653.2
			C85.6,653.2,85.6,653.2,85.6,653.2z M271.4,571.5l-20,19.5l-165.9,0.2c-0.3,0-0.5,0.2-0.5,0.5l0.1,58c0,0.2,0.1,0.3,0.1,0.4
			c0.1,0.1,0.2,0.1,0.4,0.1c0,0,0,0,0,0l203-0.3c0.3,0,0.5-0.2,0.5-0.5l-0.1-58c0-0.2-0.1-0.3-0.1-0.4c-0.1-0.1-0.2-0.1-0.4-0.1
			c0,0,0,0,0,0l-19.6,0L271.4,571.5z"/>
	</g>
	<g>
		<path class="st6" d="M148.7,618.7c-2.1,3.8-5.3,5.9-8.8,5.9c-3.1,0-5.2-1.3-7.6-3.6c-1.9-1.8-3.4-2.9-5.9-2.9
			c-2.8,0-5.2,1.9-6.6,4.6l-2.2-1.2c2.1-3.8,5.3-5.9,8.8-5.9c3.1,0,5.2,1.3,7.6,3.6c1.9,1.8,3.4,2.9,5.9,2.9c2.8,0,5.2-1.9,6.6-4.6
			L148.7,618.7z"/>
		<path class="st6" d="M162.9,611.1l-3.8,0l1.3-2.4l5,0l0,22.7l-2.5,0L162.9,611.1z"/>
		<path class="st6" d="M187,625.1c0,3.5-2.3,6.7-6.9,6.7s-6.9-3.1-6.9-6.7c0-2.4,1.1-4.5,3.4-5.5c-1.8-1.1-2.8-2.9-2.8-5
			c0-3.2,2.2-6.3,6.2-6.3s6.3,3.1,6.3,6.3c0,2.1-0.9,3.9-2.7,5C185.9,620.6,187,622.7,187,625.1z M184.5,625.1
			c0-2.5-1.8-4.3-4.4-4.3c-2.6,0-4.4,1.8-4.4,4.3c0,2.6,1.8,4.4,4.4,4.4S184.5,627.6,184.5,625.1z M183.9,614.7c0-2.5-1.8-4-3.9-4
			s-3.9,1.5-3.9,4c0,2.2,1.7,3.9,3.9,3.9C182.3,618.6,183.9,616.9,183.9,614.7z"/>
		<path class="st6" d="M198.4,616.9c0.9,0,1.7,0.8,1.7,1.7s-0.8,1.7-1.7,1.7c-0.9,0-1.7-0.8-1.7-1.7S197.4,616.9,198.4,616.9z
			 M198.4,628.4c0.9,0,1.7,0.8,1.7,1.7c0,0.9-0.8,1.7-1.7,1.7c-0.9,0-1.7-0.8-1.7-1.7C196.7,629.2,197.5,628.4,198.4,628.4z"/>
		<path class="st6" d="M209.9,628.4c-1.5-2.2-2.3-5.1-2.3-8.3c0-3.2,0.8-6.2,2.3-8.3c1.7-2.5,4-3.4,5.8-3.4s4.1,0.9,5.8,3.4
			c1.5,2.2,2.3,5.1,2.3,8.3c0,3.2-0.8,6.2-2.3,8.3c-1.7,2.5-4,3.4-5.8,3.4S211.7,630.9,209.9,628.4z M211.8,613.1
			c-1.2,1.9-1.7,4.5-1.7,6.9c0,2.4,0.4,5,1.7,6.9c1.2,1.9,2.8,2.5,3.9,2.5c1.2,0,2.7-0.6,3.9-2.5c1.2-1.9,1.7-4.5,1.7-6.9
			c0-2.4-0.4-5-1.7-6.9c-1.2-1.9-2.8-2.5-3.9-2.5C214.6,610.6,213,611.2,211.8,613.1z"/>
		<path class="st6" d="M242.3,610.9l-7.3,0l-1.5,4.9c0.4-0.1,0.9-0.1,1.4-0.1c4.6,0,7.5,3.4,7.5,7.8c0,5.1-3.8,8.2-8.2,8.2
			c-1.8,0-3.5-0.5-5.1-1.8c-0.7-0.6-1.4-1.4-2-2.3l2-1.4c0.4,0.7,0.9,1.3,1.5,1.8c1,0.8,2.1,1.4,3.7,1.4c3.2,0,5.6-2.6,5.6-5.8
			c0-3.3-2.4-5.6-5.6-5.6c-0.8,0-2.3,0.1-4.4,1.6l3.3-11l9,0L242.3,610.9z"/>
	</g>
	<g>
		<path class="st5" d="M327.5,90.5h-205c-1.1,0-2,0.9-2,2v60c0,1.1,0.9,2,2,2H271l22.5,17l-4.3-17h38.3c1.1,0,2-0.9,2-2v-60
			C329.5,91.4,328.6,90.5,327.5,90.5z"/>
	</g>
	<g>
		<path class="st0" d="M323.5,84.5h-205c-1.1,0-2,0.9-2,2v60c0,1.1,0.9,2,2,2H267l22.5,17l-4.3-17h38.3c1.1,0,2-0.9,2-2v-60
			C325.5,85.4,324.6,84.5,323.5,84.5z"/>
		<path class="st5" d="M292,169.3L266.5,150h-148c-1.9,0-3.5-1.6-3.5-3.5v-60c0-1.9,1.6-3.5,3.5-3.5h205c1.9,0,3.5,1.6,3.5,3.5v60
			c0,1.9-1.6,3.5-3.5,3.5h-36.3L292,169.3z M118.5,86c-0.3,0-0.5,0.2-0.5,0.5v60c0,0.3,0.2,0.5,0.5,0.5h149l19.5,14.7l-3.7-14.7
			h40.2c0.3,0,0.5-0.2,0.5-0.5v-60c0-0.3-0.2-0.5-0.5-0.5H118.5z"/>
	</g>
	<g>
		<path class="st6" d="M183.7,113.7c-2.1,3.8-5.3,5.9-8.8,5.9c-3.1,0-5.2-1.3-7.6-3.6c-1.9-1.8-3.4-2.9-5.9-2.9
			c-2.8,0-5.2,1.9-6.6,4.6l-2.2-1.2c2.1-3.8,5.3-5.9,8.8-5.9c3.1,0,5.2,1.3,7.6,3.6c1.9,1.8,3.4,2.9,5.9,2.9c2.8,0,5.2-1.9,6.6-4.6
			L183.7,113.7z"/>
		<path class="st6" d="M197.9,106.2h-3.8l1.3-2.4h5v22.7h-2.5V106.2z"/>
		<path class="st6" d="M211.5,125.6l5.2-7.2c-0.6,0.2-1.3,0.3-2,0.3c-4.4,0-7.3-3.3-7.3-7.5c0-4.5,3.3-7.8,7.8-7.8
			c5.3,0,7.9,4.1,7.9,7.7c0,0.9-0.2,2.9-1.9,5.2l-7.7,10.7L211.5,125.6z M209.8,111.1c0,3,2.2,5.2,5.3,5.2c3.1,0,5.3-2.3,5.3-5.2
			c0-3-2.1-5.4-5.3-5.4C212,105.7,209.8,108.1,209.8,111.1z"/>
		<path class="st6" d="M232.8,112c0.9,0,1.7,0.8,1.7,1.7c0,0.9-0.8,1.7-1.7,1.7s-1.7-0.8-1.7-1.7C231.1,112.8,231.8,112,232.8,112z
			 M232.8,123.5c0.9,0,1.7,0.8,1.7,1.7s-0.8,1.7-1.7,1.7s-1.7-0.8-1.7-1.7S231.8,123.5,232.8,123.5z"/>
		<path class="st6" d="M244.3,123.5c-1.5-2.2-2.3-5.1-2.3-8.3c0-3.2,0.8-6.2,2.3-8.3c1.7-2.5,4-3.4,5.8-3.4s4.1,0.9,5.8,3.4
			c1.5,2.2,2.3,5.1,2.3,8.3c0,3.2-0.8,6.2-2.3,8.3c-1.7,2.5-4,3.4-5.8,3.4S246,126,244.3,123.5z M246.2,108.2
			c-1.2,1.9-1.7,4.5-1.7,6.9s0.4,5,1.7,6.9c1.2,1.9,2.8,2.5,3.9,2.5c1.2,0,2.7-0.6,3.9-2.5c1.2-1.9,1.7-4.5,1.7-6.9s-0.4-5-1.7-6.9
			c-1.2-1.9-2.8-2.5-3.9-2.5C249,105.7,247.4,106.3,246.2,108.2z"/>
		<path class="st6" d="M264.3,123.5c-1.5-2.2-2.3-5.1-2.3-8.3c0-3.2,0.8-6.2,2.3-8.3c1.7-2.5,4-3.4,5.8-3.4s4.1,0.9,5.8,3.4
			c1.5,2.2,2.3,5.1,2.3,8.3c0,3.2-0.8,6.2-2.3,8.3c-1.7,2.5-4,3.4-5.8,3.4S266,126,264.3,123.5z M266.2,108.2
			c-1.2,1.9-1.7,4.5-1.7,6.9s0.4,5,1.7,6.9c1.2,1.9,2.8,2.5,3.9,2.5c1.2,0,2.7-0.6,3.9-2.5c1.2-1.9,1.7-4.5,1.7-6.9s-0.4-5-1.7-6.9
			c-1.2-1.9-2.8-2.5-3.9-2.5C269,105.7,267.4,106.3,266.2,108.2z"/>
	</g>
	<g>
		<path class="st5" d="M805.6,120.3l-212.3,0.1c-1.3,0-2.4,0.8-2.4,1.8l0,62.6c0,1,1.1,1.8,2.4,1.8l22.2,0l-8,17.9l41.5-17.9
			l156.6,0c1.3,0,2.4-0.8,2.4-1.8l0-62.6C808,121.1,806.9,120.3,805.6,120.3z"/>
	</g>
	<g>
		<path class="st0" d="M799.3,115.3H593c-1.3,0-2.3,0.8-2.3,1.8v62.6c0,1,1,1.8,2.3,1.8h21.6l-7.8,17.9l40.4-17.9h152.2
			c1.3,0,2.3-0.8,2.3-1.8v-62.6C801.6,116.1,800.6,115.3,799.3,115.3z"/>
		<path class="st5" d="M603.8,202.3l8.5-19.3H593c-2.1,0-3.8-1.5-3.8-3.3v-62.6c0-1.8,1.7-3.3,3.8-3.3h206.3c2.1,0,3.8,1.5,3.8,3.3
			v62.6c0,1.8-1.7,3.3-3.8,3.3H647.4L603.8,202.3z M593,116.8c-0.5,0-0.8,0.2-0.8,0.3l0,62.6c0,0.1,0.3,0.3,0.8,0.3h23.9l-7.2,16.5
			l37.1-16.5h152.5c0.5,0,0.8-0.2,0.8-0.3l0-62.6c0-0.1-0.3-0.3-0.8-0.3H593z"/>
	</g>
	<g>
		<path class="st6" d="M661.7,146.7c-2.1,3.8-5.3,5.9-8.8,5.9c-3.1,0-5.2-1.3-7.6-3.6c-1.9-1.8-3.4-2.9-5.9-2.9
			c-2.8,0-5.2,1.9-6.6,4.6l-2.2-1.2c2.1-3.8,5.3-5.9,8.8-5.9c3.1,0,5.2,1.3,7.6,3.6c1.9,1.8,3.4,2.9,5.9,2.9c2.8,0,5.2-1.9,6.6-4.6
			L661.7,146.7z"/>
		<path class="st6" d="M675.9,139.2h-3.8l1.3-2.4h5v22.7h-2.5V139.2z"/>
		<path class="st6" d="M700.1,153.2c0,3.5-2.3,6.7-6.9,6.7c-4.6,0-6.9-3.1-6.9-6.7c0-2.4,1.1-4.5,3.4-5.5c-1.8-1.1-2.8-2.9-2.8-5
			c0-3.2,2.2-6.3,6.3-6.3c4.1,0,6.3,3.1,6.3,6.3c0,2.1-1,3.9-2.8,5C699,148.7,700.1,150.7,700.1,153.2z M697.6,153.1
			c0-2.5-1.8-4.3-4.4-4.3s-4.4,1.8-4.4,4.3c0,2.6,1.8,4.4,4.4,4.4C695.8,157.5,697.6,155.7,697.6,153.1z M697,142.7
			c0-2.5-1.8-4-3.9-4c-2.1,0-3.9,1.5-3.9,4c0,2.2,1.7,3.9,3.9,3.9S697,145,697,142.7z"/>
		<path class="st6" d="M711.9,145c0.9,0,1.7,0.8,1.7,1.7c0,0.9-0.8,1.7-1.7,1.7s-1.7-0.8-1.7-1.7C710.2,145.8,711,145,711.9,145z
			 M711.9,156.5c0.9,0,1.7,0.8,1.7,1.7s-0.8,1.7-1.7,1.7s-1.7-0.8-1.7-1.7S711,156.5,711.9,156.5z"/>
		<path class="st6" d="M723.9,139.2h-3.8l1.3-2.4h5v22.7h-2.5V139.2z"/>
		<path class="st6" d="M747.7,139.1h-7.3L739,144c0.4-0.1,0.9-0.1,1.4-0.1c4.6,0,7.5,3.4,7.5,7.9c0,5.1-3.8,8.2-8.3,8.2
			c-1.8,0-3.5-0.5-5.1-1.8c-0.7-0.6-1.4-1.4-2-2.3l2-1.4c0.4,0.7,0.8,1.3,1.5,1.8c1,0.8,2.1,1.4,3.7,1.4c3.2,0,5.6-2.6,5.6-5.8
			c0-3.3-2.3-5.6-5.6-5.6c-0.8,0-2.3,0.1-4.4,1.6l3.3-10.9h9V139.1z"/>
	</g>
	<g>
		<path class="st7" d="M618.5,387.6h-9.7l-2,6.5c0.6-0.1,1.2-0.2,1.9-0.2c6.1,0,10,4.6,10,10.5c0,6.8-5.1,10.9-11,10.9
			c-2.5,0-4.7-0.7-6.8-2.4c-1-0.8-1.9-1.9-2.6-3.1l2.7-1.9c0.5,1,1.1,1.7,2,2.5c1.3,1,2.8,1.8,4.9,1.8c4.3,0,7.4-3.5,7.4-7.8
			c0-4.4-3.1-7.4-7.4-7.4c-1.1,0-3.1,0.2-5.9,2.1l4.4-14.6h12V387.6z"/>
		<path class="st7" d="M627.6,410.8c-2-2.9-3-6.8-3-11.1s1-8.2,3-11.1c2.3-3.4,5.4-4.5,7.8-4.5s5.4,1.2,7.8,4.5c2,2.9,3,6.8,3,11.1
			s-1,8.2-3,11.1c-2.3,3.4-5.4,4.5-7.8,4.5S630,414.2,627.6,410.8z M630.2,390.5c-1.6,2.6-2.2,6-2.2,9.2c0,3.2,0.6,6.6,2.2,9.2
			c1.6,2.5,3.7,3.4,5.2,3.4s3.6-0.8,5.2-3.4c1.6-2.6,2.2-6,2.2-9.2c0-3.2-0.6-6.6-2.2-9.2c-1.6-2.5-3.7-3.4-5.2-3.4
			S631.8,388,630.2,390.5z"/>
		<path class="st0" d="M652.3,399.2c-1.2-1.2-1.8-3.1-1.8-5.7c0-2.6,0.5-4.4,1.5-5.4c1.2-1.2,2.6-1.8,4-1.8c1.6,0,3,0.5,4,1.6
			c1.1,1.1,1.7,3,1.7,5.6c0,2.7-0.6,4.6-1.7,5.7c-1.1,1.1-2.4,1.6-4,1.6C654.6,400.8,653.4,400.3,652.3,399.2z M654.4,396.5
			c0.4,0.7,1,1,1.7,1c0.8,0,1.4-0.3,1.8-1c0.4-0.7,0.6-1.7,0.6-3.1c0-1.4-0.2-2.4-0.6-3.1c-0.4-0.7-1-1-1.8-1c-0.9,0-1.5,0.4-2,1.2
			c-0.3,0.7-0.5,1.6-0.5,2.8C653.7,394.8,653.9,395.8,654.4,396.5z M654.9,411.8l16.1-26l2.1,1.5l-16.1,26L654.9,411.8z
			 M677.4,405.4c0,2.7-0.6,4.6-1.7,5.7c-1.1,1.1-2.4,1.6-4,1.6c-1.4,0-2.6-0.5-3.7-1.6c-1.2-1.2-1.8-3.1-1.8-5.7
			c0-2.6,0.5-4.4,1.5-5.4c1.2-1.2,2.6-1.8,4-1.8c1.6,0,3,0.5,4,1.6C676.8,401,677.4,402.8,677.4,405.4z M671.8,401.4
			c-0.9,0-1.5,0.4-2,1.2c-0.3,0.7-0.5,1.6-0.5,2.8c0,1.3,0.2,2.3,0.7,3.1c0.4,0.7,1,1,1.7,1c0.8,0,1.4-0.3,1.8-1
			c0.4-0.7,0.6-1.7,0.6-3.1c0-1.4-0.2-2.4-0.6-3.1C673.2,401.7,672.6,401.4,671.8,401.4z"/>
	</g>
	<g>
		<path class="st7" d="M237,486.8l11-12.8c0.8-0.9,2.8-3.3,3.5-4.4c1.4-2,1.7-3.4,1.7-4.6c0-3.4-2.5-5.9-6-5.9c-2.1,0-3.9,1-5,2.7
			c-0.6,0.9-1,2-1,3.6h-3.4c0.1-3,1.1-4.9,2.3-6.3c1.3-1.5,3.4-3.1,7.2-3.1c5.4,0,9.3,3.8,9.3,9c0,2-0.6,3.9-2.4,6.5
			c-1.3,1.8-2.9,3.6-4.1,5l-6.3,7.1h12.8v3.1H237z"/>
		<path class="st7" d="M282.3,459.6h-9.7l-2,6.5c0.6-0.1,1.2-0.2,1.9-0.2c6.1,0,10,4.6,10,10.5c0,6.8-5.1,10.9-11,10.9
			c-2.5,0-4.7-0.7-6.8-2.4c-1-0.8-1.9-1.9-2.6-3.1l2.7-1.9c0.5,1,1.1,1.7,2,2.5c1.3,1,2.8,1.8,4.9,1.8c4.3,0,7.4-3.5,7.4-7.8
			c0-4.4-3.1-7.4-7.4-7.4c-1.1,0-3.1,0.2-5.9,2.1l4.4-14.6h12V459.6z"/>
		<path class="st0" d="M290.3,471.2c-1.2-1.2-1.8-3.1-1.8-5.7c0-2.6,0.5-4.4,1.5-5.4c1.2-1.2,2.6-1.8,4-1.8c1.6,0,3,0.5,4,1.6
			c1.1,1.1,1.7,3,1.7,5.6c0,2.7-0.6,4.6-1.7,5.7c-1.1,1.1-2.4,1.6-4,1.6C292.6,472.8,291.4,472.3,290.3,471.2z M292.4,468.5
			c0.4,0.7,1,1,1.7,1c0.8,0,1.4-0.3,1.8-1c0.4-0.7,0.6-1.7,0.6-3.1c0-1.4-0.2-2.4-0.6-3.1c-0.4-0.7-1-1-1.8-1c-0.9,0-1.5,0.4-2,1.2
			c-0.3,0.7-0.5,1.6-0.5,2.8C291.7,466.8,291.9,467.8,292.4,468.5z M292.9,483.8l16.1-26l2.1,1.5l-16.1,26L292.9,483.8z
			 M315.4,477.4c0,2.7-0.6,4.6-1.7,5.7c-1.1,1.1-2.4,1.6-4,1.6c-1.4,0-2.6-0.5-3.7-1.6c-1.2-1.2-1.8-3.1-1.8-5.7
			c0-2.6,0.5-4.4,1.5-5.4c1.2-1.2,2.6-1.8,4-1.8c1.6,0,3,0.5,4,1.6C314.8,473,315.4,474.8,315.4,477.4z M309.8,473.4
			c-0.9,0-1.5,0.4-2,1.2c-0.3,0.7-0.5,1.6-0.5,2.8c0,1.3,0.2,2.3,0.7,3.1c0.4,0.7,1,1,1.7,1c0.8,0,1.4-0.3,1.8-1
			c0.4-0.7,0.6-1.7,0.6-3.1c0-1.4-0.2-2.4-0.6-3.1C311.2,473.7,310.6,473.4,309.8,473.4z"/>
	</g>
	<g>
		<path class="st7" d="M287,239.8l11-12.8c0.8-0.9,2.8-3.3,3.5-4.4c1.4-2,1.7-3.4,1.7-4.6c0-3.4-2.5-5.9-6-5.9c-2.1,0-3.9,1-5,2.7
			c-0.6,0.9-1,2-1,3.6h-3.4c0.1-3,1.1-4.9,2.3-6.3c1.3-1.5,3.4-3.1,7.2-3.1c5.4,0,9.3,3.8,9.3,9c0,2-0.6,3.9-2.4,6.5
			c-1.3,1.8-2.9,3.6-4.1,5l-6.3,7.1h12.8v3.1H287z"/>
		<path class="st7" d="M332.3,212.6h-9.7l-2,6.5c0.6-0.1,1.2-0.2,1.9-0.2c6.1,0,10,4.6,10,10.5c0,6.8-5.1,10.9-11,10.9
			c-2.5,0-4.7-0.7-6.8-2.4c-1-0.8-1.9-1.9-2.6-3.1l2.7-1.9c0.5,1,1.1,1.7,2,2.5c1.3,1,2.8,1.8,4.9,1.8c4.3,0,7.4-3.5,7.4-7.8
			c0-4.4-3.1-7.4-7.4-7.4c-1.1,0-3.1,0.2-5.9,2.1l4.4-14.6h12V212.6z"/>
		<path class="st0" d="M340.3,224.2c-1.2-1.2-1.8-3.1-1.8-5.7c0-2.6,0.5-4.4,1.5-5.4c1.2-1.2,2.6-1.8,4-1.8c1.6,0,3,0.5,4,1.6
			c1.1,1.1,1.7,3,1.7,5.6c0,2.7-0.6,4.6-1.7,5.7c-1.1,1.1-2.4,1.6-4,1.6C342.6,225.8,341.4,225.3,340.3,224.2z M342.4,221.5
			c0.4,0.7,1,1,1.7,1c0.8,0,1.4-0.3,1.8-1c0.4-0.7,0.6-1.7,0.6-3.1c0-1.4-0.2-2.4-0.6-3.1c-0.4-0.7-1-1-1.8-1c-0.9,0-1.5,0.4-2,1.2
			c-0.3,0.7-0.5,1.6-0.5,2.8C341.7,219.8,341.9,220.8,342.4,221.5z M342.9,236.8l16.1-26l2.1,1.5l-16.1,26L342.9,236.8z
			 M365.4,230.4c0,2.7-0.6,4.6-1.7,5.7c-1.1,1.1-2.4,1.6-4,1.6c-1.4,0-2.6-0.5-3.7-1.6c-1.2-1.2-1.8-3.1-1.8-5.7
			c0-2.6,0.5-4.4,1.5-5.4c1.2-1.2,2.6-1.8,4-1.8c1.6,0,3,0.5,4,1.6C364.8,226,365.4,227.8,365.4,230.4z M359.8,226.4
			c-0.9,0-1.5,0.4-2,1.2c-0.3,0.7-0.5,1.6-0.5,2.8c0,1.3,0.2,2.3,0.7,3.1c0.4,0.7,1,1,1.7,1c0.8,0,1.4-0.3,1.8-1
			c0.4-0.7,0.6-1.7,0.6-3.1c0-1.4-0.2-2.4-0.6-3.1C361.2,226.7,360.6,226.4,359.8,226.4z"/>
	</g>
	<g>
		<path class="st4" d="M470.2,666.4c0,0-46.1-80-18.3-184.8l48.7,88.4L470.2,666.4z"/>
	</g>
	<g>
		<path class="st3" d="M151.6,378.9c0,0,83.6-39.1,185.6-2.4L245,417.4L151.6,378.9z"/>
	</g>
	<g>
		<path class="st2" d="M445.3,81.7c0,0,38,84.1-0.1,185.7l-39.7-92.8L445.3,81.7z"/>
	</g>
	<g>
		<g class="st8">
			<g>
				<circle class="st0" cx="444.3" cy="375.4" r="124.3"/>
			</g>
		</g>
		<g>
			<circle class="st0" cx="444.3" cy="375.4" r="111.3"/>
		</g>
		<g>
			<path class="st9" d="M364.2,376.1c0.7,0,1.3,0.3,1.9,0.9c0.6,0.6,0.9,1.2,0.9,1.9v11.4c2.8,3.3,6.5,4.9,11,4.9h19.7
				c0.9,0,1.4,0.4,1.4,1.2c0,0.8-0.5,1.2-1.4,1.2H377c-4.8,0-8.6-1.8-11.4-5.4c-1.3,2-2.4,3.4-3.5,4.4c-1.2,1-2.2,1.1-3.1,0.2
				c-0.3-0.9-0.1-1.7,0.7-2.3c2-1.5,3.6-3.3,4.9-5.2v-9.8c0-0.6-0.3-0.9-0.9-0.9h-3.5c-0.9,0-1.4-0.4-1.4-1.2c0-0.8,0.5-1.2,1.4-1.2
				H364.2z M361.4,359.7c0.3-0.6,1-0.6,1.9-0.2c2.4,1.4,4.4,3.1,5.9,5.2c0.5,1,0.3,1.8-0.3,2.3c-0.8,0.3-1.5,0.2-2.1-0.5
				c-1.5-1.9-3.2-3.5-5.1-4.9C361.1,361,361,360.4,361.4,359.7z M393.4,359c0.7,0,1.3,0.3,1.9,0.9c0.6,0.6,0.9,1.2,0.9,1.9v12.4
				c0,0.7-0.3,1.3-0.9,1.9c-0.6,0.6-1.2,0.9-1.9,0.9h-17.6v12.2c2.9-0.6,6-1.4,9.3-2.4c0.7-0.1,1.2,0.1,1.4,0.7
				c0.2,0.7-0.1,1.2-0.9,1.6c-2.3,0.8-4.5,1.5-6.5,2.1c-2.2,0.7-4.3,1.2-6.1,1.4c-1.3,0.1-2-0.3-2.1-1.4c0-0.8,0.4-1.3,1.2-1.4
				l1.2-0.2v-27.8c0-0.7,0.3-1.3,0.9-1.9c0.6-0.6,1.2-0.9,1.9-0.9H393.4z M375.7,362.5v4.5h18v-4.5c0-0.9-0.5-1.4-1.4-1.4h-15.2
				C376.2,361.1,375.7,361.5,375.7,362.5z M375.7,374.9h16.6c0.9,0,1.4-0.5,1.4-1.4v-4.4h-18V374.9z M396.5,379.4
				c0.8,0.9,0.7,1.8-0.3,2.6c-1.2,0.9-2.7,1.8-4.7,2.6c2.7,2,4.7,3.6,5.9,4.9c0.7,0.7,0.9,1.4,0.5,2.1c-0.7,0.8-1.6,0.8-2.8-0.2
				c-4.5-3.8-9-7.1-13.5-9.8c-0.7-0.5-0.9-1-0.7-1.7c0.3-0.7,1-0.9,1.9-0.5c2.2,1,4.3,2.3,6.3,3.7c2.1-1,3.8-2.2,5.2-3.5
				C395.1,379,395.8,379,396.5,379.4z"/>
			<path class="st9" d="M418.2,359.5c0-0.9,0.4-1.4,1.2-1.4c0.8,0,1.2,0.5,1.2,1.4v2.6h3.3c0.9,0,1.4,0.4,1.4,1.2
				c0,0.8-0.5,1.2-1.4,1.2h-3.3v4.4h1c1.5,0,2.3,0.8,2.3,2.3v5.4c0,1.5-0.8,2.3-2.3,2.3h-6.3v2.8h7.5c0.9,0,1.4,0.4,1.4,1.2
				c0,0.8-0.5,1.2-1.4,1.2h-7.5v3.1h7c0.9,0,1.4,0.4,1.4,1.2c0,0.8-0.5,1.2-1.4,1.2h-7v4.2c4.1-0.5,6.8-0.9,8.2-1.4
				c0.7-0.1,1.1,0.1,1.2,0.7c0.1,0.7-0.2,1.2-1,1.4c-1.7,0.5-4.3,1-7.7,1.6c-6.2,0.8-10.1,1.2-11.7,1c-0.8,0-1.2-0.4-1.2-1.2
				c0-0.7,0.4-1.1,1.2-1.2c2.1-0.1,4.9-0.3,8.6-0.5v-4.5h-6.8c-0.9,0-1.4-0.4-1.4-1.2c0-0.8,0.5-1.2,1.4-1.2h6.8v-3.1h-7.7
				c-0.9,0-1.4-0.4-1.4-1.2c0-0.8,0.5-1.2,1.4-1.2h7.7v-2.8h-6.3c-1.5,0-2.3-0.8-2.3-2.3v-5.4c0-1.5,0.8-2.3,2.3-2.3h1.2v-4.4h-3.5
				c-0.9,0-1.4-0.4-1.4-1.2c0-0.8,0.5-1.2,1.4-1.2h3.5v-2.4c0-0.9,0.4-1.4,1.2-1.4c0.8,0,1.2,0.5,1.2,1.4v2.4h7.9V359.5z
				 M406.8,372.3v3.3c0,0.6,0.3,0.9,0.9,0.9h5.2v-5.1h-5.2C407.1,371.4,406.8,371.7,406.8,372.3z M410.3,368.9h7.9v-4.4h-7.9V368.9z
				 M415.4,376.4h5.2c0.6,0,0.9-0.3,0.9-0.9v-3.3c0-0.6-0.3-0.9-0.9-0.9h-5.2V376.4z M432,359.5c0-0.9,0.4-1.4,1.2-1.4
				c0.8,0,1.2,0.5,1.2,1.4v5.4h5.4c0.7,0,1.3,0.3,1.9,0.9c0.6,0.6,0.9,1.2,0.9,1.9v19.2c0,3.6-0.3,6.4-1,8.4c-0.5,1-1.1,1.7-1.9,2.1
				c-0.9,0.5-2.2,0.7-3.8,0.7c-1.3,0-2.5-0.2-3.7-0.7c-0.6-0.2-0.9-0.6-0.9-1.2c0-0.6,0.3-0.9,1-0.9c0.3,0,0.9,0.1,1.6,0.2
				c0.6,0.1,1.1,0.2,1.6,0.2c1.4,0,2.4-0.2,3-0.7c0.6-0.6,1-1.6,1.2-3c0.2-1.5,0.3-3.2,0.3-5.1v-18.7c0-0.6-0.3-0.9-0.9-0.9h-4.9
				c0,9.1-0.9,15.7-2.6,19.7c-0.5,1.4-1.3,3.3-2.6,5.6c-1.2,2-2.2,3.4-3.1,4.4c-0.5,0.5-0.9,0.7-1.4,0.7c-0.6,0-0.9-0.3-0.9-0.9
				c0-0.6,0.2-1,0.5-1.4c1-1,2.2-2.7,3.3-4.9c0.9-1.9,1.8-4,2.6-6.5c1.2-4.1,1.7-9.7,1.7-16.8h-4.7c-0.9,0-1.4-0.4-1.4-1.2
				c0-0.8,0.5-1.2,1.4-1.2h4.9V359.5z"/>
			<path class="st9" d="M458,360.2c0.7,0,1.3,0.3,1.9,0.9c0.6,0.6,0.9,1.2,0.9,1.9v28.3c0,0.7-0.3,1.3-0.9,1.9
				c-0.6,0.6-1.2,0.9-1.9,0.9h-6.3c-0.7,0-1.3-0.3-1.9-0.9c-0.6-0.6-0.9-1.2-0.9-1.9V363c0-0.7,0.3-1.3,0.9-1.9
				c0.6-0.6,1.2-0.9,1.9-0.9H458z M451.4,364v11.7h7V364c0-0.9-0.5-1.4-1.4-1.4h-4.2C451.9,362.6,451.4,363.1,451.4,364z
				 M451.4,390.2c0,0.9,0.5,1.4,1.4,1.4h4.2c0.9,0,1.4-0.5,1.4-1.4v-12.1h-7V390.2z M474.4,359.3c0-0.9,0.4-1.4,1.2-1.4
				c0.8,0,1.2,0.5,1.2,1.4v3.7h9.1c0.9,0,1.4,0.4,1.4,1.2c0,0.8-0.5,1.2-1.4,1.2h-9.1v6.8h10c0.9,0,1.4,0.4,1.4,1.2
				c0,0.8-0.5,1.2-1.4,1.2h-3v5.4h2.8c0.9,0,1.4,0.4,1.4,1.2c0,0.8-0.5,1.2-1.4,1.2h-2.8v10.7c0,1.6-0.5,2.9-1.6,3.7
				c-0.9,0.7-2.3,1-4.2,1c-3,0-6.1-0.5-9.1-1.4c-0.8-0.2-1.2-0.8-1-1.6c0.2-0.7,0.8-0.9,1.7-0.7c3.1,0.7,5.9,1,8.2,1
				c2.3,0,3.5-1.1,3.5-3.3v-9.4h-17.3c-0.9,0-1.4-0.4-1.4-1.2c0-0.8,0.5-1.2,1.4-1.2h17.3v-5.4h-17.3c-0.9,0-1.4-0.4-1.4-1.2
				c0-0.8,0.5-1.2,1.4-1.2h10.3v-6.8H465c-0.9,0-1.4-0.4-1.4-1.2c0-0.8,0.5-1.2,1.4-1.2h9.4V359.3z M467.6,383.6
				c0.6-0.5,1.3-0.3,2.1,0.3c1.7,1.7,3.1,3.3,4,4.7c0.6,1.2,0.5,2-0.3,2.6c-0.9,0.5-1.7,0.1-2.4-1c-1-1.7-2.2-3.3-3.3-4.7
				C467.1,384.8,467.1,384.2,467.6,383.6z"/>
			<path class="st9" d="M508,359.2c1.5,0,2.3,0.8,2.3,2.3v9.1c0,1.5-0.8,2.3-2.3,2.3h-11.5v24.1c0,0.9-0.4,1.4-1.2,1.4
				c-0.8,0-1.2-0.5-1.2-1.4v-35.5c0-1.5,0.8-2.3,2.3-2.3H508z M497.7,361.2c-0.8,0-1.2,0.4-1.2,1.2v2.4h11.4v-2.4
				c0-0.8-0.4-1.2-1.2-1.2H497.7z M496.5,370.7h10.1c0.8,0,1.2-0.4,1.2-1.2V367h-11.4V370.7z M520.9,376.3c1.5,0,2.3,0.8,2.3,2.3
				v12.2c0,1.5-0.8,2.3-2.3,2.3H505c-1.5,0-2.3-0.8-2.3-2.3v-12.2c0-1.5,0.8-2.3,2.3-2.3H520.9z M506.4,378.4
				c-0.8,0-1.2,0.4-1.2,1.2v4h15.5v-4c0-0.8-0.4-1.2-1.2-1.2H506.4z M505.2,389.7c0,0.8,0.4,1.2,1.2,1.2h13.1c0.8,0,1.2-0.4,1.2-1.2
				v-4h-15.5V389.7z M529.7,359.2c1.5,0,2.3,0.8,2.3,2.3v33c0,2.4-2,3.7-5.9,3.7c-3,0-5.4-0.3-7.2-0.9c-0.7-0.2-1-0.6-1-1.2
				c0-0.9,0.5-1.3,1.6-1.2c2.3,0.5,4.3,0.7,5.9,0.7c2.8,0,4.2-1,4.2-3v-19.7h-11.5c-1.5,0-2.3-0.8-2.3-2.3v-9.1
				c0-1.5,0.8-2.3,2.3-2.3H529.7z M519.3,361.2c-0.8,0-1.2,0.4-1.2,1.2v2.4h11.4v-2.4c0-0.8-0.4-1.2-1.2-1.2H519.3z M518.1,369.5
				c0,0.8,0.4,1.2,1.2,1.2h10.1V367h-11.4V369.5z"/>
		</g>
	</g>
	<path class="st2" d="M1117.7,150.6c-16.8,14.1-31.9,30.1-45.2,47.5l0,0c-0.1,0.1-0.2,0.2-0.3,0.4c-23.8,31.4-41.4,67.8-50.9,107.3
		c-0.2,0.9-0.4,1.8-0.6,2.8c-0.2,1-0.5,2-0.7,3c-5.6,25.2-7.9,51.4-6.6,78L1306,375V82C1234.3,82,1168.6,107.8,1117.7,150.6z"/>
	<path class="st3" d="M1013,378.4c0.2,16.8,1.9,33.8,5.1,50.8c9.9,52.5,33.2,99,65.7,136.7L1306,375L1013,378.4z"/>
	<path class="st3" d="M1052.2,521.5c34.2,59.1,88.5,105.2,153.5,128.9L1306,375L1052.2,521.5z"/>
	<path class="st3" d="M1144.1,619.2c57,37.7,126.1,54.7,194.9,47L1306,375L1144.1,619.2z"/>
	<path class="st4" d="M1599,375c0-17.4-1.5-34.4-4.4-50.9c-12.1-69.3-48.6-130.2-100.3-173.6C1443.4,107.8,1377.7,82,1306,82v293
		l26,291.9c24.9-2.2,49.9-7.7,74.3-16.6l0,0.1c20.4-7.4,39.8-17.1,57.8-28.6c18.2-11.6,34.7-25,49.5-39.8l-0.1-0.1
		c17.9-18,33.5-38.3,46.3-60.4C1584.7,478.4,1599,428.4,1599,375z"/>
	<path class="st5" d="M1156.5,595.3l-17.9,0l0.5-28.4l-20.3,28.4l-165.3,0.2c-1.1,0-2,0.9-2,2l0.1,58c0,1.1,0.9,2,2,2l203-0.3
		c1.1,0,2-0.9,2-2l-0.1-58C1158.5,596.2,1157.6,595.3,1156.5,595.3z"/>
	<path class="st10" d="M1150.5,589.4l-17.9,0l2.9-22l-22.7,22l-165.3,0.2c-1.1,0-2,0.9-2,2l0.1,58c0,1.1,0.9,2,2,2l203-0.3
		c1.1,0,2-0.9,2-2l-0.1-58C1152.5,590.3,1151.6,589.4,1150.5,589.4z"/>
	<g>
		<text transform="matrix(1 -1.490000e-03 1.490000e-03 1 978.1109 633.0707)"><tspan x="0" y="0" class="st6" style="font-family:'KozGoPr6N-Regular-90ms-RKSJ-H'; font-size:34px; letter-spacing:-4;">～</tspan><tspan x="37.7" y="-1.6" class="st6" style="font-family:'FuturaPT-Book'; font-size:34px; letter-spacing:-2;">1</tspan><tspan x="54.3" y="-1.6" class="st6" style="font-family:'FuturaPT-Book'; font-size:34px; letter-spacing:4;">8</tspan><tspan x="78.4" y="-1.6" class="st6" style="font-family:'FuturaPT-Book'; font-size:34px;">:</tspan><tspan x="86.2" y="-1.6" class="st6" style="font-family:'FuturaPT-Book'; font-size:34px; letter-spacing:-4;"> </tspan><tspan x="90" y="-1.6" class="st6" style="font-family:'FuturaPT-Book'; font-size:34px;">0</tspan><tspan x="110" y="-1.6" class="st6" style="font-family:'FuturaPT-Book'; font-size:34px;">5</tspan></text>
	</g>
	<path class="st5" d="M1189.5,90.5h-205c-1.1,0-2,0.9-2,2v60c0,1.1,0.9,2,2,2H1133l22.5,17l-4.3-17h38.3c1.1,0,2-0.9,2-2v-60
		C1191.5,91.4,1190.6,90.5,1189.5,90.5z"/>
	<path class="st10" d="M1185.5,84.5h-205c-1.1,0-2,0.9-2,2v60c0,1.1,0.9,2,2,2H1129l22.5,17l-4.3-17h38.3c1.1,0,2-0.9,2-2v-60
		C1187.5,85.4,1186.6,84.5,1185.5,84.5z"/>
	<g>
		<text transform="matrix(1 0 0 1 1013.1553 128.0313)"><tspan x="0" y="0" class="st6" style="font-family:'KozGoPr6N-Regular-90ms-RKSJ-H'; font-size:34px; letter-spacing:-4;">～</tspan><tspan x="37.7" y="-1.6" class="st6" style="font-family:'FuturaPT-Book'; font-size:34px; letter-spacing:-2;">1</tspan><tspan x="54.3" y="-1.6" class="st6" style="font-family:'FuturaPT-Book'; font-size:34px; letter-spacing:4;">9</tspan><tspan x="77.7" y="-1.6" class="st6" style="font-family:'FuturaPT-Book'; font-size:34px;">:</tspan><tspan x="85.5" y="-1.6" class="st6" style="font-family:'FuturaPT-Book'; font-size:34px; letter-spacing:-4;"> </tspan><tspan x="89.3" y="-1.6" class="st6" style="font-family:'FuturaPT-Book'; font-size:34px;">0</tspan><tspan x="109.3" y="-1.6" class="st6" style="font-family:'FuturaPT-Book'; font-size:34px;">0</tspan></text>
	</g>
	<path class="st5" d="M1667.6,120.3l-212.3,0.1c-1.3,0-2.4,0.8-2.4,1.8l0,62.6c0,1,1.1,1.8,2.4,1.8l22.2,0l-8,17.9l41.5-17.9
		l156.6,0c1.3,0,2.4-0.8,2.4-1.8l0-62.6C1670,121.1,1668.9,120.3,1667.6,120.3z"/>
	<path class="st10" d="M1661.3,115.3H1455c-1.3,0-2.3,0.8-2.3,1.8v62.6c0,1,1,1.8,2.3,1.8h21.6l-7.8,17.9l40.4-17.9h152.2
		c1.3,0,2.3-0.8,2.3-1.8v-62.6C1663.6,116.1,1662.6,115.3,1661.3,115.3z"/>
	<g>
		<text transform="matrix(1 0 0 1 1491.1553 161.0313)"><tspan x="0" y="0" class="st6" style="font-family:'KozGoPr6N-Regular-90ms-RKSJ-H'; font-size:34px; letter-spacing:-4;">～</tspan><tspan x="37.7" y="-1.6" class="st6" style="font-family:'FuturaPT-Book'; font-size:34px; letter-spacing:-2;">1</tspan><tspan x="54.3" y="-1.6" class="st6" style="font-family:'FuturaPT-Book'; font-size:34px;">8</tspan><tspan x="73.6" y="-1.6" class="st6" style="font-family:'FuturaPT-Book'; font-size:34px; letter-spacing:-2;"> </tspan><tspan x="78.8" y="-1.6" class="st6" style="font-family:'FuturaPT-Book'; font-size:34px; letter-spacing:-4;">:</tspan><tspan x="82.5" y="-1.6" class="st6" style="font-family:'FuturaPT-Book'; font-size:34px; letter-spacing:-4;"> </tspan><tspan x="85.7" y="-1.6" class="st6" style="font-family:'FuturaPT-Book'; font-size:34px; letter-spacing:-2;">1</tspan><tspan x="102.3" y="-1.6" class="st6" style="font-family:'FuturaPT-Book'; font-size:34px;">5</tspan></text>
	</g>
	<text transform="matrix(1 0 0 1 1458.7422 414.8281)"><tspan x="0" y="0" class="st7" style="font-family:'FuturaPT-Book'; font-size:45.3844px;">50</tspan><tspan x="51.6" y="-3.9" class="st0" style="font-family:'HGSGothicE'; font-size:31.2878px;">％</tspan></text>
	<text transform="matrix(1 0 0 1 1096.7422 486.8281)"><tspan x="0" y="0" class="st7" style="font-family:'FuturaPT-Book'; font-size:45.3844px;">25</tspan><tspan x="51.6" y="-3.9" class="st0" style="font-family:'HGSGothicE'; font-size:31.2878px;">％</tspan></text>
	<text transform="matrix(1 0 0 1 1146.7422 239.8281)"><tspan x="0" y="0" class="st7" style="font-family:'FuturaPT-Book'; font-size:45.3844px;">25</tspan><tspan x="51.6" y="-3.9" class="st0" style="font-family:'HGSGothicE'; font-size:31.2878px;">％</tspan></text>
	<path class="st4" d="M1332.2,666.4c0,0-46.1-80-18.3-184.8l48.7,88.4L1332.2,666.4z"/>
	<path class="st3" d="M1013.6,378.9c0,0,83.6-39.1,185.6-2.4l-92.3,40.9L1013.6,378.9z"/>
	<path class="st2" d="M1307.3,81.7c0,0,38,84.1-0.1,185.7l-39.7-92.8L1307.3,81.7z"/>
	<g>
		<g class="st8">
			<circle class="st0" cx="1306.3" cy="375.4" r="124.3"/>
		</g>
		<g>
			<circle class="st0" cx="1306.3" cy="375.4" r="111.3"/>
		</g>
		<text transform="matrix(1 0 0 1 1218.3575 394.2657)" class="st9" style="font-family:'HGMaruGothicMPRO'; font-size:44.7209px;">退勤時間</text>
	</g>
</g>
<g id="ガイド">
</g>
</svg>
