<?xml version="1.0" encoding="utf-8"?>
<!-- Generator: Adobe Illustrator 22.0.1, SVG Export Plug-In . SVG Version: 6.00 Build 0)  -->
<svg version="1.1" xmlns="http://www.w3.org/2000/svg" xmlns:xlink="http://www.w3.org/1999/xlink" x="0px" y="0px"
	 viewBox="0 0 900 750" style="enable-background:new 0 0 900 750;" xml:space="preserve">
<style type="text/css">
	.st0{display:none;}
	.st1{display:inline;}
	.st2{fill:#FCFCFC;}
	.st3{clip-path:url(#SVGID_2_);}
	.st4{fill:#E5E5E5;}
	.st5{fill:#3498DB;}
	.st6{fill:#308CBF;}
	.st7{fill:#4BACE2;}
	.st8{fill:#DBDBDB;}
	.st9{fill:none;stroke:#BABABA;stroke-width:0.9574;stroke-miterlimit:10;}
	.st10{fill:#E67E22;}
	.st11{fill:#DD6D19;}
	.st12{fill:#E8984C;}
	.st13{fill:none;stroke:#BABABA;stroke-miterlimit:10;}
	.st14{fill:none;stroke:#838383;stroke-width:10;stroke-linecap:square;stroke-miterlimit:10;}
	.st15{fill:none;stroke:#838383;stroke-width:10;stroke-miterlimit:10;}
</style>
<g id="レイヤー_3" class="st0">
	<g class="st1">
		<rect y="1" class="st2" width="900" height="750"/>
	</g>
</g>
<g id="レイヤー_1">
	<g>
		<defs>
			<rect id="SVGID_1_" x="107" y="-12" transform="matrix(-1 -1.224647e-16 1.224647e-16 -1 930 598)" width="716" height="622"/>
		</defs>
		<clipPath id="SVGID_2_">
			<use xlink:href="#SVGID_1_"  style="overflow:visible;"/>
		</clipPath>
		<g class="st3">
			<rect x="113" y="150" class="st4" width="653" height="185"/>
			<rect x="113" y="150" class="st5" width="390" height="185"/>
			<polygon class="st5" points="113,150 69,252 113,335 			"/>
			<polygon class="st6" points="69,252 467,252 503,335 113,335 			"/>
			<polygon class="st7" points="503,150 467,252 503,335 537,252 			"/>
			<polygon class="st8" points="767,150 731,252 767,335 801,252 			"/>
			<line class="st9" x1="731" y1="252" x2="467" y2="252"/>
			<rect x="113" y="409" class="st10" width="240.3" height="185"/>
			<rect x="353" y="409" class="st4" width="413" height="185"/>
			<polygon class="st10" points="113,409 69,511 113,594 			"/>
			<polygon class="st11" points="69,511 329.3,511 354,594 113,594 			"/>
			<polygon class="st12" points="352,411 316,513 352,596 386,513 			"/>
			<polygon class="st8" points="767,409 731,511 767,594 801,511 			"/>
			<line class="st13" x1="731" y1="511" x2="316" y2="511"/>
			<g>
				<g>
					<path class="st7" d="M551.9,269.1l19.6-22.6c1.4-1.6,5-5.9,6.3-7.8c2.4-3.5,3-6,3-8.2c0-6-4.3-10.5-10.7-10.5
						c-3.8,0-6.9,1.7-8.9,4.7c-1,1.6-1.7,3.6-1.8,6.4h-6c0.2-5.4,1.9-8.7,4-11.1c2.3-2.6,6-5.5,12.7-5.5c9.5,0,16.6,6.8,16.6,16
						c0,3.6-1,6.9-4.3,11.5c-2.3,3.1-5.1,6.4-7.3,8.9l-11.2,12.6h22.7v5.5H551.9z"/>
					<path class="st7" d="M588.1,270.6h-39.5l21.7-25.1c1.2-1.4,4.9-5.8,6.2-7.7c2.4-3.5,2.7-5.8,2.7-7.4c0-5.3-3.8-9-9.2-9
						c-3.3,0-5.9,1.4-7.7,4.1c-1,1.5-1.5,3.3-1.5,5.6l0,1.5h-9l0.1-1.6c0.2-5,1.6-8.8,4.4-12c3.5-4,8.1-6,13.8-6
						c10.3,0,18.1,7.5,18.1,17.5c0,4.2-1.3,7.8-4.5,12.4c-2.2,3.1-4.9,6.2-7.1,8.7l-0.3,0.3l-9,10.1h20.9V270.6z M555.2,267.6h29.9
						v-2.5h-24.5l13.7-15.4c2.2-2.5,4.8-5.6,7-8.5c2.8-4,4-7.1,4-10.6c0-8.4-6.3-14.5-15.1-14.5c-4.9,0-8.7,1.6-11.6,5
						c-2,2.3-3.2,5.1-3.5,8.6h2.9c0.2-2.2,0.9-4.1,1.9-5.7c2.3-3.5,5.9-5.4,10.2-5.4c7.1,0,12.2,5,12.2,12c0,3-1,5.9-3.2,9.1
						c-1.2,1.8-4.2,5.4-6.4,7.9L555.2,267.6z"/>
				</g>
			</g>
			<g>
				<g>
					<path class="st12" d="M450.7,485.5c0.2-3.1,1.2-5.9,2.6-8.1c3.7-5.7,9.6-6.5,12.9-6.5c10.5,0,15.6,7.3,15.6,15
						c0,4-1.5,9.5-7.2,12.3c1.9,0.7,8,3.8,8,13.4c0,10.4-7.6,16.7-17,16.7c-5.7,0-12.5-2.4-15.5-9.6c-0.8-2-1.2-3.8-1.2-5.8h6.2
						c0.2,2,0.9,4.1,2,5.6c1.8,2.7,5.1,4.2,8.6,4.2c6.2,0,10.9-5.1,10.9-11.2c0-3.2-1.2-7.4-5.5-9.3c-1.7-0.8-4.2-1.2-6.3-1.2v-5.5
						c2.2,0.2,4.6-0.3,6.3-1.2c1.7-0.9,4.7-3.2,4.7-8.2c0-4.9-2.7-9.5-9.5-9.5c-2.2,0-5,0.4-7.2,3.2c-1.1,1.4-2,3.5-2.2,5.8H450.7z"
						/>
					<path class="st12" d="M465.6,530.2c-8,0-14.5-4-17.3-10.8c-0.9-2.1-1.3-4.1-1.4-6.5l-0.1-2.1h10l0.2,1.8
						c0.2,1.8,0.8,3.5,1.6,4.6c1.4,2.1,4,3.3,6.9,3.3c5,0,8.9-4.1,8.9-9.2c0-1.3-0.3-5.7-4.3-7.5c-1.4-0.7-3.5-1.1-5.4-1l-2.1,0.1
						v-9.7l2.2,0.2c1.9,0.1,3.9-0.2,5.2-0.9c1.3-0.7,3.6-2.5,3.6-6.5c0-2.8-1-7.5-7.5-7.5c-1.8,0-3.9,0.3-5.6,2.4
						c-1,1.3-1.6,3-1.7,4.7l-0.1,1.9h-10.1l0.1-2.1c0.2-3.2,1.2-6.4,2.9-9.1c3.1-4.9,8.1-7.4,14.6-7.4c12.1,0,17.6,8.8,17.6,17
						c0,2.5-0.6,8.2-5.3,12.2c2.8,2.1,6.1,6.1,6.1,13.5C484.6,522.5,476.8,530.2,465.6,530.2z M451.1,514.8c0.2,1.1,0.5,2,0.9,3.1
						c3.1,7.5,10.6,8.3,13.6,8.3c9,0,15-5.9,15-14.7c0-8-4.7-10.7-6.7-11.5l-4.2-1.6l4-2c5.5-2.7,6-8.3,6-10.5c0-6.5-4.2-13-13.6-13
						c-5.1,0-8.9,1.9-11.2,5.6c-1,1.5-1.6,3.3-2,5.1h2.2c0.4-1.8,1.2-3.6,2.3-5c2.8-3.5,6.3-3.9,8.7-3.9c7,0,11.5,4.5,11.5,11.5
						c0,6.3-4,9.1-5.7,10c-1.5,0.8-3.3,1.3-5.2,1.4v1.5c1.9,0.2,3.7,0.6,5.2,1.3c6.1,2.8,6.6,9.2,6.6,11.1c0,7.3-5.8,13.2-12.9,13.2
						c-4.2,0-8.1-1.9-10.2-5c-0.9-1.2-1.6-2.9-2-4.7H451.1z"/>
				</g>
				<g>
					<path class="st12" d="M500.2,519.9c-3.7-5.3-5.6-12.5-5.6-20.4s1.9-15.1,5.6-20.4c4.2-6.2,9.8-8.3,14.2-8.3
						c4.4,0,10,2.2,14.2,8.3c3.7,5.3,5.6,12.5,5.6,20.4s-1.9,15.1-5.6,20.4c-4.2,6.2-9.8,8.3-14.2,8.3
						C510,528.2,504.4,526,500.2,519.9z M504.8,482.6c-3,4.7-4.1,11.1-4.1,16.9s1.1,12.1,4.1,16.9c2.9,4.7,6.7,6.2,9.6,6.2
						c2.8,0,6.7-1.5,9.6-6.2c3-4.7,4.1-11.1,4.1-16.9s-1.1-12.1-4.1-16.9c-2.9-4.7-6.7-6.2-9.6-6.2
						C511.6,476.5,507.7,478,504.8,482.6z"/>
					<path class="st12" d="M514.4,530.2c-2.9,0-10.2-0.9-15.9-9.2l0,0c-3.9-5.6-5.9-13.1-5.9-21.5c0-8.4,2-15.9,5.9-21.5
						c5.7-8.3,13-9.2,15.9-9.2s10.2,0.9,15.9,9.2c3.9,5.6,5.9,13.1,5.9,21.5c0,8.4-2,15.9-5.9,21.5
						C524.5,529.3,517.3,530.2,514.4,530.2z M501.8,518.8c4.6,6.7,10.3,7.4,12.6,7.4s7.9-0.7,12.6-7.5c3.4-5,5.2-11.6,5.2-19.2
						c0-7.6-1.8-14.3-5.2-19.2c-4.6-6.7-10.3-7.4-12.6-7.4s-7.9,0.7-12.6,7.5c-3.4,5-5.2,11.6-5.2,19.2
						C496.6,507.1,498.4,513.8,501.8,518.8L501.8,518.8z M514.4,524.6c-2.1,0-7.3-0.7-11.3-7.1c-3.6-5.7-4.4-12.9-4.4-17.9
						c0-5,0.8-12.2,4.4-17.9c4-6.4,9.2-7.1,11.3-7.1c2.1,0,7.3,0.7,11.3,7.1c3.6,5.7,4.4,12.9,4.4,17.9s-0.8,12.2-4.4,17.9
						C521.6,523.9,516.4,524.6,514.4,524.6z M514.4,478.5c-1.4,0-4.9,0.5-7.9,5.2l0,0c-2.4,3.8-3.8,9.5-3.8,15.8s1.3,12,3.8,15.8
						c2.9,4.7,6.5,5.2,7.9,5.2s4.9-0.5,7.9-5.2c2.4-3.9,3.8-9.5,3.8-15.8s-1.3-12-3.8-15.8C519.3,479,515.8,478.5,514.4,478.5z"/>
				</g>
			</g>
			<g>
				<g>
					<path class="st7" d="M670.1,246.8h4.1v23.4h-4.1v-3.3c-1.4,1.7-3.9,3.9-8,3.9c-5.9,0-11.4-4.2-11.4-12.4
						c0-8,5.4-12.2,11.4-12.2c4.5,0,6.9,2.5,8,3.9V246.8z M654.9,258.5c0,5,2.8,8.8,7.7,8.8c5,0,7.8-4.1,7.8-8.7
						c0-6-4.2-8.7-7.8-8.7C658.6,249.9,654.9,252.8,654.9,258.5z"/>
					<path class="st7" d="M662.1,271.5c-5.8,0-12-4.1-12-13c0-8.8,6.2-12.8,12-12.8c3.5,0,5.8,1.4,7.4,2.9v-2.3h5.3v24.6h-5.3v-2.3
						C667.9,270.1,665.6,271.5,662.1,271.5z M662.1,246.9c-5.4,0-10.7,3.6-10.7,11.6c0,8.1,5.4,11.8,10.7,11.8c3.8,0,6.2-2,7.5-3.7
						l1.1-1.4v4.5h2.8v-22.1h-2.8v4.5l-1.1-1.5C668.4,248.9,666,246.9,662.1,246.9z M662.6,267.9c-4.9,0-8.3-3.8-8.3-9.4
						c0-6.3,4.3-9.2,8.3-9.2c4.2,0,8.4,3.2,8.4,9.3C671,263.2,668.1,267.9,662.6,267.9z M662.6,250.5c-3.5,0-7,2.5-7,8
						c0,5,2.8,8.2,7,8.2c4.9,0,7.1-4.2,7.1-8.1C669.7,253,666,250.5,662.6,250.5z"/>
				</g>
				<g>
					<path class="st7" d="M699.7,246.8h4.1v22.8c0,2.5,0,6.1-2.3,9.2c-1.7,2.4-5,4.3-9.3,4.3c-4,0-6.8-1.6-8.3-3.2
						c-1.6-1.6-3-4.1-3-7.5h4c0,2,0.8,3.7,1.8,4.8c1.7,1.9,3.8,2.3,5.6,2.3c2.9,0,4.8-1,6.2-3.3c1.2-1.9,1.3-4,1.3-6v-3.4
						c-1.4,1.7-3.9,3.9-8,3.9c-3.4,0-6.2-1.4-8-3.2c-1.6-1.6-3.4-4.5-3.4-9.2c0-4.6,1.7-7.4,3.4-9.1c2-1.9,4.8-3.2,8-3.2
						c3.4,0,6.1,1.5,8,3.9V246.8z M686.9,252.1c-2,2-2.4,4.5-2.4,6.4c0,2,0.4,4.8,2.6,6.9c1.3,1.2,2.9,1.9,5,1.9s3.8-0.7,5.1-2
						c1.6-1.5,2.6-4,2.6-6.8c0-2.8-1-5.2-2.5-6.6c-1.3-1.3-3.2-2.1-5.3-2.1C689.7,249.9,688,250.9,686.9,252.1z"/>
					<path class="st7" d="M692.2,283.8c-4.7,0-7.5-2.1-8.8-3.3c-1.2-1.2-3.2-3.8-3.2-8v-0.6h5.2v0.6c0,1.6,0.6,3.3,1.6,4.4
						c1.3,1.4,2.9,2,5.2,2c2.7,0,4.4-0.9,5.7-3c1.1-1.8,1.2-3.8,1.2-5.6v-1.8c-1.6,1.5-4,2.9-7.4,2.9c-3.3,0-6.3-1.2-8.4-3.3
						c-1.3-1.3-3.6-4.4-3.6-9.7c0-3.9,1.2-7.2,3.6-9.5c2.2-2.1,5.3-3.3,8.4-3.3c2.9,0,5.4,1,7.4,2.9v-2.3h5.3v23.4
						c0,2.5,0,6.3-2.4,9.5C699.9,282.1,696.3,283.8,692.2,283.8z M681.5,273.1c0.2,3.3,1.8,5.5,2.8,6.5c1.1,1.1,3.6,3,7.9,3
						c3.7,0,6.9-1.5,8.8-4.1c2.1-2.9,2.1-6.3,2.1-8.8v-22.2h-2.8v4.5l-1.1-1.4c-1.8-2.4-4.4-3.6-7.5-3.6c-2.9,0-5.6,1.1-7.6,3
						c-2.1,2.1-3.2,5-3.2,8.6c0,4.9,2,7.6,3.2,8.8c1.9,1.9,4.6,3,7.6,3c3.8,0,6.2-2,7.5-3.7l1.1-1.4v5.2c0,2-0.1,4.2-1.4,6.3
						c-1.5,2.4-3.6,3.6-6.7,3.6c-2.6,0-4.6-0.8-6.1-2.5c-1.1-1.2-1.8-2.9-1.9-4.6H681.5z M692.2,267.9c-2.1,0-3.9-0.7-5.4-2.1
						c-1.9-1.7-2.8-4.2-2.8-7.3c0-2.8,0.9-5.1,2.5-6.8l0,0c1.6-1.6,3.5-2.4,5.7-2.4c2.2,0,4.3,0.8,5.7,2.3c1.7,1.6,2.7,4.2,2.7,7
						s-1.1,5.5-2.8,7.2C696.3,267.2,694.5,267.9,692.2,267.9z M687.3,252.5c-1.5,1.5-2.2,3.5-2.2,6c0,2.8,0.8,4.9,2.4,6.4
						c1.3,1.2,2.8,1.7,4.6,1.7c1.9,0,3.5-0.6,4.7-1.8c1.5-1.5,2.5-3.8,2.5-6.3s-0.9-4.8-2.3-6.1c-1.2-1.2-3-1.9-4.9-1.9
						C690.3,250.5,688.7,251.2,687.3,252.5z"/>
				</g>
				<g>
					<path class="st7" d="M732.2,264.2c-0.7,1.3-1.7,2.7-2.9,3.8c-2.1,1.9-4.8,2.9-7.8,2.9c-5.6,0-11.5-3.5-11.5-12.2
						c0-7,4.3-12.4,11.3-12.4c4.6,0,7.4,2.3,8.8,4.3c1.5,2.1,2.3,5.7,2.2,8.8h-18.2c0.1,4.8,3.4,7.9,7.4,7.9c1.9,0,3.4-0.6,4.8-1.7
						c1.1-0.9,1.9-2.1,2.4-3.2L732.2,264.2z M728.2,256c-0.7-3.7-3.4-6.1-6.9-6.1c-3.4,0-6.2,2.6-6.9,6.1H728.2z"/>
					<path class="st7" d="M721.5,271.5c-6.1,0-12.2-4-12.2-12.8c0-7.7,4.9-13,11.9-13c5.6,0,8.4,3.2,9.3,4.5
						c1.5,2.1,2.4,5.8,2.3,9.2l0,0.6h-18.1c0.3,3.9,3.1,6.7,6.8,6.7c1.7,0,3.1-0.5,4.4-1.5c0.9-0.8,1.8-1.9,2.3-3l0.3-0.6l4.5,2.5
						l-0.3,0.5c-0.8,1.5-1.9,2.9-3,3.9C727.5,270.5,724.7,271.5,721.5,271.5z M721.3,246.9c-6.4,0-10.7,4.7-10.7,11.8
						c0,8.6,5.9,11.6,10.9,11.6c2.9,0,5.3-0.9,7.4-2.7c0.9-0.8,1.8-1.9,2.4-3.1l-2.3-1.2c-0.6,1.1-1.4,2.1-2.3,2.8
						c-1.5,1.3-3.1,1.8-5.2,1.8c-4.6,0-8-3.6-8-8.5l0-0.6h18.2c0-2.9-0.8-6-2.1-7.8C728.8,249.7,726.3,246.9,721.3,246.9z
						 M728.9,256.6h-15.2l0.1-0.7c0.7-3.8,3.8-6.6,7.5-6.6c3.7,0,6.7,2.6,7.5,6.6L728.9,256.6z M715.2,255.3h12.2
						c-0.8-2.9-3.2-4.8-6.1-4.8C718.5,250.5,716,252.5,715.2,255.3z"/>
				</g>
			</g>
			<g>
				<g>
					<path class="st7" d="M775.2,256.3c-0.6,1.4-1.6,3-2.8,4.1c-1.4,1.4-3.1,2.2-5.4,2.2c-2.2,0-4.1-1-6.1-1.9
						c-2.5-1.2-3.9-1.8-5.3-1.8c-1.1,0-2.1,0.4-2.9,1.1c-0.8,0.7-1.5,1.9-2,2.9l-2.5-1.5c0.7-1.5,1.9-3.4,2.7-4.4
						c1.4-1.5,3-2.1,4.9-2.1c2.1,0,4,0.8,6.4,1.9c1.7,0.8,3.6,1.8,5.3,1.8c1.3,0,2.5-0.4,3.4-1.3c0.7-0.7,1.4-1.7,1.8-2.5
						L775.2,256.3z"/>
					<path class="st7" d="M751,263.8l-3.6-2.1l0.2-0.5c0.6-1.4,1.8-3.5,2.8-4.5c1.4-1.6,3.2-2.3,5.4-2.3c2.3,0,4.4,0.9,6.6,2
						l0.6,0.3c1.4,0.7,3.1,1.5,4.5,1.5c1.2,0,2.2-0.4,3-1.2c0.7-0.7,1.4-1.7,1.7-2.3l0.3-0.6l3.5,2.1l-0.2,0.5
						c-0.7,1.6-1.8,3.2-3,4.3c-1.6,1.6-3.5,2.4-5.8,2.4c-2.1,0-3.9-0.9-5.7-1.7l-0.6-0.3c-2.6-1.2-3.8-1.7-5.1-1.7
						c-0.9,0-1.8,0.3-2.5,1c-0.7,0.6-1.4,1.8-1.8,2.7L751,263.8z M749,261.2l1.4,0.8c0.4-0.7,1-1.8,1.8-2.5c1-0.8,2.1-1.3,3.3-1.3
						c1.6,0,3.1,0.7,5.6,1.9l0.6,0.3c1.7,0.8,3.4,1.6,5.2,1.6c2,0,3.6-0.7,5-2c0.9-0.9,1.8-2.1,2.5-3.4l-1.4-0.9
						c-0.4,0.7-1,1.5-1.6,2.1c-1,1-2.3,1.5-3.9,1.5c-1.7,0-3.5-0.8-5-1.6l-0.6-0.3c-2.5-1.2-4.2-1.9-6.1-1.9c-1.9,0-3.3,0.6-4.4,1.9
						C750.7,258.3,749.7,259.8,749,261.2z"/>
				</g>
			</g>
			<g>
				<g>
					<path class="st12" d="M567.6,506.3h4.1v23.4h-4.1v-3.3c-1.4,1.7-3.9,3.9-8,3.9c-5.9,0-11.4-4.2-11.4-12.4
						c0-8,5.4-12.2,11.4-12.2c4.5,0,6.9,2.5,8,3.9V506.3z M552.4,518c0,5,2.8,8.8,7.7,8.8c5,0,7.8-4.1,7.8-8.7c0-6-4.2-8.7-7.8-8.7
						C556.1,509.4,552.4,512.3,552.4,518z"/>
					<path class="st12" d="M559.6,531c-5.8,0-12-4.1-12-13c0-8.8,6.2-12.8,12-12.8c3.5,0,5.8,1.4,7.4,2.9v-2.3h5.3v24.6H567v-2.3
						C565.4,529.6,563.1,531,559.6,531z M559.6,506.4c-5.4,0-10.7,3.6-10.7,11.6c0,8.1,5.4,11.8,10.7,11.8c3.8,0,6.2-2,7.5-3.7
						l1.1-1.4v4.5h2.8V507h-2.8v4.5l-1.1-1.5C565.9,508.4,563.5,506.4,559.6,506.4z M560.1,527.4c-4.9,0-8.3-3.8-8.3-9.4
						c0-6.3,4.3-9.2,8.3-9.2c4.2,0,8.4,3.2,8.4,9.3C568.5,522.7,565.6,527.4,560.1,527.4z M560.1,510c-3.5,0-7,2.5-7,8
						c0,5,2.8,8.2,7,8.2c4.9,0,7.1-4.2,7.1-8.1C567.2,512.5,563.5,510,560.1,510z"/>
				</g>
				<g>
					<path class="st12" d="M597.2,506.3h4.1v22.8c0,2.5,0,6.1-2.3,9.2c-1.7,2.4-5,4.3-9.3,4.3c-4,0-6.8-1.6-8.3-3.2
						c-1.6-1.6-3-4.1-3-7.5h4c0,2,0.8,3.7,1.8,4.8c1.7,1.9,3.8,2.3,5.6,2.3c2.9,0,4.8-1,6.2-3.3c1.2-1.9,1.3-4,1.3-6v-3.4
						c-1.4,1.7-3.9,3.9-8,3.9c-3.4,0-6.2-1.4-8-3.2c-1.6-1.6-3.4-4.5-3.4-9.2c0-4.6,1.7-7.4,3.4-9.1c2-1.9,4.8-3.2,8-3.2
						c3.4,0,6.1,1.5,8,3.9V506.3z M584.4,511.6c-2,2-2.4,4.5-2.4,6.4c0,2,0.4,4.8,2.6,6.9c1.3,1.2,2.9,1.9,5,1.9s3.8-0.7,5.1-2
						c1.6-1.5,2.6-4,2.6-6.8c0-2.8-1-5.2-2.5-6.6c-1.3-1.3-3.2-2.1-5.3-2.1C587.2,509.4,585.5,510.4,584.4,511.6z"/>
					<path class="st12" d="M589.7,543.3c-4.7,0-7.5-2.1-8.8-3.3c-1.2-1.2-3.2-3.8-3.2-8v-0.6h5.2v0.6c0,1.6,0.6,3.3,1.6,4.4
						c1.3,1.4,2.9,2,5.2,2c2.7,0,4.4-0.9,5.7-3c1.1-1.8,1.2-3.8,1.2-5.6v-1.8c-1.6,1.5-4,2.9-7.4,2.9c-3.3,0-6.3-1.2-8.4-3.3
						c-1.3-1.3-3.6-4.4-3.6-9.7c0-3.9,1.2-7.2,3.6-9.5c2.2-2.1,5.3-3.3,8.4-3.3c2.9,0,5.4,1,7.4,2.9v-2.3h5.3v23.4
						c0,2.5,0,6.3-2.4,9.5C597.4,541.6,593.8,543.3,589.7,543.3z M579,532.6c0.2,3.3,1.8,5.5,2.8,6.5c1.1,1.1,3.6,3,7.9,3
						c3.7,0,6.9-1.5,8.8-4.1c2.1-2.9,2.1-6.3,2.1-8.8V507h-2.8v4.5l-1.1-1.4c-1.8-2.4-4.4-3.6-7.5-3.6c-2.9,0-5.6,1.1-7.6,3
						c-2.1,2.1-3.2,5-3.2,8.6c0,4.9,2,7.6,3.2,8.8c1.9,1.9,4.6,3,7.6,3c3.8,0,6.2-2,7.5-3.7l1.1-1.4v5.2c0,2-0.1,4.2-1.4,6.3
						c-1.5,2.4-3.6,3.6-6.7,3.6c-2.6,0-4.6-0.8-6.1-2.5c-1.1-1.2-1.8-2.9-1.9-4.6H579z M589.7,527.4c-2.1,0-3.9-0.7-5.4-2.1
						c-1.9-1.7-2.8-4.2-2.8-7.3c0-2.8,0.9-5.1,2.5-6.8l0,0c1.6-1.6,3.5-2.4,5.7-2.4c2.2,0,4.3,0.8,5.7,2.3c1.7,1.6,2.7,4.2,2.7,7
						c0,2.8-1.1,5.5-2.8,7.2C593.8,526.7,592,527.4,589.7,527.4z M584.8,512c-1.5,1.5-2.2,3.5-2.2,6c0,2.8,0.8,4.9,2.4,6.4
						c1.3,1.2,2.8,1.7,4.6,1.7c1.9,0,3.5-0.6,4.7-1.8c1.5-1.5,2.5-3.8,2.5-6.3c0-2.5-0.9-4.8-2.3-6.1c-1.2-1.2-3-1.9-4.9-1.9
						C587.8,510,586.2,510.7,584.8,512z"/>
				</g>
				<g>
					<path class="st12" d="M629.7,523.7c-0.7,1.3-1.7,2.7-2.9,3.8c-2.1,1.9-4.8,2.9-7.8,2.9c-5.6,0-11.5-3.5-11.5-12.2
						c0-7,4.3-12.4,11.3-12.4c4.6,0,7.4,2.3,8.8,4.3c1.5,2.1,2.3,5.7,2.2,8.8h-18.2c0.1,4.8,3.4,7.9,7.4,7.9c1.9,0,3.4-0.6,4.8-1.7
						c1.1-0.9,1.9-2.1,2.4-3.2L629.7,523.7z M625.7,515.5c-0.7-3.7-3.4-6.1-6.9-6.1c-3.4,0-6.2,2.6-6.9,6.1H625.7z"/>
					<path class="st12" d="M619,531c-6.1,0-12.2-4-12.2-12.8c0-7.7,4.9-13,11.9-13c5.6,0,8.4,3.2,9.3,4.5c1.5,2.1,2.4,5.8,2.3,9.2
						l0,0.6h-18.1c0.3,3.9,3.1,6.7,6.8,6.7c1.7,0,3.1-0.5,4.4-1.5c0.9-0.8,1.8-1.9,2.3-3l0.3-0.6l4.5,2.5l-0.3,0.5
						c-0.8,1.5-1.9,2.9-3,3.9C625,530,622.2,531,619,531z M618.8,506.4c-6.4,0-10.7,4.7-10.7,11.8c0,8.6,5.9,11.6,10.9,11.6
						c2.9,0,5.3-0.9,7.4-2.7c0.9-0.8,1.8-1.9,2.4-3.1l-2.3-1.2c-0.6,1.1-1.4,2.1-2.3,2.8c-1.5,1.3-3.1,1.8-5.2,1.8
						c-4.6,0-8-3.6-8-8.5l0-0.6h18.2c0-2.9-0.8-6-2.1-7.8C626.3,509.2,623.8,506.4,618.8,506.4z M626.4,516.1h-15.2l0.1-0.7
						c0.7-3.8,3.8-6.6,7.5-6.6c3.7,0,6.7,2.6,7.5,6.6L626.4,516.1z M612.7,514.8h12.2c-0.8-2.9-3.2-4.8-6.1-4.8
						C616,510,613.5,512,612.7,514.8z"/>
				</g>
			</g>
			<g>
				<g>
					<path class="st12" d="M672.7,515.8c-0.6,1.4-1.6,3-2.8,4.1c-1.4,1.4-3.1,2.2-5.4,2.2c-2.2,0-4.1-1-6.1-1.9
						c-2.5-1.2-3.9-1.8-5.3-1.8c-1.1,0-2.1,0.4-2.9,1.1c-0.8,0.7-1.5,1.9-2,2.9l-2.5-1.5c0.7-1.5,1.9-3.4,2.7-4.4
						c1.4-1.5,3-2.1,4.9-2.1c2.1,0,4,0.8,6.4,1.9c1.7,0.8,3.6,1.8,5.3,1.8c1.3,0,2.5-0.4,3.4-1.3c0.7-0.7,1.4-1.7,1.8-2.5
						L672.7,515.8z"/>
					<path class="st12" d="M648.5,523.3l-3.6-2.1l0.2-0.5c0.6-1.4,1.8-3.5,2.8-4.5c1.4-1.6,3.2-2.3,5.4-2.3c2.3,0,4.4,0.9,6.6,2
						l0.6,0.3c1.4,0.7,3.1,1.5,4.5,1.5c1.2,0,2.2-0.4,3-1.2c0.7-0.7,1.4-1.7,1.7-2.3l0.3-0.6l3.5,2.1l-0.2,0.5
						c-0.7,1.6-1.8,3.2-3,4.3c-1.6,1.6-3.5,2.4-5.8,2.4c-2.1,0-3.9-0.9-5.7-1.7l-0.6-0.3c-2.6-1.2-3.8-1.7-5.1-1.7
						c-0.9,0-1.8,0.3-2.5,1c-0.7,0.6-1.4,1.8-1.8,2.7L648.5,523.3z M646.5,520.7l1.4,0.8c0.4-0.7,1-1.8,1.8-2.5
						c1-0.8,2.1-1.3,3.3-1.3c1.6,0,3.1,0.7,5.6,1.9l0.6,0.3c1.7,0.8,3.4,1.6,5.2,1.6c2,0,3.6-0.7,5-2c0.9-0.9,1.8-2.1,2.5-3.4
						l-1.4-0.9c-0.4,0.7-1,1.5-1.6,2.1c-1,1-2.3,1.5-3.9,1.5c-1.7,0-3.5-0.8-5-1.6l-0.6-0.3c-2.5-1.2-4.2-1.9-6.1-1.9
						c-1.9,0-3.3,0.6-4.4,1.9C648.2,517.8,647.2,519.3,646.5,520.7z"/>
				</g>
			</g>
			<g>
				<g>
					<path class="st7" d="M602.9,261.8c-3.5-5-5.3-11.8-5.3-19.3s1.8-14.2,5.3-19.3c4-5.8,9.3-7.9,13.5-7.9c4.2,0,9.4,2,13.5,7.9
						c3.5,5,5.3,11.8,5.3,19.3s-1.8,14.2-5.3,19.3c-4,5.8-9.3,7.9-13.5,7.9C612.2,269.7,606.9,267.6,602.9,261.8z M607.3,226.6
						c-2.8,4.5-3.9,10.5-3.9,16s1,11.5,3.9,16c2.8,4.4,6.4,5.8,9,5.8c2.7,0,6.3-1.4,9-5.8c2.8-4.5,3.9-10.5,3.9-16s-1-11.5-3.9-16
						c-2.8-4.4-6.4-5.8-9-5.8C613.7,220.7,610.1,222.1,607.3,226.6z"/>
					<path class="st7" d="M616.4,271.5c-2.7,0-9.6-0.8-15-8.7l0,0c-3.7-5.3-5.6-12.4-5.6-20.3c0-8,1.9-15,5.6-20.3
						c5.4-7.8,12.3-8.7,15-8.7c2.7,0,9.6,0.8,15,8.7c3.7,5.3,5.6,12.4,5.6,20.3c0,8-1.9,15-5.6,20.3
						C626,270.7,619.1,271.5,616.4,271.5z M604.5,260.7c4.4,6.4,9.8,7,11.9,7c2.1,0,7.5-0.7,11.9-7c3.2-4.7,4.9-11,4.9-18.2
						c0-7.2-1.7-13.5-4.9-18.2c-4.4-6.4-9.8-7-11.9-7c-2.1,0-7.5,0.7-11.9,7c-3.2,4.7-4.9,11-4.9,18.2
						C599.6,249.7,601.3,256,604.5,260.7L604.5,260.7z M616.4,266.2c-1.9,0-6.9-0.7-10.7-6.7c-3.4-5.4-4.1-12.2-4.1-17
						c0-4.7,0.7-11.5,4.1-17c3.8-6.1,8.7-6.7,10.6-6.7c1.9,0,6.9,0.7,10.7,6.7c3.4,5.4,4.1,12.2,4.1,17s-0.7,11.6-4.1,17
						C623.3,265.5,618.3,266.2,616.4,266.2z M616.4,222.6c-1.3,0-4.7,0.5-7.4,4.9l0,0c-2.3,3.6-3.6,9-3.6,15s1.3,11.3,3.6,15
						c2.8,4.5,6.1,4.9,7.4,4.9s4.7-0.5,7.4-4.9c2.3-3.6,3.6-9,3.6-15s-1.3-11.3-3.6-15C621,223.1,617.7,222.6,616.4,222.6z"/>
				</g>
			</g>
		</g>
	</g>
	<g>
		<line class="st14" x1="105.4" y1="654.7" x2="799" y2="654.7"/>
		<line class="st15" x1="206.2" y1="654.7" x2="206.2" y2="639.3"/>
		<line class="st15" x1="304.9" y1="654.7" x2="304.9" y2="639.3"/>
		<line class="st15" x1="403.7" y1="654.7" x2="403.7" y2="639.3"/>
		<line class="st15" x1="502.4" y1="654.7" x2="502.4" y2="639.3"/>
		<line class="st15" x1="601.1" y1="654.7" x2="601.1" y2="639.3"/>
		<line class="st15" x1="699.8" y1="654.7" x2="699.8" y2="639.3"/>
		<line class="st15" x1="798.5" y1="659" x2="798.5" y2="639.3"/>
		<line class="st14" x1="107.4" y1="654" x2="107.4" y2="108"/>
	</g>
</g>
<g id="ガイド">
</g>
</svg>
