<?xml version="1.0" encoding="utf-8"?>
<!-- Generator: Adobe Illustrator 22.1.0, SVG Export Plug-In . SVG Version: 6.00 Build 0)  -->
<svg version="1.1" id="レイヤー_1" xmlns="http://www.w3.org/2000/svg" xmlns:xlink="http://www.w3.org/1999/xlink" x="0px"
	 y="0px" viewBox="0 0 900 750" style="enable-background:new 0 0 900 750;" xml:space="preserve">
<style type="text/css">
	.st0{display:none;}
	.st1{display:inline;}
	.st2{fill:#FCFCFC;}
	.st3{fill:#525252;}
	.st4{fill:#E67E22;}
	.st5{fill:#F1C40F;}
	.st6{fill:#3498DB;}
	.st7{fill:#9B59B6;}
	.st8{fill:#FF9797;}
	.st9{fill:#F96C4B;}
	.st10{fill:#FFB948;}
	.st11{opacity:0.38;}
	.st12{fill:#636363;}
	.st13{fill:#E56D4C;}
	.st14{fill:#B7B7B7;}
	.st15{fill:#4C4C4C;}
</style>
<g id="レイヤー_3" class="st0">
	<g class="st1">
		<rect x="1" y="1" class="st2" width="900" height="750"/>
	</g>
</g>
<g id="グラフ">
	<g id="装飾">
	</g>
	<path class="st3" d="M-399,1460"/>
	<g>
		<g>
			<path class="st4" d="M640.7,136.5C589.8,93.7,524.1,68,452.4,68v293l289-48.4C729.2,243.3,692.4,179.9,640.7,136.5z"/>
		</g>
	</g>
	<g>
		<g>
			<path class="st5" d="M477.8,69c-19.7-1.7-39.5-1.4-59.1,0.8l0,0c-0.3,0-0.6,0.1-1,0.1c-1.7,0.2-3.5,0.4-5.2,0.7
				c-0.1,0-0.2,0-0.2,0c-37.2,5.1-73.6,17.3-107,36.7c-0.2,0.1-0.4,0.2-0.6,0.3c-1.5,0.9-3,1.8-4.5,2.7c-1.5,0.9-2.9,1.8-4.4,2.7
				c-0.2,0.1-0.5,0.3-0.7,0.4c-20.1,12.8-38.8,28.1-55.6,45.9l212.9,201.4L477.8,69z"/>
		</g>
		<g>
			<g>
				<g>
					<path class="st5" d="M477.8,69c0,0,30.4,87.2-16.4,184.9L430,158L477.8,69z"/>
				</g>
			</g>
		</g>
	</g>
	<g>
		<g>
			<g>
				<g>
					<path class="st6" d="M264,136.5c0,0,83.1,40.1,119.2,142.4l-90-45.7L264,136.5z"/>
				</g>
			</g>
		</g>
		<g>
			<path class="st6" d="M264,136.5c-15.1,12.7-28.9,26.9-41.2,42.4l0,0c-0.2,0.3-0.4,0.5-0.6,0.8c-1.1,1.4-2.2,2.8-3.2,4.2
				c0,0.1-0.1,0.1-0.1,0.2c-22.7,29.9-39.8,64.3-49.7,101.7c-0.1,0.2-0.1,0.4-0.2,0.6c-0.4,1.7-0.9,3.4-1.3,5.1
				c-0.4,1.7-0.8,3.4-1.2,5c-0.1,0.3-0.1,0.5-0.2,0.8c-5.2,23.2-7.6,47.3-6.9,71.8l292.9-8.1L264,136.5z"/>
		</g>
	</g>
	<g>
		<g>
			<path class="st7" d="M160.5,335.4c-1.7,19.7-1.4,39.5,0.8,59.1l0,0c0,0.3,0.1,0.6,0.1,1c0.2,1.7,0.4,3.5,0.7,5.2
				c0,0.1,0,0.2,0,0.2c5.1,37.2,17.3,73.6,36.7,107c0.1,0.2,0.2,0.4,0.3,0.6c0.9,1.5,1.8,3,2.7,4.5c0.9,1.5,1.8,2.9,2.7,4.4
				c0.1,0.2,0.3,0.5,0.4,0.7c12.8,20.1,28.1,38.8,45.9,55.6L452.4,361L160.5,335.4z"/>
		</g>
		<g>
			<g>
				<g>
					<path class="st7" d="M160.5,335.4c0,0,87.2-30.4,184.9,16.4l-95.9,31.4L160.5,335.4z"/>
				</g>
			</g>
		</g>
	</g>
	<g>
		<g>
			<path class="st8" d="M227.9,549.3c12.7,15.1,26.9,28.9,42.4,41.2l0,0c0.3,0.2,0.5,0.4,0.8,0.6c1.4,1.1,2.8,2.2,4.2,3.2
				c0.1,0,0.1,0.1,0.2,0.1c29.9,22.7,64.3,39.8,101.7,49.7c0.2,0.1,0.4,0.1,0.6,0.2c1.7,0.4,3.4,0.9,5.1,1.3c1.7,0.4,3.4,0.8,5,1.2
				c0.3,0.1,0.5,0.1,0.8,0.2c23.2,5.2,47.3,7.6,71.8,6.9L452.4,361L227.9,549.3z"/>
		</g>
		<g>
			<g>
				<g>
					<path class="st8" d="M227.9,549.3c0,0,40.1-83.1,142.4-119.2l-45.7,90L227.9,549.3z"/>
				</g>
			</g>
		</g>
	</g>
	<g>
		<g>
			<path class="st9" d="M426.8,652.8c19.7,1.7,39.5,1.4,59.1-0.8l0,0c0.3,0,0.6-0.1,1-0.1c1.7-0.2,3.5-0.4,5.2-0.7
				c0.1,0,0.2,0,0.2,0c37.2-5.1,73.6-17.3,107-36.7c0.2-0.1,0.4-0.2,0.6-0.3c1.5-0.9,3-1.8,4.5-2.7s2.9-1.8,4.4-2.7
				c0.2-0.1,0.5-0.3,0.7-0.4c20.1-12.8,38.8-28.1,55.6-45.9L452.4,361L426.8,652.8z"/>
		</g>
		<g>
			<g>
				<g>
					<path class="st9" d="M426.8,652.8c0,0-30.4-87.2,16.4-184.9l31.4,95.9L426.8,652.8z"/>
				</g>
			</g>
		</g>
	</g>
	<g>
		<g>
			<path class="st10" d="M665.2,562.3c13.3-14.6,28.9-34.8,39-51.8l0,0c0.2-0.3,0.3-0.6,0.5-0.8c0.9-1.5,1.8-3,2.6-4.5
				c0-0.1,0.1-0.1,0.1-0.2c18.5-32.7,30.8-69.1,35.6-107.4c0-0.2,0.1-0.4,0.1-0.7c0.2-1.7,0.4-3.5,0.6-5.2c0.2-1.7,0.3-3.4,0.5-5.2
				c0-0.3,0.1-0.5,0.1-0.8c2-23.7,1.2-47.9-2.8-72.1L452.4,361L665.2,562.3z"/>
		</g>
		<g>
			<g>
				<g>
					<path class="st10" d="M665.2,562.3c0,0-83.9-32.8-133.3-129.3l95.3,33.2L665.2,562.3z"/>
				</g>
			</g>
		</g>
	</g>
	<g>
		<g>
			<g>
				<path class="st4" d="M741.4,312.5c0,0-83.2,53.1-195.2,26.6l92.4-54.2L741.4,312.5z"/>
			</g>
		</g>
	</g>
	<g>
		<g class="st11">
			<g>
				<g>
					<g>
						<circle class="st2" cx="452.4" cy="361" r="124.3"/>
					</g>
				</g>
			</g>
		</g>
		<g>
			<g>
				<g>
					<circle class="st2" cx="452.4" cy="361" r="111.3"/>
				</g>
			</g>
		</g>
		<g>
			<g>
				<g>
					<path class="st12" d="M399.4,343.6c0-1.3,0.6-2,1.8-2c1.2,0,1.8,0.7,1.8,2v15.8h12.5c1,0,1.6-0.5,1.6-1.6v-10.6
						c0-1.3,0.6-2,1.8-2c1.2,0,1.8,0.7,1.8,2v11.7c0,0.8-0.3,1.5-1,2.2s-1.4,1-2.2,1H403v19.8h13.9c1,0,1.6-0.5,1.6-1.6V368
						c0-1.3,0.6-2,1.8-2c1.2,0,1.8,0.7,1.8,2v13.5c0,0.8-0.3,1.5-1,2.2s-1.4,1-2.2,1h-35.2c-0.8,0-1.5-0.3-2.2-1s-1-1.4-1-2.2V368
						c0-1.3,0.6-2,1.8-2s1.8,0.7,1.8,2v12.3c0,1,0.5,1.6,1.6,1.6h13.9v-19.8h-14.5c-0.8,0-1.5-0.3-2.2-1s-1-1.4-1-2.2v-11.7
						c0-1.3,0.6-2,1.8-2c1.2,0,1.8,0.7,1.8,2v10.6c0,1,0.5,1.6,1.6,1.6h12.5v-15.8H399.4z"/>
				</g>
			</g>
			<g>
				<g>
					<path class="st12" d="M447.3,345.4c1-1.2,2-2.4,2.9-3.7c0.8-1,1.7-1.4,2.7-1c0.9,0.7,1,1.5,0.4,2.5c-0.5,0.7-1.2,1.4-2,2.2
						h12.9c0.8,0,1.5,0.3,2.2,1c0.6,0.7,1,1.4,1,2.2v18.2c1.3-0.8,2.5-1.6,3.7-2.3c1-0.7,1.9-0.6,2.5,0.2c0.8,1,0.5,2-1,2.9
						c-1.8,1.2-3.6,2.2-5.3,2.9v11.1c0,3.1-2.3,4.7-7,4.7c-5.2,0-9.6-0.5-13.1-1.6c-1.2-0.3-1.7-0.8-1.6-1.8c0.3-0.8,0.8-1.1,1.8-1
						c3.6,0.8,7.8,1.2,12.5,1.2c3.1,0,4.7-1,4.7-2.9v-8.4c-10.6,5-21.6,8.5-33.2,10.8c-1.6,0.3-2.4-0.3-2.5-1.6
						c0-0.8,0.6-1.3,1.8-1.6c12.1-2.3,23.1-5.8,32.9-10.4l-32.5,1.4c-1.2,0-1.8-0.5-1.8-1.6c0-1,0.6-1.6,1.8-1.6h4.5v-18.8
						c0-0.8,0.3-1.5,1-2.2s1.4-1,2.2-1h8.5V345.4z M438.3,349.7v2.7h26.4v-2.7c0-1-0.5-1.6-1.6-1.6h-23.3
						C438.8,348.1,438.3,348.6,438.3,349.7z M438.3,359.4h26.4v-4.3h-26.4V359.4z M438.3,367.3l26.4-0.8v-4.3h-26.4V367.3z"/>
				</g>
			</g>
			<g>
				<g>
					<path class="st12" d="M485,344c0-1,0.5-1.6,1.4-1.6s1.4,0.5,1.4,1.6v8.4h4.7c1,0,1.6,0.5,1.6,1.4s-0.5,1.4-1.6,1.4h-4.7v22.3
						l4.7-1.6c0.8-0.3,1.4-0.1,1.8,0.4c0.4,0.8,0.2,1.4-0.6,2c-3.5,1.7-7.7,3.2-12.5,4.5c-1.4,0.3-2.2-0.1-2.3-1.2
						c-0.1-0.9,0.3-1.5,1.2-1.8l5.1-1.6v-23.1h-4.9c-1,0-1.6-0.5-1.6-1.4s0.5-1.4,1.6-1.4h4.9V344H485z M508.1,342.4
						c0-1,0.5-1.6,1.4-1.6s1.4,0.5,1.4,1.6v10l8.2-2.9c1.2-0.1,2.1,0.1,2.7,0.8c0.5,0.7,0.8,1.6,0.8,2.9v11.9c0,4.8-1.7,7.4-5.1,7.6
						c-2,0-4.2-0.5-6.7-1.6v2.3c0,1-0.5,1.6-1.4,1.6s-1.4-0.5-1.4-1.6v-17.2l-8,2.7v20.5c0,1.7,0.8,2.5,2.5,2.5h12.7
						c3.6,0,5.5-1.8,5.5-5.5v-1.8c0-0.9,0.5-1.4,1.4-1.6c0.9,0,1.4,0.5,1.4,1.6v2.9c0,4.7-2.3,7-7,7h-15.1c-2.7,0-4.1-1.4-4.1-4.1
						V360l-3.9,1.4c-0.8,0.1-1.2-0.2-1.4-1c-0.1-0.8,0.2-1.3,1-1.6l4.3-1.6v-11c0-1,0.5-1.6,1.4-1.6s1.4,0.5,1.4,1.6v10l8-2.9
						L508.1,342.4L508.1,342.4z M510.9,368.6c2.1,0.8,4.1,1.2,6.1,1.2c2-0.1,2.9-1.9,2.9-5.3v-9.8c0-0.9-0.2-1.6-0.6-2
						c-0.3-0.3-0.7-0.3-1.4,0l-7,2.5L510.9,368.6L510.9,368.6z"/>
				</g>
			</g>
		</g>
	</g>
	<g>
		<g>
			<g>
				<g>
					<g>
						<g>
							<g>
								<circle class="st2" cx="264" cy="381.5" r="6.2"/>
							</g>
						</g>
					</g>
					<g>
						<g>
							<g>
								<path class="st2" d="M280.2,410l-6.1-17.4c-0.1-0.4-0.3-0.7-0.6-1c-0.3-0.4-0.6-0.7-1-0.9c-2.3-0.9-8.5-1.2-8.5-1.2
									s-6.2,0.3-8.5,1.2c-0.4,0.2-0.8,0.5-1,0.9c-0.2,0.3-0.5,0.6-0.6,1l-6.1,17.4c-0.5,1.5,0.2,3.2,1.6,3.8
									c1.4,0.6,3-0.2,3.5-1.7l3.7-10.6V436c0,1.9,1.5,3.5,3.2,3.5c1.8,0,3.2-1.6,3.2-3.5v-20.7c0.1-0.4,0.4-0.9,1-0.9
									s0.8,0.5,1,0.9V436c0,1.9,1.5,3.5,3.2,3.5c1.8,0,3.2-1.6,3.2-3.5v-34.5l3.7,10.6c0.5,1.5,2.1,2.3,3.5,1.7l0,0
									C280,413.2,280.7,411.5,280.2,410z"/>
							</g>
						</g>
					</g>
				</g>
			</g>
		</g>
	</g>
	<g>
		<g>
			<g>
				<g>
					<g>
						<g>
							<circle class="st2" cx="560" cy="201" r="6.2"/>
						</g>
					</g>
				</g>
				<g>
					<g>
						<g>
							<path class="st2" d="M576.2,228.2l-6.1-16.1c-0.1-0.4-0.3-0.7-0.6-0.9c-0.3-0.4-0.6-0.6-1-0.8c-2.3-0.8-8.5-1.1-8.5-1.1
								s-6.2,0.2-8.5,1.1c-0.4,0.2-0.8,0.4-1,0.8c-0.2,0.3-0.5,0.6-0.6,0.9l-6.1,16.1c-0.5,1.4,0.2,3,1.6,3.5c1.4,0.5,3-0.2,3.5-1.6
								l3.7-9.8v31.9c0,1.8,1.5,3.2,3.2,3.2s3.2-1.5,3.2-3.2V233c0.1-0.4,0.4-0.8,1-0.8s0.8,0.4,1,0.8v19.2c0,1.8,1.5,3.2,3.2,3.2
								c1.8,0,3.2-1.5,3.2-3.2v-31.9l3.7,9.8c0.5,1.4,2.1,2.1,3.5,1.6l0,0C576,231.2,576.7,229.6,576.2,228.2z"/>
						</g>
					</g>
				</g>
			</g>
		</g>
		<g>
			<g>
				<g>
					<g>
						<g>
							<g>
								<circle class="st2" cx="579.9" cy="222.2" r="2.2"/>
							</g>
						</g>
					</g>
					<g>
						<g>
							<g>
								<path class="st2" d="M582.2,233.2l-0.2-6.1c0-0.1,0-0.3-0.1-0.4c0-0.1-0.1-0.3-0.3-0.4c-0.7-0.5-2.7-1.3-2.7-1.3
									s-2.1-0.6-3-0.6c-0.2,0-0.3,0.1-0.4,0.2c-0.1,0.1-0.2,0.1-0.3,0.2l-3.9,4.8c-0.3,0.4-0.3,1,0.1,1.4c0.4,0.3,1,0.3,1.4-0.1
									l2.4-2.9l-3.7,10.8c-0.2,0.6,0.1,1.3,0.7,1.5c0.6,0.2,1.3-0.1,1.5-0.7l2.2-6.5c0.1-0.1,0.2-0.2,0.4-0.2
									c0.2,0.1,0.2,0.2,0.2,0.4l-2.2,6.5c-0.2,0.6,0.1,1.3,0.7,1.5c0.6,0.2,1.3-0.1,1.5-0.7l3.7-10.8l0.1,3.7c0,0.5,0.5,0.9,1,0.9
									l0,0C581.8,234.2,582.2,233.7,582.2,233.2z"/>
							</g>
						</g>
					</g>
				</g>
			</g>
			<g>
				<g>
					<g>
						<polygon class="st2" points="575.5,227.9 571.8,234.2 579.2,236.7 579.8,229.4 						"/>
					</g>
				</g>
			</g>
		</g>
	</g>
	<g>
		<g>
			<g>
				<g>
					<g>
						<g>
							<g>
								<circle class="st2" cx="275.6" cy="231.5" r="6.2"/>
							</g>
						</g>
					</g>
					<g>
						<g>
							<g>
								<path class="st2" d="M291.8,258.7l-6.1-16.1c-0.1-0.4-0.3-0.7-0.6-0.9c-0.3-0.4-0.6-0.6-1-0.8c-2.3-0.8-8.5-1.1-8.5-1.1
									s-6.2,0.2-8.5,1.1c-0.4,0.2-0.8,0.4-1,0.8c-0.2,0.3-0.5,0.6-0.6,0.9l-6.1,16.1c-0.5,1.4,0.2,3,1.6,3.5s3-0.2,3.5-1.6
									l3.7-9.8v31.9c0,1.8,1.5,3.2,3.2,3.2c1.8,0,3.2-1.5,3.2-3.2v-19.2c0.1-0.4,0.4-0.8,1-0.8s0.8,0.4,1,0.8v19.2
									c0,1.8,1.5,3.2,3.2,3.2c1.8,0,3.2-1.5,3.2-3.2v-31.9l3.7,9.8c0.5,1.4,2.1,2.1,3.5,1.6l0,0
									C291.6,261.7,292.3,260.1,291.8,258.7z"/>
							</g>
						</g>
					</g>
				</g>
			</g>
			<g>
				<g>
					<g>
						<polygon class="st2" points="269,250.8 265,270.8 287,270.8 282,250.8 						"/>
					</g>
				</g>
			</g>
		</g>
		<g>
			<g>
				<g>
					<path class="st2" d="M275.3,224.5L275.3,224.5L275.3,224.5h-0.1l0,0l0,0c-0.9,0-7,0.6-6.4,8l0,0c0,0,0.2,4.5-2.5,2.8
						c0,0,0.4,0.8,1.2,1.5l0,0c0.2,0.2,0.4,0.3,0.7,0.5c0.1,0.1,0.2,0.1,0.3,0.2c0.1,0.1,0.2,0.1,0.3,0.1c0.1,0,0.1,0.1,0.2,0.1
						s0.2,0.1,0.3,0.1c1,0.3,2.3,0.3,3.9-0.5c2-1.1,2.2-8.4,2.2-11.4l0,0c0,0.4,0,0.9,0,1.4v-2.8H275.3z"/>
				</g>
			</g>
		</g>
		<g>
			<g>
				<g>
					<path class="st2" d="M275.3,224.5L275.3,224.5L275.3,224.5h0.1l0,0l0,0c0.9,0,7,0.6,6.4,8l0,0c0,0-0.2,4.5,2.5,2.8
						c0,0-0.4,0.8-1.2,1.5l0,0c-0.2,0.2-0.4,0.3-0.7,0.5c-0.1,0.1-0.2,0.1-0.3,0.2c-0.1,0.1-0.2,0.1-0.3,0.1c-0.1,0-0.1,0.1-0.2,0.1
						s-0.2,0.1-0.3,0.1c-1,0.3-2.3,0.3-3.9-0.5c-2-1.1-2.2-8.4-2.2-11.4l0,0c0,0.4,0,0.9,0,1.4v-2.8H275.3z"/>
				</g>
			</g>
		</g>
		<g>
			<g>
				<g>
					<g>
						<path class="st6" d="M272.8,233.6c-1.3,0-2.2-0.6-2.2-1.4c0-0.8,0.9-1.4,2.2-1.4s2.2,0.6,2.2,1.4S274.1,233.6,272.8,233.6z
							 M272.8,231.6c-0.9,0-1.4,0.4-1.4,0.6s0.6,0.6,1.4,0.6s1.4-0.4,1.4-0.6S273.7,231.6,272.8,231.6z"/>
					</g>
				</g>
			</g>
			<g>
				<g>
					<g>
						<path class="st6" d="M277.8,233.6c-1.3,0-2.2-0.6-2.2-1.4c0-0.8,0.9-1.4,2.2-1.4s2.2,0.6,2.2,1.4S279.1,233.6,277.8,233.6z
							 M277.8,231.6c-0.9,0-1.4,0.4-1.4,0.6s0.6,0.6,1.4,0.6s1.4-0.4,1.4-0.6S278.7,231.6,277.8,231.6z"/>
					</g>
				</g>
			</g>
			<g>
				<g>
					<g>
						<rect x="274.7" y="231.8" class="st6" width="1.3" height="0.8"/>
					</g>
				</g>
			</g>
		</g>
	</g>
	<g>
		<g>
			<g>
				<g>
					<g>
						<g>
							<g>
								<circle class="st2" cx="641.4" cy="201.8" r="6.2"/>
							</g>
						</g>
					</g>
					<g>
						<g>
							<g>
								<path class="st2" d="M657.6,229l-6.1-16.1c-0.1-0.4-0.3-0.7-0.6-0.9c-0.3-0.4-0.6-0.6-1-0.8c-2.3-0.8-8.5-1.1-8.5-1.1
									s-6.2,0.2-8.5,1.1c-0.4,0.2-0.8,0.4-1,0.8c-0.2,0.3-0.5,0.6-0.6,0.9l-6.1,16.1c-0.5,1.4,0.2,3,1.6,3.5
									c1.4,0.5,3-0.2,3.5-1.6l3.7-9.8V253c0,1.8,1.5,3.2,3.2,3.2c1.8,0,3.2-1.5,3.2-3.2v-19.2c0.1-0.4,0.4-0.8,1-0.8
									s0.8,0.4,1,0.8V253c0,1.8,1.5,3.2,3.2,3.2c1.8,0,3.2-1.5,3.2-3.2v-31.9l3.7,9.8c0.5,1.4,2.1,2.1,3.5,1.6l0,0
									C657.4,232,658.1,230.4,657.6,229z"/>
							</g>
						</g>
					</g>
				</g>
			</g>
		</g>
		<g>
			<g>
				<g>
					<g>
						<g>
							<path class="st13" d="M639,203.7c-1.3,0-2.2-0.6-2.2-1.4s0.9-1.4,2.2-1.4s2.2,0.6,2.2,1.4S640.2,203.7,639,203.7z M639,201.7
								c-0.9,0-1.4,0.4-1.4,0.6s0.6,0.6,1.4,0.6s1.4-0.4,1.4-0.6S639.9,201.7,639,201.7z"/>
						</g>
					</g>
				</g>
			</g>
			<g>
				<g>
					<g>
						<g>
							<path class="st13" d="M644,203.7c-1.3,0-2.2-0.6-2.2-1.4s0.9-1.4,2.2-1.4s2.2,0.6,2.2,1.4S645.2,203.7,644,203.7z M644,201.7
								c-0.9,0-1.4,0.4-1.4,0.6s0.6,0.6,1.4,0.6s1.4-0.4,1.4-0.6S644.9,201.7,644,201.7z"/>
						</g>
					</g>
				</g>
			</g>
			<g>
				<g>
					<g>
						<g>
							<rect x="640.8" y="202" class="st13" width="1.3" height="0.8"/>
						</g>
					</g>
				</g>
			</g>
		</g>
	</g>
	<g>
		<g>
			<g>
				<g>
					<path class="st2" d="M661.6,431.9l-6.1-16.1c-0.1-0.4-0.3-0.7-0.6-0.9c-0.3-0.4-0.6-0.6-1-0.8c-2.3-0.8-8.5-1.1-8.5-1.1
						s-6.2,0.2-8.5,1.1c-0.4,0.2-0.8,0.4-1,0.8c-0.2,0.3-0.5,0.6-0.6,0.9l-6.1,16.1c-0.5,1.4,0.2,3,1.6,3.5c1.4,0.5,3-0.2,3.5-1.6
						l3.7-9.8v31.9c0,1.8,1.5,3.2,3.2,3.2c1.8,0,3.2-1.5,3.2-3.2v-19.2c0.1-0.4,0.4-0.8,1-0.8s0.8,0.4,1,0.8v19.2
						c0,1.8,1.5,3.2,3.2,3.2s3.2-1.5,3.2-3.2V424l3.7,9.8c0.5,1.4,2.1,2.1,3.5,1.6l0,0C661.4,434.9,662.1,433.3,661.6,431.9z"/>
				</g>
			</g>
		</g>
		<g>
			<g>
				<g>
					<g>
						<path class="st2" d="M647.9,404.7c-0.9,0-1.4,0.4-1.4,0.6s0.6,0.6,1.4,0.6s1.4-0.4,1.4-0.6S648.8,404.7,647.9,404.7z"/>
					</g>
				</g>
			</g>
			<g>
				<g>
					<g>
						<path class="st2" d="M645.4,398.5c-3.4,0-6.2,2.8-6.2,6.2c0,3.4,2.8,6.2,6.2,6.2s6.2-2.8,6.2-6.2
							C651.6,401.3,648.9,398.5,645.4,398.5z M647.9,406.7c-1,0-1.9-0.4-2.1-1H645c-0.2,0.6-1.1,1-2.1,1c-1.3,0-2.2-0.6-2.2-1.4
							s0.9-1.4,2.2-1.4c1,0,1.9,0.4,2.1,1h0.8c0.2-0.6,1.1-1,2.1-1c1.3,0,2.2,0.6,2.2,1.4S649.2,406.7,647.9,406.7z"/>
					</g>
				</g>
			</g>
			<g>
				<g>
					<g>
						<path class="st2" d="M643,404.7c-0.9,0-1.4,0.4-1.4,0.6s0.6,0.6,1.4,0.6s1.4-0.4,1.4-0.6S643.8,404.7,643,404.7z"/>
					</g>
				</g>
			</g>
		</g>
	</g>
	<g>
		<g>
			<g>
				<g>
					<g>
						<g>
							<g>
								<circle class="st2" cx="603.1" cy="201.3" r="6.2"/>
							</g>
						</g>
					</g>
					<g>
						<g>
							<g>
								<path class="st2" d="M619.3,228.4l-6.1-16.1c-0.1-0.4-0.3-0.7-0.6-0.9c-0.3-0.4-0.6-0.6-1-0.8c-2.3-0.8-8.5-1.1-8.5-1.1
									s-6.2,0.2-8.5,1.1c-0.4,0.2-0.8,0.4-1,0.8c-0.2,0.3-0.5,0.6-0.6,0.9l-6.1,16.1c-0.5,1.4,0.2,3,1.6,3.5
									c1.4,0.5,3-0.2,3.5-1.6l3.7-9.8v31.9c0,1.8,1.5,3.2,3.2,3.2c1.8,0,3.2-1.5,3.2-3.2v-19.2c0.1-0.4,0.4-0.8,1-0.8
									s0.8,0.4,1,0.8v19.2c0,1.8,1.5,3.2,3.2,3.2c1.8,0,3.2-1.5,3.2-3.2v-31.9l3.7,9.8c0.5,1.4,2.1,2.1,3.5,1.6l0,0
									C619.1,231.4,619.8,229.8,619.3,228.4z"/>
							</g>
						</g>
					</g>
				</g>
			</g>
			<g>
				<g>
					<g>
						<polygon class="st2" points="596.5,220.5 592.5,240.5 614.5,240.5 609.5,220.5 						"/>
					</g>
				</g>
			</g>
		</g>
		<g>
			<g>
				<g>
					<path class="st2" d="M602.8,194.2L602.8,194.2L602.8,194.2L602.8,194.2L602.8,194.2L602.8,194.2c-1,0-7.1,0.6-6.5,8l0,0
						c0,0,0.2,4.5-2.5,2.8c0,0,0.4,0.8,1.2,1.5l0,0c0.2,0.2,0.4,0.3,0.7,0.5c0.1,0.1,0.2,0.1,0.3,0.2c0.1,0.1,0.2,0.1,0.3,0.1
						s0.1,0.1,0.2,0.1c0.1,0,0.2,0.1,0.3,0.1c1,0.3,2.3,0.3,3.9-0.5c2-1.1,2.2-8.4,2.2-11.4l0,0c0,0.4,0,0.9,0,1.4v-2.8H602.8z"/>
				</g>
			</g>
		</g>
		<g>
			<g>
				<g>
					<path class="st2" d="M602.8,194.2L602.8,194.2L602.8,194.2L602.8,194.2L602.8,194.2L602.8,194.2c1,0,7.1,0.6,6.5,8l0,0
						c0,0-0.2,4.5,2.5,2.8c0,0-0.4,0.8-1.2,1.5l0,0c-0.2,0.2-0.4,0.3-0.7,0.5c-0.1,0.1-0.2,0.1-0.3,0.2c-0.1,0.1-0.2,0.1-0.3,0.1
						s-0.1,0.1-0.2,0.1c-0.1,0-0.2,0.1-0.3,0.1c-1,0.3-2.3,0.3-3.9-0.5c-2-1.1-2.2-8.4-2.2-11.4l0,0c0,0.4,0,0.9,0,1.4v-2.8H602.8z"
						/>
				</g>
			</g>
		</g>
	</g>
	<g>
		<g>
			<g>
				<g>
					<g>
						<g>
							<g>
								<circle class="st2" cx="344.2" cy="515.4" r="6.2"/>
							</g>
						</g>
					</g>
					<g>
						<g>
							<g>
								<path class="st2" d="M360.4,542.6l-6.1-16.1c-0.1-0.4-0.3-0.7-0.6-0.9c-0.3-0.4-0.6-0.6-1-0.8c-2.3-0.8-8.5-1.1-8.5-1.1
									s-6.2,0.2-8.5,1.1c-0.4,0.2-0.8,0.4-1,0.8c-0.2,0.3-0.5,0.6-0.6,0.9l-6.1,16.1c-0.5,1.4,0.2,3,1.6,3.5s3-0.2,3.5-1.6
									l3.7-9.8v31.9c0,1.8,1.5,3.2,3.2,3.2c1.8,0,3.2-1.5,3.2-3.2v-19.2c0.1-0.4,0.4-0.8,1-0.8s0.8,0.4,1,0.8v19.2
									c0,1.8,1.5,3.2,3.2,3.2c1.8,0,3.2-1.5,3.2-3.2v-31.9l3.7,9.8c0.5,1.4,2.1,2.1,3.5,1.6l0,0
									C360.2,545.5,360.9,543.9,360.4,542.6z"/>
							</g>
						</g>
					</g>
				</g>
			</g>
			<g>
				<g>
					<g>
						<polygon class="st2" points="337.6,534.6 333.6,554.6 355.6,554.6 350.6,534.6 						"/>
					</g>
				</g>
			</g>
		</g>
		<g>
			<g>
				<g>
					<path class="st2" d="M339,511.9c0,0,3.8-5.1,8.7-5.7l-0.3,2.8c0,0,4.4-0.8,6.8,1.1l-4.6,2.1c0,0,2-1.2,4.6,1.9l-4.9,1.2
						c0,0,1.6-1.6,4.3,2.9l-5.8,0.9L339,511.9z"/>
				</g>
			</g>
		</g>
	</g>
	<g>
		<g>
			<g>
				<circle class="st2" cx="397.7" cy="130.5" r="2.9"/>
			</g>
		</g>
	</g>
	<g>
		<g>
			<g>
				<circle class="st2" cx="393.7" cy="130.6" r="2.9"/>
			</g>
		</g>
	</g>
	<g>
		<g>
			<g>
				<circle class="st2" cx="401" cy="130.6" r="2.9"/>
			</g>
		</g>
	</g>
	<g>
		<g>
			<g>
				<g>
					<g>
						<g>
							<g>
								<g>
									<circle class="st2" cx="515.4" cy="531" r="6.2"/>
								</g>
							</g>
						</g>
						<g>
							<g>
								<g>
									<path class="st2" d="M531.5,558.2l-6.1-16.1c-0.1-0.4-0.3-0.7-0.6-0.9c-0.3-0.4-0.6-0.6-1-0.8c-2.3-0.8-8.5-1.1-8.5-1.1
										s-6.2,0.2-8.5,1.1c-0.4,0.2-0.8,0.4-1,0.8c-0.2,0.3-0.5,0.6-0.6,0.9l-6.1,16.1c-0.5,1.4,0.2,3,1.6,3.5s3-0.2,3.5-1.6
										l3.7-9.8v31.9c0,1.8,1.5,3.2,3.2,3.2c1.8,0,3.2-1.5,3.2-3.2V563c0.1-0.4,0.4-0.8,1-0.8s0.8,0.4,1,0.8v19.2
										c0,1.8,1.5,3.2,3.2,3.2c1.8,0,3.2-1.5,3.2-3.2v-31.9l3.7,9.8c0.5,1.4,2.1,2.1,3.5,1.6l0,0
										C531.3,561.2,532.1,559.6,531.5,558.2z"/>
								</g>
							</g>
						</g>
					</g>
				</g>
			</g>
			<g>
				<g>
					<g>
						<g>
							<g>
								<path class="st13" d="M512.9,532.9c-1.3,0-2.2-0.6-2.2-1.4s0.9-1.4,2.2-1.4c1.3,0,2.2,0.6,2.2,1.4S514.2,532.9,512.9,532.9z
									 M512.9,530.9c-0.9,0-1.4,0.4-1.4,0.6s0.6,0.6,1.4,0.6s1.4-0.4,1.4-0.6S513.8,530.9,512.9,530.9z"/>
							</g>
						</g>
					</g>
				</g>
				<g>
					<g>
						<g>
							<g>
								<path class="st13" d="M517.9,532.9c-1.3,0-2.2-0.6-2.2-1.4s0.9-1.4,2.2-1.4s2.2,0.6,2.2,1.4S519.1,532.9,517.9,532.9z
									 M517.9,530.9c-0.9,0-1.4,0.4-1.4,0.6s0.6,0.6,1.4,0.6s1.4-0.4,1.4-0.6S518.8,530.9,517.9,530.9z"/>
							</g>
						</g>
					</g>
				</g>
				<g>
					<g>
						<g>
							<g>
								<rect x="514.7" y="531.2" class="st13" width="1.3" height="0.8"/>
							</g>
						</g>
					</g>
				</g>
			</g>
		</g>
		<g>
			<g>
				<g>
					<path class="st2" d="M516.1,524c0,0-3.5-1.3-6.9,2.5c-3.5,3.8-1,4.6-1,4.6v0.9h1l4.3-5.2l6.6,2.4l1.5,2v0.9
						C521.6,531.9,523.8,524.5,516.1,524z"/>
				</g>
			</g>
		</g>
	</g>
	<g>
		<g>
			<path class="st14" d="M800.8,84.2l-188.4,0.1c-1.2,0-2.1,0.8-2.1,1.7v61c0,1,0.9,1.7,2.1,1.7h19.7l-7.1,17.4l36.9-17.4h139
				c1.2,0,2.1-0.8,2.1-1.7V86C802.9,85,802,84.2,800.8,84.2z"/>
		</g>
	</g>
	<g>
		<g>
			<path class="st2" d="M795,79.3H606.5c-1.2,0-2.1,0.8-2.1,1.7v61c0,1,0.9,1.7,2.1,1.7h19.7l-7.1,17.4l36.9-17.4h139
				c1.2,0,2.1-0.8,2.1-1.7V81C797.1,80.1,796.1,79.3,795,79.3z"/>
		</g>
		<g>
			<path class="st14" d="M616.3,164.1l7.7-18.9h-17.5c-2,0-3.6-1.4-3.6-3.2V81c0-1.8,1.6-3.2,3.6-3.2H795c2,0,3.6,1.4,3.6,3.2v61
				c0,1.8-1.6,3.2-3.6,3.2H656.3L616.3,164.1z M606.5,80.8c-0.4,0-0.6,0.2-0.6,0.3v61c0,0.1,0.2,0.3,0.6,0.3h21.9l-6.5,16l33.8-16
				H795c0.4,0,0.6-0.2,0.6-0.3v-61c0-0.1-0.2-0.3-0.6-0.3H606.5z"/>
		</g>
	</g>
	<g>
		<g>
			<path class="st15" d="M637.5,97c0-0.7,0.3-1.1,1-1.1s1,0.4,1,1.1v4.5h2.8c0.9,0,1.5,0.2,1.8,0.7c0.6,0.7,0.5,1.7-0.1,3.2
				c-1.2,2.3-2.7,4.4-4.5,6.3v0.4c2.1,1.3,3.7,2.5,5.1,3.7c0.7,0.6,0.7,1.2,0.3,1.8c-0.6,0.5-1.2,0.4-1.8-0.3
				c-1.3-1.3-2.5-2.3-3.5-3.1v13.2c0,0.7-0.3,1.1-1,1.1s-1-0.4-1-1.1v-13.9c-0.9,0.9-1.8,1.7-2.7,2.4c-0.8,0.7-1.4,0.7-2,0.1
				c-0.3-0.5-0.2-0.9,0.3-1.4c3.9-3.3,6.8-6.6,8.6-10.1c0.4-0.7,0.3-1-0.1-1.1h-7.9c-0.8,0-1.1-0.3-1.1-1s0.4-1,1.1-1h3.8L637.5,97
				L637.5,97z M654.8,97.1c0-0.7,0.3-1.1,1-1.1s1,0.4,1,1.1v3.5h5.3c0.6,0,1.1,0.2,1.5,0.7c0.5,0.5,0.7,1,0.7,1.5v15.7
				c0,0.6-0.2,1.1-0.7,1.5c-0.5,0.5-1,0.7-1.5,0.7h-5.3v6.6c0,0.7-0.3,1.1-1,1.1s-1-0.4-1-1.1v-6.6h-5.6c-0.6,0-1.1-0.2-1.5-0.7
				c-0.5-0.5-0.7-1-0.7-1.5v-15.7c0-0.6,0.2-1.1,0.7-1.5c0.5-0.5,1-0.7,1.5-0.7h5.6V97.1z M648.9,103.7v6.2h5.9v-7.3H650
				C649.2,102.6,648.9,103,648.9,103.7z M648.9,117.8c0,0.8,0.4,1.1,1.1,1.1h4.8v-7h-5.9L648.9,117.8L648.9,117.8z M656.7,109.9h5.6
				v-6.2c0-0.7-0.4-1.1-1.1-1.1h-4.5V109.9z M656.7,118.9h4.5c0.7,0,1.1-0.4,1.1-1.1v-5.9h-5.6V118.9z"/>
		</g>
		<g>
			<path class="st15" d="M682.6,99.1c0.4-0.9,0.7-1.8,1-2.7c0.3-0.7,0.7-0.9,1.3-0.8c0.8,0.2,1.1,0.8,0.7,1.8
				c-0.3,0.8-0.5,1.3-0.7,1.7h14.7c0.7,0,1.1,0.3,1.1,1s-0.4,1-1.1,1H688c2.8,2.7,6.7,5,11.8,6.7c0.7,0.4,1,0.9,0.8,1.5
				c-0.3,0.7-1,0.8-2.1,0.4c-5.9-2.3-10.2-5.2-12.9-8.7H684c-2.5,4-7.1,7-13.6,9c-1,0.3-1.6,0-1.8-0.7c-0.1-0.6,0.3-0.9,1.1-1.1
				c5.7-1.7,9.6-4.1,11.8-7.2h-11.4c-0.8,0-1.1-0.3-1.1-1s0.4-1,1.1-1L682.6,99.1L682.6,99.1z M699.3,114.3c0.7,0,1.1,0.3,1.1,1
				s-0.4,1-1.1,1h-12.6v9.3c0,1.8-1.2,2.7-3.5,2.7c-1.8,0-3.4-0.2-4.8-0.7c-0.7-0.3-0.9-0.7-0.8-1.3c0.2-0.5,0.6-0.7,1.3-0.6
				c1.5,0.3,2.7,0.4,3.7,0.4c1.5,0,2.2-0.6,2.2-1.8v-8h-14.3c-0.8,0-1.1-0.3-1.1-1s0.4-1,1.1-1H699.3z M677.4,119
				c0.7,0.5,0.7,1.1,0.1,2c-1.7,2.1-3.7,3.8-6,5.3c-0.9,0.5-1.6,0.4-2-0.3c-0.2-0.5,0-0.9,0.6-1.4c2.2-1.6,4.1-3.4,5.6-5.3
				C676.2,118.7,676.8,118.7,677.4,119z M694.6,108.6c0.7,0,1.1,0.3,1.1,1s-0.4,1-1.1,1h-19.5c-0.8,0-1.1-0.3-1.1-1s0.4-1,1.1-1
				H694.6z M691.4,118.6c0.4-0.5,0.9-0.5,1.5-0.1c2.6,1.6,4.9,3.4,6.9,5.5c0.6,0.8,0.6,1.4,0,2c-0.8,0.5-1.5,0.4-2.1-0.3
				c-2.1-2.2-4.1-4.1-6-5.6C691.2,119.5,691.1,119.1,691.4,118.6z"/>
		</g>
		<g>
			<path class="st15" d="M709.8,97.3c0.8,0,1.3,0.5,1.3,1.4v14.7c0,4.9-1.5,9.3-4.6,13.2c-0.6,0.6-1.1,0.7-1.7,0.4
				c-0.6-0.5-0.6-1-0.1-1.7c2.6-3.7,3.9-7.9,3.9-12.4V98.7C708.5,97.7,709,97.3,709.8,97.3z M721.6,98.5c0.8,0,1.3,0.5,1.3,1.4v25
				c0,0.9-0.4,1.4-1.3,1.4c-0.8,0-1.3-0.5-1.3-1.4v-25C720.3,99,720.8,98.5,721.6,98.5z M733.5,97c0.8,0,1.3,0.5,1.3,1.4v28.1
				c0,0.9-0.4,1.4-1.3,1.4s-1.3-0.5-1.3-1.4V98.4C732.3,97.4,732.7,97,733.5,97z"/>
		</g>
		<g>
			<path class="st15" d="M741.4,101.2c0-0.7,0.3-1.1,1-1.1s1,0.4,1,1.1v15c0,0.5,0.2,0.7,0.7,0.7h27.4c0.7,0,1.1,0.3,1.1,1
				s-0.4,1-1.1,1h-13.3v8.1c0,0.9-0.4,1.4-1.3,1.4c-0.8,0-1.3-0.5-1.3-1.4v-8.1h-12.4c-1.2,0-1.8-0.6-1.8-1.8L741.4,101.2
				L741.4,101.2z M749.7,121c0.4,0.6,0.3,1.1-0.1,1.7c-2.2,2.4-4.4,4.1-6.6,4.9c-0.8,0.2-1.2,0-1.4-0.4c-0.3-0.6-0.1-1.1,0.6-1.5
				c1.7-0.9,3.5-2.5,5.5-4.6C748.4,120.4,749.1,120.4,749.7,121z M768.1,97c1.2,0,1.8,0.6,1.8,1.8v13.6c0,1.2-0.6,1.8-1.8,1.8h-18.8
				c-1.2,0-1.8-0.6-1.8-1.8V98.8c0-1.2,0.6-1.8,1.8-1.8H768.1z M749.4,99.6v2.4H768v-2.4c0-0.5-0.2-0.7-0.7-0.7h-17.1
				C749.6,98.9,749.4,99.2,749.4,99.6z M749.4,107.1H768V104h-18.5L749.4,107.1L749.4,107.1z M749.4,111.6c0,0.5,0.2,0.7,0.7,0.7
				h17.1c0.5,0,0.7-0.2,0.7-0.7v-2.5h-18.5V111.6z M764,120.6c0.4-0.5,0.8-0.6,1.4-0.3c2.9,1.6,5.1,3.2,6.5,4.8
				c0.6,0.7,0.6,1.3,0,1.8c-0.7,0.6-1.3,0.6-2,0c-2.2-2.2-4-3.8-5.6-4.9C763.8,121.5,763.7,121,764,120.6z"/>
		</g>
	</g>
	<g>
		<g>
			<g>
				<path class="st14" d="M229.7,451.6h-18.5l4.1-17.9l-21.5,17.9H74.6c-1,0-1.7,0.8-1.7,1.7V509c0,1,0.8,1.7,1.7,1.7h155
					c1,0,1.7-0.8,1.7-1.7v-55.7C231.4,452.4,230.7,451.6,229.7,451.6z"/>
			</g>
		</g>
		<g>
			<g>
				<path class="st2" d="M223.9,446.7h-18.5l4.1-17.9L188,446.7H68.8c-1,0-1.7,0.8-1.7,1.7v55.7c0,1,0.8,1.7,1.7,1.7h155
					c1,0,1.7-0.8,1.7-1.7v-55.7C225.6,447.5,224.8,446.7,223.9,446.7z"/>
			</g>
			<g>
				<path class="st14" d="M223.9,507.4h-155c-1.8,0-3.2-1.4-3.2-3.2v-55.7c0-1.8,1.4-3.2,3.2-3.2h118.6l24.4-20.3l-4.7,20.3h16.6
					c1.8,0,3.2,1.4,3.2,3.2v55.7C227.1,506,225.6,507.4,223.9,507.4z M68.8,448.2c-0.2,0-0.3,0.1-0.3,0.3v55.7
					c0,0.2,0.1,0.3,0.3,0.3h155c0.2,0,0.3-0.1,0.3-0.3v-55.7c0-0.2-0.1-0.3-0.3-0.3h-20.3l3.5-15.4l-18.6,15.4H68.8z"/>
			</g>
		</g>
		<g>
			<g>
				<path class="st15" d="M121.5,464.6c0.5,0.5,0.5,1,0,1.7c-0.7,0.9-1.4,1.7-2.1,2.4h4.4c0.6,0,1.1,0.2,1.5,0.7
					c0.5,0.5,0.7,1,0.7,1.5v3.1c0,0.8-0.3,1.1-1,1.1s-1-0.4-1-1.1v-2.7c0-0.5-0.2-0.7-0.7-0.7H96.7c-0.5,0-0.7,0.2-0.7,0.7v3.2
					c0,0.8-0.3,1.1-1,1.1s-1-0.4-1-1.1v-3.7c0-0.6,0.2-1.1,0.7-1.5c0.5-0.5,1-0.7,1.5-0.7h3.8c-0.3-0.6-0.7-1.2-1.1-2
					c-0.2-0.7,0-1.2,0.4-1.4c0.5-0.3,0.9-0.2,1.4,0.3c0.8,0.9,1.5,2,1.8,3.1h7.4c-0.5-0.8-1-1.7-1.5-2.5c-0.3-0.6-0.2-1,0.3-1.3
					c0.6-0.4,1.1-0.3,1.5,0.1c0.9,1.1,1.7,2.3,2.2,3.7h4.4c0.9-1.3,1.9-2.6,2.8-3.9C120.2,464.1,120.8,464.1,121.5,464.6z
					 M104.1,479.4c0.5,0.4,0.5,0.8,0.1,1.4l-0.4,0.7H120c0.8,0,1.3,0.4,1.3,1.3c0,0.8-0.7,1.6-2,2.7c-1.6,1.3-3.5,2.4-5.6,3.4
					c3.9,0.9,7.8,1.5,11.5,1.8c0.7,0.2,0.9,0.5,0.8,1c0,0.7-0.5,1.1-1.4,1.1c-1.5,0-3.3-0.2-5.5-0.6c-2.6-0.5-5.4-1.2-8.3-2.2
					c-5,2.2-10.2,3.1-15.7,2.8c-0.7,0-1-0.3-1-0.8c0-0.7,0.3-1,1-1c5.1,0,9.5-0.7,13.1-2.1c-3.1-1.3-5.3-2.7-6.7-4.2
					c-1.9,1.8-3.8,2.9-5.8,3.4c-0.8,0.2-1.2,0-1.4-0.6c-0.2-0.7,0.1-1.1,0.8-1.3c3.4-1.3,5.9-3.5,7.4-6.5
					C103,479.2,103.5,479.1,104.1,479.4z M123.6,461.7c0.1,0.6-0.3,0.9-1.3,1.1c-2.4,0.3-5.4,0.5-9,0.7c-5.7,0.3-11.3,0.4-16.7,0.4
					c-0.7,0-1-0.3-1-0.8c0-0.6,0.3-0.8,1-0.8c3.6,0,6.1,0,7.6-0.1c2.5-0.1,5.1-0.2,7.6-0.4c2.9-0.1,6.5-0.4,10.7-1
					C123.2,460.8,123.5,461.1,123.6,461.7z M100.3,472.6c0.5,0.2,0.6,0.7,0.4,1.4c-0.7,2.2-1.5,3.8-2.7,4.9c-0.5,0.5-1,0.5-1.5,0.1
					c-0.4-0.4-0.4-0.8-0.1-1.3c1.2-1.7,2.1-3.2,2.7-4.5C99.3,472.5,99.7,472.3,100.3,472.6z M102.7,483.5c2.7,1.9,5.4,3.3,8.1,4.2
					c2.5-0.8,5-2.2,7.4-4.2H102.7z M103.7,472.8c0-0.7,0.3-1.1,1-1.1s1,0.4,1,1.1v3.8c0,0.5,0.2,0.7,0.7,0.7h8.7
					c1,0,1.5-0.5,1.5-1.5v-1.3c0-0.7,0.3-1.1,1-1.1s1,0.4,1,1.1v2c0,1.9-0.9,2.8-2.8,2.8h-10.3c-1-0.2-1.6-0.8-1.8-1.8L103.7,472.8
					L103.7,472.8z M109.2,471.7c0.5-0.4,0.9-0.4,1.4,0c0.7,0.8,1.5,1.8,2.2,3.2c0.3,0.7,0.1,1.1-0.4,1.4c-0.6,0.3-1,0.1-1.4-0.4
					c-0.8-1.3-1.4-2.3-1.8-2.9C108.8,472.5,108.8,472.1,109.2,471.7z M120.3,472.3c0.4-0.4,0.8-0.4,1.3,0c2,2.1,3.1,3.9,3.4,5.6
					c-0.1,0.7-0.4,1-1,1.1c-0.4,0.1-0.8-0.1-1.1-0.7c-0.7-1.6-1.5-3.2-2.5-4.8C119.9,473,119.9,472.6,120.3,472.3z"/>
			</g>
			<g>
				<path class="st15" d="M134.6,461c0.7,0,1.1,0.4,1.1,1.1c-0.2,1.1-0.4,2-0.6,2.7h10.3c0.7,0,1.1,0.3,1.1,1s-0.4,1-1.1,1h-5.8v7.7
					h6.7c0.7,0,1.1,0.3,1.1,1s-0.4,1-1.1,1h-6.7l-0.3,3.1c2.8,2.8,5.1,5.4,6.9,7.9c0.5,0.8,0.4,1.5-0.1,2c-0.8,0.5-1.4,0.3-2-0.6
					c-1.8-2.6-3.5-4.9-5.2-6.7c-1.3,3.8-3.7,7.1-7,9.7c-0.8,0.5-1.3,0.5-1.7,0s-0.3-1,0.3-1.5c4.4-3.5,6.8-8.1,7.2-13.8H131
					c-0.8,0-1.1-0.3-1.1-1s0.4-1,1.1-1h6.7v-7.7h-3.1c-0.6,1.9-1.3,3.6-2.2,5.1c-0.6,0.8-1.1,0.9-1.7,0.4c-0.3-0.4-0.3-0.8,0-1.3
					c1.6-3.2,2.5-6.1,2.8-8.8C133.6,461.4,133.9,461,134.6,461z M159.3,463.4c1.2,0,1.8,0.6,1.8,1.8v24.2c0,1.2-0.6,1.8-1.8,1.8H151
					c-1.2,0-1.8-0.6-1.8-1.8v-24.2c0-1.2,0.6-1.8,1.8-1.8H159.3z M151.2,466.1v22.5c0,0.5,0.2,0.7,0.7,0.7h6.6
					c0.5,0,0.7-0.2,0.7-0.7v-22.5c0-0.5-0.2-0.7-0.7-0.7h-6.6C151.4,465.4,151.2,465.6,151.2,466.1z"/>
			</g>
			<g>
				<path class="st15" d="M166.6,466c0-0.7,0.3-1.1,1-1.1s1,0.4,1,1.1v15c0,0.5,0.2,0.7,0.7,0.7h27.4c0.7,0,1.1,0.3,1.1,1
					s-0.4,1-1.1,1h-13.3v8.1c0,0.9-0.4,1.4-1.3,1.4c-0.8,0-1.3-0.5-1.3-1.4v-8.1h-12.4c-1.2,0-1.8-0.6-1.8-1.8L166.6,466L166.6,466z
					 M174.9,485.8c0.4,0.6,0.3,1.1-0.1,1.7c-2.2,2.4-4.4,4.1-6.6,4.9c-0.8,0.2-1.2,0-1.4-0.4c-0.3-0.6-0.1-1.1,0.6-1.5
					c1.7-0.9,3.5-2.5,5.5-4.6C173.6,485.2,174.3,485.2,174.9,485.8z M193.3,461.7c1.2,0,1.8,0.6,1.8,1.8v13.6c0,1.2-0.6,1.8-1.8,1.8
					h-18.8c-1.2,0-1.8-0.6-1.8-1.8v-13.6c0-1.2,0.6-1.8,1.8-1.8H193.3z M174.6,464.4v2.4h18.5v-2.4c0-0.5-0.2-0.7-0.7-0.7h-17.1
					C174.9,463.7,174.6,463.9,174.6,464.4z M174.6,471.9h18.5v-3.1h-18.5V471.9z M174.6,476.3c0,0.5,0.2,0.7,0.7,0.7h17.1
					c0.5,0,0.7-0.2,0.7-0.7v-2.5h-18.5V476.3z M189.2,485.3c0.4-0.5,0.8-0.6,1.4-0.3c2.9,1.6,5.1,3.2,6.5,4.8c0.6,0.7,0.6,1.3,0,1.8
					c-0.7,0.6-1.3,0.6-2,0c-2.2-2.2-4-3.8-5.6-4.9C189,486.3,188.9,485.8,189.2,485.3z"/>
			</g>
		</g>
	</g>
	<g>
		<g>
			<path class="st14" d="M255.6,146.7H98.8c-1,0-1.7,0.8-1.7,1.7v57.5c0,1,0.8,1.7,1.7,1.7h113.9L229,222v-14.4h26.6
				c1,0,1.7-0.8,1.7-1.7v-57.5C257.3,147.4,256.5,146.7,255.6,146.7z"/>
		</g>
	</g>
	<g>
		<g>
			<path class="st2" d="M249.7,140.8H92.9c-1,0-1.7,0.8-1.7,1.7V200c0,1,0.8,1.7,1.7,1.7h113.9l16.3,14.4v-14.4h26.6
				c1,0,1.7-0.8,1.7-1.7v-57.5C251.5,141.6,250.7,140.8,249.7,140.8z"/>
		</g>
		<g>
			<path class="st14" d="M224.6,219.4l-18.3-16.1H92.9c-1.8,0-3.2-1.4-3.2-3.2v-57.5c0-1.8,1.4-3.2,3.2-3.2h156.8
				c1.8,0,3.2,1.4,3.2,3.2V200c0,1.8-1.4,3.2-3.2,3.2h-25.1V219.4z M92.9,142.3c-0.2,0-0.3,0.1-0.3,0.3V200c0,0.2,0.1,0.3,0.3,0.3
				h114.5l14.3,12.6v-12.6h28c0.2,0,0.3-0.1,0.3-0.3v-57.5c0-0.2-0.1-0.3-0.3-0.3H92.9V142.3z"/>
		</g>
	</g>
	<g>
		<g>
			<path class="st15" d="M126.9,157.4c0-0.7,0.3-1.1,1-1.1c0.7,0,1,0.4,1,1.1v1.7h5.6c0.7,0,1,0.3,1,0.8s-0.3,0.8-1,0.8h-5.6v2.4
				h5.2c0.7,0,1,0.3,1,0.8c0,0.6-0.3,0.8-1,0.8h-5.2v2.5h6.9c1.9-3.3,3-6.6,3.5-9.8c0.1-0.7,0.5-1,1.1-1c0.7,0,0.9,0.5,0.8,1.4h5.8
				c1.3,0,2,0.5,2,1.5c-0.1,1.3-1.1,3-2.9,5.2h2.2c0.6,0,1.1,0.2,1.5,0.7c0.5,0.5,0.7,1,0.7,1.5v4.9h1.1c0.7,0,1.1,0.3,1.1,1
				s-0.4,1-1.1,1h-1.1v5.2c0,0.6-0.2,1.1-0.7,1.5c-0.5,0.5-1,0.7-1.5,0.7h-4.4v5.1c0,1.5-0.8,2.2-2.4,2.2c-1.2,0-2.4-0.2-3.5-0.6
				c-0.6-0.3-0.8-0.7-0.7-1.1c0.1-0.6,0.5-0.8,1.3-0.6s1.6,0.3,2.2,0.3c0.7,0,1.1-0.4,1.1-1.1V181h-4.1c-0.8,0-1.1-0.3-1.1-1
				s0.4-1,1.1-1h4.1v-5.5H137c-0.8,0-1.1-0.3-1.1-1s0.4-1,1.1-1h4.9v-5.2h-3.7c-0.4,0.7-0.8,1.3-1.3,2c-0.2,0.3-0.5,0.4-0.8,0.4
				h-15.6c-0.7,0-1-0.3-1-0.8c0-0.6,0.3-0.8,1-0.8h6.3v-2.5h-5.1c-0.7,0-1-0.3-1-0.8c0-0.6,0.3-0.8,1-0.8h5.1v-2.4h-5.5
				c-0.7,0-1-0.3-1-0.8s0.3-0.8,1-0.8h5.5v-1.6H126.9z M131.7,171.6c0.6,0,1.1,0.2,1.5,0.7c0.5,0.5,0.7,1,0.7,1.5v11.9
				c0,1.8-0.8,2.7-2.5,2.8c-1.4,0.1-2.8-0.1-4.2-0.6c-0.7-0.3-0.9-0.7-0.8-1.1c0.1-0.6,0.4-0.8,1-0.7c1.2,0.3,2.2,0.4,3.1,0.4
				c1,0,1.5-0.6,1.5-1.7v-3.2h-8.1v6.2c0,0.7-0.3,1.1-1,1.1s-1-0.4-1-1.1v-14c0-0.6,0.2-1.1,0.7-1.5c0.5-0.5,1-0.7,1.5-0.7
				L131.7,171.6L131.7,171.6z M123.8,174.4v1.4h8.1v-1.4c0-0.7-0.4-1.1-1.1-1.1h-5.9C124.2,173.3,123.8,173.7,123.8,174.4z
				 M123.8,180.1h8.1v-2.5h-8.1C123.8,177.6,123.8,180.1,123.8,180.1z M139.1,164.8h4.8c1-1.3,1.9-2.6,2.5-3.9
				c0.2-0.6,0-0.8-0.6-0.8h-5.1C140.4,161.6,139.9,163.2,139.1,164.8z M143.9,171.9h4.6v-4.1c0-0.7-0.4-1.1-1.1-1.1h-3.5V171.9z
				 M143.9,179.4h3.5c0.7,0,1.1-0.4,1.1-1.1v-4.4h-4.6V179.4z"/>
		</g>
		<g>
			<path class="st15" d="M184.5,157.6c0.6,0,1.1,0.2,1.5,0.7c0.5,0.5,0.7,1,0.7,1.5v24c0,3-1.9,4.5-5.6,4.5c-2.4,0-4.5-0.2-6.2-0.7
				c-0.6-0.3-0.8-0.6-0.7-1c0.1-0.5,0.5-0.8,1.3-0.8c1.7,0.3,3.5,0.4,5.5,0.4c2.5,0,3.8-1.1,3.8-3.4v-14h-11.9v12.1h5.1
				c0.5,0,0.7-0.2,0.7-0.7v-7.3c0-0.7,0.3-1.1,1-1.1s1,0.4,1,1.1v8.1c0,1.2-0.6,1.8-1.8,1.8H165c-1.2,0-1.8-0.6-1.8-1.8v-8.1
				c0-0.7,0.3-1.1,1-1.1s1,0.4,1,1.1v7.3c0,0.5,0.2,0.7,0.7,0.7h5.2v-12.1h-11.8v18.5c0,0.7-0.3,1.1-1,1.1s-1-0.4-1-1.1v-27.5
				c0-0.6,0.2-1.1,0.7-1.5c0.5-0.5,1-0.7,1.5-0.7H184.5z M159.1,160.3v6.6h7.4c-0.7-1.3-1.5-2.6-2.4-3.9c-0.4-0.6-0.3-1.1,0.1-1.5
				c0.6-0.3,1.1-0.1,1.7,0.4c0.7,0.8,1.7,2.5,2.9,5.1h5.5c1.5-1.4,2.7-3.1,3.7-5.1c0.5-0.7,1-0.8,1.7-0.6c0.6,0.4,0.7,0.9,0.6,1.5
				c-0.5,1.2-1.5,2.6-3.2,4.1h7.7v-6.6c0-0.5-0.2-0.7-0.7-0.7h-24.3C159.3,159.6,159.1,159.8,159.1,160.3z"/>
		</g>
		<g>
			<path class="st15" d="M192.5,161.8c0-0.7,0.3-1.1,1-1.1s1,0.4,1,1.1v15c0,0.5,0.2,0.7,0.7,0.7h27.4c0.7,0,1.1,0.3,1.1,1
				s-0.4,1-1.1,1h-13.3v8.1c0,0.9-0.4,1.4-1.3,1.4c-0.8,0-1.3-0.5-1.3-1.4v-8.1h-12.4c-1.2,0-1.8-0.6-1.8-1.8L192.5,161.8
				L192.5,161.8z M200.8,181.6c0.4,0.6,0.3,1.1-0.1,1.7c-2.2,2.4-4.4,4.1-6.6,4.9c-0.8,0.2-1.2,0-1.4-0.4c-0.3-0.6-0.1-1.1,0.6-1.5
				c1.7-0.9,3.5-2.5,5.5-4.6C199.5,181,200.2,181,200.8,181.6z M219.2,157.6c1.2,0,1.8,0.6,1.8,1.8V173c0,1.2-0.6,1.8-1.8,1.8h-18.8
				c-1.2,0-1.8-0.6-1.8-1.8v-13.6c0-1.2,0.6-1.8,1.8-1.8L219.2,157.6L219.2,157.6z M200.5,160.3v2.4H219v-2.4c0-0.5-0.2-0.7-0.7-0.7
				h-17.1C200.7,159.6,200.5,159.8,200.5,160.3z M200.5,167.7H219v-3.1h-18.5V167.7z M200.5,172.2c0,0.5,0.2,0.7,0.7,0.7h17.1
				c0.5,0,0.7-0.2,0.7-0.7v-2.5h-18.5V172.2z M215.1,181.2c0.4-0.5,0.8-0.6,1.4-0.3c2.9,1.6,5.1,3.2,6.5,4.8c0.6,0.7,0.6,1.3,0,1.8
				c-0.7,0.6-1.3,0.6-2,0c-2.2-2.2-4-3.8-5.6-4.9C214.9,182.1,214.8,181.7,215.1,181.2z"/>
		</g>
	</g>
	<g>
		<g>
			<path class="st14" d="M427.5,44.6H270.8c-1,0-1.7,0.8-1.7,1.7v57.5c0,1,0.8,1.7,1.7,1.7h113.9l16.3,14.4v-14.4h26.6
				c1,0,1.7-0.8,1.7-1.7V46.3C429.3,45.4,428.5,44.6,427.5,44.6z"/>
		</g>
	</g>
	<g>
		<g>
			<path class="st2" d="M421.7,38.7H264.9c-1,0-1.7,0.8-1.7,1.7V98c0,1,0.8,1.7,1.7,1.7h113.9l16.3,14.4V99.7h26.6
				c1,0,1.7-0.8,1.7-1.7V40.5C423.4,39.5,422.7,38.7,421.7,38.7z"/>
		</g>
		<g>
			<path class="st14" d="M396.6,117.3l-18.3-16.1H264.9c-1.8,0-3.2-1.4-3.2-3.2V40.5c0-1.8,1.4-3.2,3.2-3.2h156.8
				c1.8,0,3.2,1.4,3.2,3.2V98c0,1.8-1.4,3.2-3.2,3.2h-25.1V117.3z M264.9,40.2c-0.2,0-0.3,0.1-0.3,0.3V98c0,0.2,0.1,0.3,0.3,0.3
				h114.5l14.3,12.6V98.2h28c0.2,0,0.3-0.1,0.3-0.3V40.5c0-0.2-0.1-0.3-0.3-0.3H264.9z"/>
		</g>
	</g>
	<g>
		<g>
			<path class="st15" d="M306.7,56.4c0-0.9,0.4-1.4,1.3-1.4c0.8,0,1.3,0.5,1.3,1.4v27h8.8c1.1,0,1.7-0.6,1.7-1.7V61.4
				c0-0.9,0.4-1.4,1.3-1.4c0.8,0,1.3,0.5,1.3,1.4v21.3c0,0.6-0.3,1.1-0.8,1.7c-0.6,0.6-1.1,0.8-1.7,0.8h-23.6
				c-0.6,0-1.1-0.3-1.7-0.8c-0.6-0.6-0.8-1.1-0.8-1.7V61.4c0-0.9,0.4-1.4,1.3-1.4c0.8,0,1.3,0.5,1.3,1.4v20.2c0,1.1,0.6,1.7,1.7,1.7
				h8.8V56.4H306.7z"/>
		</g>
		<g>
			<path class="st15" d="M345.5,56.2c0.7,0,1.1,0.3,1.1,1s-0.4,1-1.1,1h-2.8v9.1h3.5c0.7,0,1.1,0.3,1.1,1s-0.4,1-1.1,1h-3.5v15.9
				c0,0.9-0.4,1.4-1.3,1.4c-0.8,0-1.3-0.5-1.3-1.4V69.3h-5.8c0,2.8-0.1,5-0.3,6.5c-0.2,1.7-0.6,3.4-1.3,5.1
				c-1.1,2.6-2.2,4.4-3.1,5.3c-0.4,0.6-0.9,0.7-1.5,0.3c-0.5-0.4-0.6-0.9-0.3-1.5c1.1-1.8,2-3.4,2.7-4.9c0.5-1,0.8-2.4,1-4.2
				c0.2-1.7,0.3-3.8,0.3-6.5h-3.4c-0.8,0-1.1-0.3-1.1-1s0.4-1,1.1-1h3.4v-9.1h-2.7c-0.8,0-1.1-0.3-1.1-1s0.4-1,1.1-1h16.4V56.2z
				 M334.4,67.3h5.8v-9.1h-5.8V67.3z M359.4,73.6c0.7,0.4,0.9,1,0.6,1.8c-2.3,5-6.9,8.6-13.6,10.8c-0.7,0.1-1.1-0.2-1.4-0.8
				c-0.1-0.7,0.2-1.1,0.8-1.4c6-2.2,10-5.5,11.9-9.8C358.2,73.5,358.8,73.3,359.4,73.6z M359,64.9c0.6,0.5,0.6,1.1,0,1.8
				c-2.2,3.7-5.9,6.6-11.1,8.4c-0.7,0.2-1.2,0-1.5-0.4c-0.3-0.6-0.1-1,0.6-1.4c4.4-2,7.8-4.6,10.1-8C357.7,64.6,358.3,64.5,359,64.9
				z M358.3,55.5c0.6,0.3,0.7,0.8,0.3,1.7c-2.3,3.8-5.8,6.5-10.3,8c-0.8,0.1-1.2-0.1-1.4-0.7c-0.1-0.5,0.1-0.9,0.7-1.3
				c3.7-1.5,6.6-4,9-7.4C357.2,55.2,357.7,55.1,358.3,55.5z"/>
		</g>
		<g>
			<path class="st15" d="M364.5,59.7c0-0.7,0.3-1.1,1-1.1s1,0.4,1,1.1v15c0,0.5,0.2,0.7,0.7,0.7h27.4c0.7,0,1.1,0.3,1.1,1
				s-0.4,1-1.1,1h-13.3v8.1c0,0.9-0.4,1.4-1.3,1.4c-0.8,0-1.3-0.5-1.3-1.4v-8.1h-12.4c-1.2,0-1.8-0.6-1.8-1.8L364.5,59.7L364.5,59.7
				z M372.8,79.5c0.4,0.6,0.3,1.1-0.1,1.7c-2.2,2.4-4.4,4.1-6.6,4.9c-0.8,0.2-1.2,0-1.4-0.4c-0.3-0.6-0.1-1.1,0.6-1.5
				c1.7-0.9,3.5-2.5,5.5-4.6C371.5,79,372.2,79,372.8,79.5z M391.1,55.5c1.2,0,1.8,0.6,1.8,1.8V71c0,1.2-0.6,1.8-1.8,1.8h-18.8
				c-1.2,0-1.8-0.6-1.8-1.8V57.3c0-1.2,0.6-1.8,1.8-1.8H391.1z M372.5,58.2v2.4H391v-2.4c0-0.5-0.2-0.7-0.7-0.7h-17.1
				C372.7,57.5,372.5,57.7,372.5,58.2z M372.5,65.6H391v-3.1h-18.5V65.6z M372.5,70.1c0,0.5,0.2,0.7,0.7,0.7h17.1
				c0.5,0,0.7-0.2,0.7-0.7v-2.5h-18.5L372.5,70.1L372.5,70.1z M387.1,79.1c0.4-0.5,0.8-0.6,1.4-0.3c2.9,1.6,5.1,3.2,6.5,4.8
				c0.6,0.7,0.6,1.3,0,1.8c-0.7,0.6-1.3,0.6-2,0c-2.2-2.2-4-3.8-5.6-4.9C386.9,80,386.8,79.6,387.1,79.1z"/>
		</g>
	</g>
	<g>
		<g>
			<g>
				<path class="st14" d="M651.7,634.5H531.6l-18.9-15.2l-3.1,15.2h-13c-1,0-1.7,0.8-1.7,1.7v59.2c0,1,0.8,1.7,1.7,1.7h155
					c1,0,1.7-0.8,1.7-1.7v-59.2C653.4,635.3,652.6,634.5,651.7,634.5z"/>
			</g>
		</g>
		<g>
			<g>
				<path class="st2" d="M645.8,628.7h-120l-18.9-15.2l-3.1,15.2h-13c-1,0-1.7,0.8-1.7,1.7v59.2c0,1,0.8,1.7,1.7,1.7h155
					c1,0,1.7-0.8,1.7-1.7v-59.2C647.6,629.4,646.8,628.7,645.8,628.7z"/>
			</g>
			<g>
				<path class="st14" d="M645.8,692.8h-155c-1.8,0-3.2-1.4-3.2-3.2v-59.2c0-1.8,1.4-3.2,3.2-3.2h11.8l3.3-16.4l20.3,16.4h119.5
					c1.8,0,3.2,1.4,3.2,3.2v59.2C649,691.4,647.6,692.8,645.8,692.8z M490.8,630.1c-0.2,0-0.3,0.1-0.3,0.3v59.2
					c0,0.2,0.1,0.3,0.3,0.3h155c0.2,0,0.3-0.1,0.3-0.3v-59.2c0-0.2-0.1-0.3-0.3-0.3H525.3L507.9,616l-2.9,14.1H490.8z"/>
			</g>
		</g>
		<g>
			<g>
				<path class="st15" d="M533.6,645.6c0-0.7,0.3-1.1,1-1.1s1,0.4,1,1.1v1.8h14c0.7,0,1.1,0.3,1.1,1s-0.4,1-1.1,1h-14v2.9h10.1
					c0.6,0,1.1,0.2,1.5,0.7c0.5,0.5,0.7,1,0.7,1.5v7.9c0,0.6-0.2,1.1-0.7,1.5c-0.5,0.5-1,0.7-1.5,0.7h-10c4.5,3.9,9.1,6.7,13.9,8.4
					c0.8,0.4,1.2,0.9,1,1.5c-0.3,0.7-1,0.9-2.2,0.6c-4.2-1.6-8.5-4.3-12.8-8.1v8.8c0,0.7-0.3,1.1-1,1.1s-1-0.4-1-1.1v-8.4
					c-3.8,3.3-8.2,5.9-13.1,7.7c-1,0.4-1.7,0.2-2-0.6c-0.2-0.5,0-0.9,0.7-1.3c5.2-2.1,10-5,14.2-8.7h-10c-0.6,0-1.1-0.2-1.5-0.7
					c-0.5-0.5-0.7-1-0.7-1.5v-7.9c0-0.6,0.2-1.1,0.7-1.5c0.5-0.5,1-0.7,1.5-0.7h10.1v-2.9h-14c-0.8,0-1.1-0.3-1.1-1s0.4-1,1.1-1h14
					L533.6,645.6L533.6,645.6z M523.2,655.1v2.4h10.4V654h-9.3C523.6,654,523.2,654.4,523.2,655.1z M523.2,661.9
					c0,0.8,0.4,1.1,1.1,1.1h9.3v-3.8h-10.4L523.2,661.9L523.2,661.9z M535.6,657.5H546v-2.4c0-0.7-0.4-1.1-1.1-1.1h-9.3L535.6,657.5
					L535.6,657.5z M535.6,663h9.3c0.7,0,1.1-0.4,1.1-1.1v-2.7h-10.4L535.6,663L535.6,663z"/>
			</g>
			<g>
				<path class="st15" d="M563.5,666.1c0.6,0.6,0.6,1.2,0.1,1.8c-1.8,2.4-4,4.5-6.7,6.3c-0.9,0.6-1.6,0.5-2.1-0.1
					c-0.3-0.7-0.2-1.2,0.3-1.5c2.6-1.9,4.8-3.9,6.6-6.2C562.3,665.7,562.9,665.6,563.5,666.1z M569.4,645.6c0-0.9,0.4-1.4,1.3-1.4
					c0.8,0,1.3,0.5,1.3,1.4v2.5h13.6c0.7,0,1.1,0.3,1.1,1s-0.4,1-1.1,1h-29.8c-0.8,0-1.1-0.3-1.1-1s0.4-1,1.1-1h13.6L569.4,645.6
					L569.4,645.6z M580.5,653.4c0.6,0,1.1,0.2,1.5,0.7c0.5,0.5,0.7,1,0.7,1.5v6c0,0.6-0.2,1.1-0.7,1.5c-0.5,0.5-1,0.7-1.5,0.7h-8.1
					v8.4c0,2.8-1.4,4.2-4.2,4.2c-2.1,0-4-0.5-5.9-1.4c-0.5-0.3-0.7-0.7-0.6-1.1c0.2-0.6,0.6-0.8,1.1-0.7c2.2,0.7,3.8,1,4.9,1
					c1.4,0,2.1-0.5,2.1-1.5V664h-9.1c-0.6,0-1.1-0.2-1.5-0.7c-0.5-0.5-0.7-1-0.7-1.5v-6c0-0.6,0.2-1.1,0.7-1.5
					c0.5-0.5,1-0.7,1.5-0.7h19.8V653.4z M562,655.4c-0.7,0-1,0.3-1,1v4.6c0,0.7,0.3,1,1,1h17.3c0.7,0,1-0.3,1-1v-4.6
					c0-0.7-0.3-1-1-1H562z M577.9,665.8c0.5-0.5,1-0.5,1.7,0c2.4,1.9,4.6,4.1,6.6,6.7c0.5,0.8,0.4,1.5-0.3,2.1
					c-0.8,0.5-1.5,0.4-2.1-0.3c-2-2.9-3.9-5.3-5.9-7.2C577.5,666.7,577.5,666.3,577.9,665.8z"/>
			</g>
			<g>
				<path class="st15" d="M597.4,645.6c0-0.7,0.3-1.1,1-1.1s1,0.4,1,1.1v2.7h4.4c0.7,0,1,0.3,1,0.8s-0.3,0.8-1,0.8h-4.4v4.9h2.4
					c2-2.5,3.5-5.1,4.6-7.7c0.3-0.7,0.8-1,1.5-0.8c0.7,0.3,0.8,0.8,0.6,1.5c-1.3,2.7-2.7,5.1-4.2,7h4.6c0.7,0,1,0.3,1,0.8
					s-0.3,0.8-1,0.8h-5.8c-1.4,1.6-2.9,2.9-4.5,3.9h6.5c0.6,0,1.1,0.2,1.5,0.7c0.5,0.5,0.7,1,0.7,1.5v10.8c0,0.6-0.2,1.1-0.7,1.5
					c-0.5,0.5-1,0.7-1.5,0.7h-8.7c-0.6,0-1.1-0.2-1.5-0.7c-0.5-0.5-0.7-1-0.7-1.5v-10c-0.6,0.4-1.2,0.7-1.8,1
					c-0.9,0.3-1.5,0.1-1.7-0.4c-0.1-0.5,0.1-0.8,0.6-1.1c3.5-1.9,6.5-4,9.1-6.5H591c-0.7,0-1-0.3-1-0.8s0.3-0.8,1-0.8h6.5v-4.9h-4.8
					c-0.7,0-1-0.3-1-0.8s0.3-0.8,1-0.8h4.8L597.4,645.6L597.4,645.6z M596.1,663.3v3.8h9.3v-3.8c0-0.7-0.4-1.1-1.1-1.1h-7
					C596.5,662.1,596.1,662.5,596.1,663.3z M596.1,673c0,0.7,0.4,1.1,1.1,1.1h7c0.7,0,1.1-0.4,1.1-1.1v-4H596v4H596.1z M618.9,645.9
					c1.9,0,2.8,0.8,2.8,2.4c0,2.6-1.2,5.9-3.5,9.8c2.7,2.6,4.1,5.8,4.1,9.4c0,3.7-1.4,5.5-4.2,5.5c-1.1,0-2.2-0.1-3.1-0.4
					c-0.6-0.3-0.8-0.7-0.7-1.3c0.2-0.5,0.6-0.7,1.1-0.6c0.7,0.2,1.5,0.3,2.2,0.3c1.7,0,2.5-1.2,2.5-3.5c0-3.4-1.4-6.5-4.1-9.4
					c1.7-3,2.7-5.9,3.1-8.8c0.1-0.9-0.4-1.4-1.4-1.4h-3.4c-0.8,0-1.1,0.4-1.1,1.1v26.7c0,0.7-0.3,1.1-1,1.1s-1-0.4-1-1.1v-27.5
					c0-0.6,0.2-1.1,0.7-1.5c0.5-0.5,1-0.7,1.5-0.7L618.9,645.9L618.9,645.9z"/>
			</g>
		</g>
	</g>
	<g>
		<g>
			<g>
				<path class="st14" d="M833.7,493.2H713.6L694.7,478l-3.1,15.2h-13c-1,0-1.7,0.8-1.7,1.7v59.2c0,1,0.8,1.7,1.7,1.7h155
					c1,0,1.7-0.8,1.7-1.7v-59.2C835.4,494,834.6,493.2,833.7,493.2z"/>
			</g>
		</g>
		<g>
			<g>
				<path class="st2" d="M827.8,487.4h-120l-18.9-15.2l-3.1,15.2h-13c-1,0-1.7,0.8-1.7,1.7v59.2c0,1,0.8,1.7,1.7,1.7h155
					c1,0,1.7-0.8,1.7-1.7v-59.2C829.6,488.1,828.8,487.4,827.8,487.4z"/>
			</g>
			<g>
				<path class="st14" d="M827.8,551.5h-155c-1.8,0-3.2-1.4-3.2-3.2v-59.2c0-1.8,1.4-3.2,3.2-3.2h11.8l3.3-16.4l20.3,16.4h119.5
					c1.8,0,3.2,1.4,3.2,3.2v59.2C831,550.1,829.6,551.5,827.8,551.5z M672.8,488.8c-0.2,0-0.3,0.1-0.3,0.3v59.2
					c0,0.2,0.1,0.3,0.3,0.3h155c0.2,0,0.3-0.1,0.3-0.3v-59.2c0-0.2-0.1-0.3-0.3-0.3H707.2l-17.4-14.1l-2.9,14.1H672.8z"/>
			</g>
		</g>
		<g>
			<g>
				<path class="st15" d="M727.3,504.1c0.6,0,1.1,0.2,1.5,0.7c0.5,0.5,0.7,1,0.7,1.5v24c0,3-1.9,4.5-5.6,4.5c-2.4,0-4.5-0.2-6.2-0.7
					c-0.6-0.3-0.8-0.6-0.7-1c0.1-0.5,0.5-0.8,1.3-0.8c1.7,0.3,3.5,0.4,5.5,0.4c2.5,0,3.8-1.1,3.8-3.4v-14h-11.9v12.1h5.1
					c0.5,0,0.7-0.2,0.7-0.7v-7.3c0-0.7,0.3-1.1,1-1.1s1,0.4,1,1.1v8.1c0,1.2-0.6,1.8-1.8,1.8h-13.9c-1.2,0-1.8-0.6-1.8-1.8v-8.1
					c0-0.7,0.3-1.1,1-1.1s1,0.4,1,1.1v7.3c0,0.5,0.2,0.7,0.7,0.7h5.2v-12.1h-11.8v18.5c0,0.7-0.3,1.1-1,1.1s-1-0.4-1-1.1v-27.5
					c0-0.6,0.2-1.1,0.7-1.5c0.5-0.5,1-0.7,1.5-0.7L727.3,504.1L727.3,504.1z M701.9,506.8v6.6h7.4c-0.7-1.3-1.5-2.6-2.4-3.9
					c-0.4-0.6-0.3-1.1,0.1-1.5c0.6-0.3,1.1-0.1,1.7,0.4c0.7,0.8,1.7,2.5,2.9,5.1h5.5c1.5-1.4,2.7-3.1,3.7-5.1c0.5-0.7,1-0.8,1.7-0.6
					c0.6,0.4,0.7,0.9,0.6,1.5c-0.5,1.2-1.5,2.6-3.2,4.1h7.7v-6.6c0-0.5-0.2-0.7-0.7-0.7h-24.3C702.1,506.1,701.9,506.3,701.9,506.8z
					"/>
			</g>
			<g>
				<path class="st15" d="M749.5,505c0-0.9,0.4-1.4,1.3-1.4c0.8,0,1.3,0.5,1.3,1.4v27h8.8c1.1,0,1.7-0.6,1.7-1.7V510
					c0-0.9,0.4-1.4,1.3-1.4c0.8,0,1.3,0.5,1.3,1.4v21.3c0,0.6-0.3,1.1-0.8,1.7s-1.1,0.8-1.7,0.8h-23.6c-0.6,0-1.1-0.3-1.7-0.8
					c-0.6-0.6-0.8-1.1-0.8-1.7V510c0-0.9,0.4-1.4,1.3-1.4s1.3,0.5,1.3,1.4v20.2c0,1.1,0.6,1.7,1.7,1.7h8.8V505H749.5z"/>
			</g>
			<g>
				<path class="st15" d="M771.2,508.3c0-0.7,0.3-1.1,1-1.1s1,0.4,1,1.1v15c0,0.5,0.2,0.7,0.7,0.7h27.4c0.7,0,1.1,0.3,1.1,1
					s-0.4,1-1.1,1H788v8.1c0,0.9-0.4,1.4-1.3,1.4c-0.8,0-1.3-0.5-1.3-1.4V526H773c-1.2,0-1.8-0.6-1.8-1.8V508.3z M779.5,528.1
					c0.4,0.6,0.3,1.1-0.1,1.7c-2.2,2.4-4.4,4.1-6.6,4.9c-0.8,0.2-1.2,0-1.4-0.4c-0.3-0.6-0.1-1.1,0.6-1.5c1.7-0.9,3.5-2.5,5.5-4.6
					C778.3,527.6,779,527.6,779.5,528.1z M797.9,504.1c1.2,0,1.8,0.6,1.8,1.8v13.6c0,1.2-0.6,1.8-1.8,1.8h-18.8
					c-1.2,0-1.8-0.6-1.8-1.8V506c0-1.2,0.6-1.8,1.8-1.8h18.8V504.1z M779.2,506.8v2.4h18.5v-2.4c0-0.5-0.2-0.7-0.7-0.7h-17
					C779.5,506.1,779.2,506.3,779.2,506.8z M779.2,514.2h18.5v-3.1h-18.5V514.2z M779.2,518.7c0,0.5,0.2,0.7,0.7,0.7H797
					c0.5,0,0.7-0.2,0.7-0.7v-2.5h-18.5V518.7z M793.9,527.7c0.4-0.5,0.8-0.6,1.4-0.3c2.9,1.6,5.1,3.2,6.5,4.8c0.6,0.7,0.6,1.3,0,1.8
					c-0.7,0.6-1.3,0.6-2,0c-2.2-2.2-4-3.8-5.6-4.9C793.7,528.7,793.6,528.2,793.9,527.7z"/>
			</g>
		</g>
	</g>
	<g>
		<g>
			<g>
				<path class="st14" d="M400.2,606.5H298l-11.7-21.3L274,605.7l-28.8,0.8c-1,0-1.7,0.8-1.7,1.7v59.2c0,1,0.8,1.7,1.7,1.7h155
					c1,0,1.7-0.8,1.7-1.7v-59.2C401.9,607.3,401.1,606.5,400.2,606.5z"/>
			</g>
		</g>
		<g>
			<g>
				<path class="st2" d="M394.3,600.7l-105-0.2l-6.7-15.3l-15.2,15.3l-28.2,0.2c-1,0-1.7,0.8-1.7,1.7v59.2c0,1,0.8,1.7,1.7,1.7h155
					c1,0,1.7-0.8,1.7-1.7v-59.2C396.1,601.4,395.3,600.7,394.3,600.7z"/>
			</g>
			<g>
				<path class="st14" d="M394.3,664.8h-155c-1.8,0-3.2-1.4-3.2-3.2v-59.2c0-1.8,1.4-3.2,3.2-3.2l27.6-0.2l16.3-16.4l7.2,16.4
					l104,0.2c1.8,0,3.2,1.4,3.2,3.2v59.2C397.6,663.4,396.1,664.8,394.3,664.8z M282.2,587.7l-14.1,14.2l-28.8,0.2
					c-0.2,0-0.3,0.1-0.3,0.3v59.2c0,0.2,0.1,0.3,0.3,0.3h155c0.2,0,0.3-0.1,0.3-0.3v-59.2c0-0.2-0.1-0.3-0.3-0.3l0,0l-105.9-0.2
					L282.2,587.7z"/>
			</g>
		</g>
		<g>
			<g>
				<path class="st15" d="M289.1,617.3c0-0.7,0.3-1.1,1-1.1s1,0.4,1,1.1v4.4h2.8c1.3,0,2,0.6,2,1.8c0,0.8-0.6,2.2-1.7,3.9
					c-1,1.5-2.2,2.9-3.4,4.4v0.7c2,1.3,3.4,2.4,4.2,3.2c0.7,0.8,0.7,1.4,0.3,2c-0.7,0.5-1.4,0.3-2.1-0.4c-0.8-0.8-1.5-1.7-2.4-2.5
					v13.1c0,0.7-0.3,1.1-1,1.1s-1-0.4-1-1.1V634c-1,1.2-1.9,2.1-2.5,2.5c-0.8,0.5-1.3,0.5-1.7,0c-0.4-0.6-0.1-1.2,0.7-1.8
					c3.8-3.6,6.5-6.8,7.9-9.8c0.3-0.7,0.1-1.1-0.4-1.1h-7.3c-0.8,0-1.1-0.3-1.1-1s0.4-1,1.1-1h3.7v-4.5H289.1z M315.5,617.7
					c0.7,0,1,0.3,1,0.8s-0.3,0.8-1,0.8h-18.7c-0.7,0-1-0.3-1-0.8s0.3-0.8,1-0.8H315.5z M313.9,633.7c0.6,0,1.1,0.2,1.5,0.7
					c0.5,0.5,0.7,1,0.7,1.5V646c0,0.6-0.2,1.1-0.7,1.5c-0.5,0.5-1,0.7-1.5,0.7h-15c-0.6,0-1.1-0.2-1.5-0.7c-0.5-0.5-0.7-1-0.7-1.5
					v-10c0-0.6,0.2-1.1,0.7-1.5c0.5-0.5,1-0.7,1.5-0.7L313.9,633.7L313.9,633.7z M312.5,622.3c0.6,0,1.1,0.2,1.5,0.7
					c0.5,0.5,0.7,1,0.7,1.5v4.1c0,0.6-0.2,1.1-0.7,1.5c-0.5,0.5-1,0.7-1.5,0.7h-12.2c-0.6,0-1.1-0.2-1.5-0.7c-0.5-0.5-0.7-1-0.7-1.5
					v-4.1c0-0.6,0.2-1.1,0.7-1.5c0.5-0.5,1-0.7,1.5-0.7H312.5z M300.1,635.4c-1,0-1.5,0.5-1.5,1.5v3.2h6.9v-4.8L300.1,635.4
					L300.1,635.4z M298.6,645.1c0,1,0.5,1.5,1.5,1.5h5.3v-4.8h-6.9v3.3H298.6z M301.5,624c-1,0-1.5,0.5-1.5,1.5v2.1
					c0,1,0.5,1.5,1.5,1.5h9.7c1,0,1.5-0.5,1.5-1.5v-2.1c0-1-0.5-1.5-1.5-1.5H301.5z M307.4,640.2h6.7V637c0-1-0.5-1.5-1.5-1.5h-5.2
					V640.2z M307.4,646.6h5.2c1,0,1.5-0.5,1.5-1.5v-3.2h-6.7V646.6z"/>
			</g>
			<g>
				<path class="st15" d="M349.3,617.4c0.6,0,1.1,0.2,1.5,0.7c0.5,0.5,0.7,1,0.7,1.5v24c0,3-1.9,4.5-5.6,4.5c-2.4,0-4.5-0.2-6.2-0.7
					c-0.6-0.3-0.8-0.6-0.7-1c0.1-0.5,0.5-0.8,1.3-0.8c1.7,0.3,3.5,0.4,5.5,0.4c2.5,0,3.8-1.1,3.8-3.4v-14h-11.9v12.1h5.1
					c0.5,0,0.7-0.2,0.7-0.7v-7.3c0-0.7,0.3-1.1,1-1.1s1,0.4,1,1.1v8.1c0,1.2-0.6,1.8-1.8,1.8h-13.9c-1.2,0-1.8-0.6-1.8-1.8v-8.1
					c0-0.7,0.3-1.1,1-1.1s1,0.4,1,1.1v7.3c0,0.5,0.2,0.7,0.7,0.7h5.2v-12.1h-11.8v18.5c0,0.7-0.3,1.1-1,1.1s-1-0.4-1-1.1v-27.5
					c0-0.6,0.2-1.1,0.7-1.5c0.5-0.5,1-0.7,1.5-0.7H349.3z M323.8,620.1v6.6h7.4c-0.7-1.3-1.5-2.6-2.4-3.9c-0.4-0.6-0.3-1.1,0.1-1.5
					c0.6-0.3,1.1-0.1,1.7,0.4c0.7,0.8,1.7,2.5,2.9,5.1h5.5c1.5-1.4,2.7-3.1,3.7-5.1c0.5-0.7,1-0.8,1.7-0.6c0.6,0.4,0.7,0.9,0.6,1.5
					c-0.5,1.2-1.5,2.6-3.2,4.1h7.7v-6.6c0-0.5-0.2-0.7-0.7-0.7h-24.3C324.1,619.4,323.8,619.6,323.8,620.1z"/>
			</g>
		</g>
	</g>
	<g>
		<g>
			<circle class="st2" cx="402" cy="130" r="2.9"/>
		</g>
	</g>
	<g>
		<g>
			<g>
				<g>
					<g>
						<g>
							<g>
								<circle class="st2" cx="407" cy="139.4" r="6.2"/>
							</g>
						</g>
					</g>
					<g>
						<g>
							<g>
								<path class="st2" d="M423.2,166.6l-6.1-16.1c-0.1-0.4-0.3-0.7-0.6-0.9c-0.3-0.4-0.6-0.6-1-0.8c-2.3-0.8-8.5-1.1-8.5-1.1
									s-6.2,0.2-8.5,1.1c-0.4,0.2-0.8,0.4-1,0.8c-0.2,0.3-0.5,0.6-0.6,0.9l-6.1,16.1c-0.5,1.4,0.2,3,1.6,3.5s3-0.2,3.5-1.6
									l3.7-9.8v31.9c0,1.8,1.5,3.2,3.2,3.2c1.8,0,3.2-1.5,3.2-3.2v-19.2c0.1-0.4,0.4-0.8,1-0.8s0.8,0.4,1,0.8v19.2
									c0,1.8,1.5,3.2,3.2,3.2c1.8,0,3.2-1.5,3.2-3.2v-31.9l3.7,9.8c0.5,1.4,2.1,2.1,3.5,1.6l0,0
									C423,169.5,423.7,167.9,423.2,166.6z"/>
							</g>
						</g>
					</g>
				</g>
			</g>
		</g>
		<g>
			<g>
				<g>
					<circle class="st2" cx="400.8" cy="134.3" r="2.9"/>
				</g>
			</g>
		</g>
		<g>
			<g>
				<g>
					<circle class="st2" cx="400" cy="137.3" r="2.9"/>
				</g>
			</g>
		</g>
		<g>
			<g>
				<g>
					<circle class="st2" cx="407.5" cy="130.4" r="2.9"/>
				</g>
			</g>
		</g>
		<g>
			<g>
				<g>
					<circle class="st2" cx="412.7" cy="134.3" r="2.9"/>
				</g>
			</g>
		</g>
		<g>
			<g>
				<g>
					<circle class="st2" cx="413.4" cy="137.3" r="2.9"/>
				</g>
			</g>
		</g>
		<g>
			<g>
				<circle class="st2" cx="407.5" cy="131" r="2.9"/>
			</g>
		</g>
		<g>
			<g>
				<circle class="st2" cx="405.3" cy="133.8" r="2.9"/>
			</g>
		</g>
		<g>
			<g>
				<circle class="st2" cx="411.8" cy="129.9" r="2.9"/>
			</g>
		</g>
		<g>
			<g>
				<circle class="st2" cx="404.1" cy="128.2" r="2.9"/>
			</g>
		</g>
		<g>
			<g>
				<circle class="st2" cx="400.2" cy="131.5" r="2.9"/>
			</g>
		</g>
	</g>
</g>
<g id="ガイド">
</g>
</svg>
